<svg width="800" height="700" xmlns="http://www.w3.org/2000/svg">
  <style>
    .label { font-family: -apple-system, BlinkMacSystemFont, "Segoe UI", Roboto, Helvetica, Arial, sans-serif, "Apple Color Emoji", "Segoe UI Emoji", "Segoe UI Symbol"; font-size: 12px; fill: #333; text-anchor: middle; dominant-baseline: middle; }
    .box { stroke: #4A90E2; stroke-width: 1.5; fill: #E9F2FC; rx:5; ry:5; filter:url(#shadow); }
    .diamond { stroke: #4A90E2; stroke-width: 1.5; fill: #D2E6F9; filter:url(#shadow); }
    .arrow { stroke: #4A4A4A; stroke-width: 1.5; fill: none; marker-end: url(#arrowhead); }
    .line-label { font-family: -apple-system, BlinkMacSystemFont, "Segoe UI", Roboto, Helvetica, Arial, sans-serif, "Apple Color Emoji", "Segoe UI Emoji", "Segoe UI Symbol"; font-size: 10px; fill: #555; text-anchor: middle; }
  </style>
  <defs>
    <marker id="arrowhead" markerWidth="8" markerHeight="6" refX="7.5" refY="3" orient="auto" fill="#4A4A4A">
      <polygon points="0 0, 8 3, 0 6"/>
    </marker>
    <filter id="shadow" x="-20%" y="-20%" width="140%" height="140%">
      <feGaussianBlur in="SourceAlpha" stdDeviation="2.5"/>
      <feOffset dx="1.5" dy="1.5" result="offsetblur"/>
      <feComponentTransfer>
        <feFuncA type="linear" slope="0.3"/>
      </feComponentTransfer>
      <feMerge> 
        <feMergeNode/>
        <feMergeNode in="SourceGraphic"/> 
      </feMerge>
    </filter>
  </defs>

  <!-- Boxes & Diamonds -->
  <rect class="box" id="b1" x="325" y="20" width="150" height="40"/><text class="label" x="400" y="40">1. 问题定义</text>
  <rect class="box" id="b2" x="325" y="90" width="150" height="40"/><text class="label" x="400" y="110">2. 数据收集</text>
  <rect class="box" id="b3" x="325" y="160" width="150" height="40"/><text class="label" x="400" y="180">3. 数据预处理</text>
  <rect class="box" id="b4" x="325" y="230" width="150" height="40"/><text class="label" x="400" y="250">4. 特征工程</text>
  
  <polygon class="diamond" id="d1" points="400,300 485,335 400,370 315,335"/><text class="label" x="400" y="335">5. 模型选择</text>
  
  <rect class="box" id="b6" x="325" y="400" width="150" height="40"/><text class="label" x="400" y="420">6. 模型训练</text>
  <rect class="box" id="b7" x="325" y="470" width="150" height="40"/><text class="label" x="400" y="490">7. 模型评估</text>
  
  <rect class="box" id="b8" x="100" y="470" width="150" height="40"/><text class="label" x="175" y="490">8. 模型调优</text>
  
  <rect class="box" id="b9" x="550" y="540" width="150" height="40"/><text class="label" x="625" y="560">9. 模型部署</text>
  <rect class="box" id="b10" x="550" y="610" width="150" height="40"/><text class="label" x="625" y="630">10. 模型监控与维护</text>

  <!-- Arrows -->
  <path class="arrow" d="M400,60  V90"/>
  <path class="arrow" d="M400,130 V160"/>
  <path class="arrow" d="M400,200 V230"/>
  <path class="arrow" d="M400,270 V300"/>
  <path class="arrow" d="M400,370 V400"/>
  <path class="arrow" d="M400,440 V470"/>

  <!-- Evaluation to Tuning / Deployment -->
  <path class="arrow" d="M325,490 H250"/> 
  <text class="line-label" x="287" y="480">不满意?</text>
  
  <path class="arrow" d="M475,490 H525 V520 H550"/>
  <text class="line-label" x="500" y="480">满意?</text>
  
  <!-- Tuning loop back to Training -->
  <path class="arrow" d="M175,470 V430 Q175,400 250,400 H325"/> 
  <text class="line-label" x="200" y="405">调优后</text>

  <!-- Deployment to Monitoring -->
   <path class="arrow" d="M625,580 V610"/>

</svg> 