<svg width="900" height="1350" viewBox="0 0 900 1350" xmlns="http://www.w3.org/2000/svg" font-family="Arial, sans-serif">

    <!-- Defs for arrowhead -->
    <defs>
      <marker id="arrowhead" markerWidth="10" markerHeight="7" refX="0" refY="3.5" orient="auto" markerUnits="strokeWidth">
        <polygon points="0 0, 10 3.5, 0 7" fill="#333" />
      </marker>
      <marker id="arrowhead-feedback" markerWidth="8" markerHeight="5.6" refX="0" refY="2.8" orient="auto" markerUnits="strokeWidth">
        <polygon points="0 0, 8 2.8, 0 5.6" fill="#555" />
      </marker>
    </defs>
  
    <!-- Style for boxes and text -->
    <style>
      .stage-rect {
        fill: #f8f9fa; /* Light gray background */
        stroke: #adb5bd; /* Medium gray border */
        stroke-width: 1.5;
        rx: 8; /* Rounded corners */
        ry: 8;
      }
      .stage-text {
        font-size: 16px;
        fill: #212529; /* Dark gray text */
        text-anchor: middle;
        dominant-baseline: middle;
      }
      .main-arrow {
        stroke: #333;
        stroke-width: 2;
        marker-end: url(#arrowhead);
      }
      .feedback-arrow {
        stroke: #555; /* Slightly lighter for feedback */
        stroke-width: 1.5;
        marker-end: url(#arrowhead-feedback);
        fill: none;
      }
      .feedback-text {
        font-size: 12px;
        fill: #555;
        text-anchor: middle;
      }
    </style>
  
    <!-- Variables for layout -->
    <script>
      const boxWidth = 280;
      const boxHeight = 70;
      const vSpacing = 70; // Vertical spacing between boxes
      const centerX = 450; // Center X for main flow
      const feedbackOffsetX = boxWidth / 2 + 60; // Horizontal offset for feedback loops
      const feedbackTextOffsetY = -8;
    </script>
  
    <!-- Stages -->
    <!-- 1. 问题定义与目标设定 -->
    <g id="stage1">
      <rect class="stage-rect" x="310" y="50" width="280" height="70" />
      <text class="stage-text" x="450" y="85">1. 问题定义与目标设定</text>
    </g>
  
    <!-- 2. 数据采集与理解 -->
    <g id="stage2">
      <rect class="stage-rect" x="310" y="190" width="280" height="70" />
      <text class="stage-text" x="450" y="225">2. 数据采集与理解</text>
    </g>
  
    <!-- 3. 数据预处理与清洗 -->
    <g id="stage3">
      <rect class="stage-rect" x="310" y="330" width="280" height="70" />
      <text class="stage-text" x="450" y="365">3. 数据预处理与清洗</text>
    </g>
  
    <!-- 4. 特征工程 -->
    <g id="stage4">
      <rect class="stage-rect" x="310" y="470" width="280" height="70" />
      <text class="stage-text" x="450" y="505">4. 特征工程</text>
    </g>
  
    <!-- 5. 模型选择与训练 -->
    <g id="stage5">
      <rect class="stage-rect" x="310" y="610" width="280" height="70" />
      <text class="stage-text" x="450" y="645">5. 模型选择与训练</text>
    </g>
  
    <!-- 6. 模型评估与验证 -->
    <g id="stage6">
      <rect class="stage-rect" x="310" y="750" width="280" height="70" />
      <text class="stage-text" x="450" y="785">6. 模型评估与验证</text>
    </g>
  
    <!-- 7. 超参数调优 -->
    <g id="stage7">
      <rect class="stage-rect" x="310" y="890" width="280" height="70" />
      <text class="stage-text" x="450" y="925">7. 超参数调优</text>
    </g>
  
    <!-- 8. 模型部署 -->
    <g id="stage8">
      <rect class="stage-rect" x="310" y="1030" width="280" height="70" />
      <text class="stage-text" x="450" y="1065">8. 模型部署</text>
    </g>
  
    <!-- 9. 模型监控与迭代 -->
    <g id="stage9">
      <rect class="stage-rect" x="310" y="1170" width="280" height="70" />
      <text class="stage-text" x="450" y="1205">9. 模型监控与迭代</text>
    </g>
  
    <!-- Main Flow Arrows -->
    <line class="main-arrow" x1="450" y1="120" x2="450" y2="190" />
    <line class="main-arrow" x1="450" y1="260" x2="450" y2="330" />
    <line class="main-arrow" x1="450" y1="400" x2="450" y2="470" />
    <line class="main-arrow" x1="450" y1="540" x2="450" y2="610" />
    <line class="main-arrow" x1="450" y1="680" x2="450" y2="750" />
    <line class="main-arrow" x1="450" y1="820" x2="450" y2="890" />
    <line class="main-arrow" x1="450" y1="960" x2="450" y2="1030" />
    <line class="main-arrow" x1="450" y1="1100" x2="450" y2="1170" />
  
    <!-- Iteration/Feedback Arrows -->
  
    <!-- From 3. Data Preprocessing back to 2. Data Collection -->
    <path class="feedback-arrow" d="M 310 365 Q 200 330, 310 225" />
    <text class="feedback-text" x="230" y="290">数据质量问题</text>
  
    <!-- From 4. Feature Engineering back to 3. Data Preprocessing -->
    <path class="feedback-arrow" d="M 310 505 Q 200 470, 310 395" />
    <text class="feedback-text" x="230" y="445">预处理调整</text>
    
    <!-- From 6. Model Evaluation back to 5. Model Selection/Training -->
    <path class="feedback-arrow" d="M 590 785 Q 700 750, 590 645" />
    <text class="feedback-text" x="670" y="710">性能不佳</text>
  
    <!-- From 6. Model Evaluation back to 4. Feature Engineering -->
    <path class="feedback-arrow" d="M 310 785 Q 150 645, 310 505" />
    <text class="feedback-text" x="180" y="640">特征改进</text>
  
    <!-- From 7. Hyperparameter Tuning back to 5. Model Selection/Training (implicitly, through evaluation) -->
    <!-- More direct: Tuning refines the trained model, or leads to retraining with new HPs -->
    <path class="feedback-arrow" d="M 590 925 Q 700 890, 590 680" /> <!-- To top of box 5 -->
    <text class="feedback-text" x="670" y="800">参数优化后重训练</text>
  
    <!-- From 9. Model Monitoring back to 1. Problem Definition (Major Loop) -->
    <path class="feedback-arrow" d="M 590 1205 
                                   C 750 1205, 750 85, 590 85" />
    <text class="feedback-text" x="700" y="645" dominant-baseline="central">概念漂移/业务变化</text>
    
    <!-- From 9. Model Monitoring back to 2. Data Collection -->
     <path class="feedback-arrow" d="M 310 1205 
                                   C 150 1205, 150 225, 310 225" />
     <text class="feedback-text" x="200" y="715" dominant-baseline="central">数据更新/再训练</text>
  
  </svg>