<?xml version="1.0" encoding="utf-8" standalone="no"?>
<!DOCTYPE svg PUBLIC "-//W3C//DTD SVG 1.1//EN"
  "http://www.w3.org/Graphics/SVG/1.1/DTD/svg11.dtd">
<svg xmlns:xlink="http://www.w3.org/1999/xlink" width="576pt" height="360pt" viewBox="0 0 576 360" xmlns="http://www.w3.org/2000/svg" version="1.1">
 <metadata>
  <rdf:RDF xmlns:dc="http://purl.org/dc/elements/1.1/" xmlns:cc="http://creativecommons.org/ns#" xmlns:rdf="http://www.w3.org/1999/02/22-rdf-syntax-ns#">
   <cc:Work>
    <dc:type rdf:resource="http://purl.org/dc/dcmitype/StillImage"/>
    <dc:date>2025-05-27T11:08:10.710849</dc:date>
    <dc:format>image/svg+xml</dc:format>
    <dc:creator>
     <cc:Agent>
      <dc:title>Matplotlib v3.7.2, https://matplotlib.org/</dc:title>
     </cc:Agent>
    </dc:creator>
   </cc:Work>
  </rdf:RDF>
 </metadata>
 <defs>
  <style type="text/css">*{stroke-linejoin: round; stroke-linecap: butt}</style>
 </defs>
 <g id="figure_1">
  <g id="patch_1">
   <path d="M 0 360 
L 576 360 
L 576 0 
L 0 0 
z
" style="fill: #ffffff"/>
  </g>
  <g id="axes_1">
   <g id="patch_2">
    <path d="M 72 320.4 
L 518.4 320.4 
L 518.4 43.2 
L 72 43.2 
z
" style="fill: #ffffff"/>
   </g>
   <g id="matplotlib.axis_1">
    <g id="xtick_1">
     <g id="line2d_1">
      <path d="M 91.884278 320.4 
L 91.884278 43.2 
" clip-path="url(#p70f575a483)" style="fill: none; stroke-dasharray: 0.8,1.32; stroke-dashoffset: 0; stroke: #b0b0b0; stroke-opacity: 0.7; stroke-width: 0.8"/>
     </g>
     <g id="line2d_2">
      <defs>
       <path id="m886e03af1d" d="M 0 0 
L 0 3.5 
" style="stroke: #000000; stroke-width: 0.8"/>
      </defs>
      <g>
       <use xlink:href="#m886e03af1d" x="91.884278" y="320.4" style="stroke: #000000; stroke-width: 0.8"/>
      </g>
     </g>
     <g id="text_1">
      <!-- 0.0 -->
      <g transform="translate(83.932715 334.998438) scale(0.1 -0.1)">
       <defs>
        <path id="DejaVuSans-30" d="M 2034 4250 
Q 1547 4250 1301 3770 
Q 1056 3291 1056 2328 
Q 1056 1369 1301 889 
Q 1547 409 2034 409 
Q 2525 409 2770 889 
Q 3016 1369 3016 2328 
Q 3016 3291 2770 3770 
Q 2525 4250 2034 4250 
z
M 2034 4750 
Q 2819 4750 3233 4129 
Q 3647 3509 3647 2328 
Q 3647 1150 3233 529 
Q 2819 -91 2034 -91 
Q 1250 -91 836 529 
Q 422 1150 422 2328 
Q 422 3509 836 4129 
Q 1250 4750 2034 4750 
z
" transform="scale(0.015625)"/>
        <path id="DejaVuSans-2e" d="M 684 794 
L 1344 794 
L 1344 0 
L 684 0 
L 684 794 
z
" transform="scale(0.015625)"/>
       </defs>
       <use xlink:href="#DejaVuSans-30"/>
       <use xlink:href="#DejaVuSans-2e" x="63.623047"/>
       <use xlink:href="#DejaVuSans-30" x="95.410156"/>
      </g>
     </g>
    </g>
    <g id="xtick_2">
     <g id="line2d_3">
      <path d="M 173.210567 320.4 
L 173.210567 43.2 
" clip-path="url(#p70f575a483)" style="fill: none; stroke-dasharray: 0.8,1.32; stroke-dashoffset: 0; stroke: #b0b0b0; stroke-opacity: 0.7; stroke-width: 0.8"/>
     </g>
     <g id="line2d_4">
      <g>
       <use xlink:href="#m886e03af1d" x="173.210567" y="320.4" style="stroke: #000000; stroke-width: 0.8"/>
      </g>
     </g>
     <g id="text_2">
      <!-- 0.2 -->
      <g transform="translate(165.259004 334.998438) scale(0.1 -0.1)">
       <defs>
        <path id="DejaVuSans-32" d="M 1228 531 
L 3431 531 
L 3431 0 
L 469 0 
L 469 531 
Q 828 903 1448 1529 
Q 2069 2156 2228 2338 
Q 2531 2678 2651 2914 
Q 2772 3150 2772 3378 
Q 2772 3750 2511 3984 
Q 2250 4219 1831 4219 
Q 1534 4219 1204 4116 
Q 875 4013 500 3803 
L 500 4441 
Q 881 4594 1212 4672 
Q 1544 4750 1819 4750 
Q 2544 4750 2975 4387 
Q 3406 4025 3406 3419 
Q 3406 3131 3298 2873 
Q 3191 2616 2906 2266 
Q 2828 2175 2409 1742 
Q 1991 1309 1228 531 
z
" transform="scale(0.015625)"/>
       </defs>
       <use xlink:href="#DejaVuSans-30"/>
       <use xlink:href="#DejaVuSans-2e" x="63.623047"/>
       <use xlink:href="#DejaVuSans-32" x="95.410156"/>
      </g>
     </g>
    </g>
    <g id="xtick_3">
     <g id="line2d_5">
      <path d="M 254.536856 320.4 
L 254.536856 43.2 
" clip-path="url(#p70f575a483)" style="fill: none; stroke-dasharray: 0.8,1.32; stroke-dashoffset: 0; stroke: #b0b0b0; stroke-opacity: 0.7; stroke-width: 0.8"/>
     </g>
     <g id="line2d_6">
      <g>
       <use xlink:href="#m886e03af1d" x="254.536856" y="320.4" style="stroke: #000000; stroke-width: 0.8"/>
      </g>
     </g>
     <g id="text_3">
      <!-- 0.4 -->
      <g transform="translate(246.585293 334.998438) scale(0.1 -0.1)">
       <defs>
        <path id="DejaVuSans-34" d="M 2419 4116 
L 825 1625 
L 2419 1625 
L 2419 4116 
z
M 2253 4666 
L 3047 4666 
L 3047 1625 
L 3713 1625 
L 3713 1100 
L 3047 1100 
L 3047 0 
L 2419 0 
L 2419 1100 
L 313 1100 
L 313 1709 
L 2253 4666 
z
" transform="scale(0.015625)"/>
       </defs>
       <use xlink:href="#DejaVuSans-30"/>
       <use xlink:href="#DejaVuSans-2e" x="63.623047"/>
       <use xlink:href="#DejaVuSans-34" x="95.410156"/>
      </g>
     </g>
    </g>
    <g id="xtick_4">
     <g id="line2d_7">
      <path d="M 335.863144 320.4 
L 335.863144 43.2 
" clip-path="url(#p70f575a483)" style="fill: none; stroke-dasharray: 0.8,1.32; stroke-dashoffset: 0; stroke: #b0b0b0; stroke-opacity: 0.7; stroke-width: 0.8"/>
     </g>
     <g id="line2d_8">
      <g>
       <use xlink:href="#m886e03af1d" x="335.863144" y="320.4" style="stroke: #000000; stroke-width: 0.8"/>
      </g>
     </g>
     <g id="text_4">
      <!-- 0.6 -->
      <g transform="translate(327.911582 334.998438) scale(0.1 -0.1)">
       <defs>
        <path id="DejaVuSans-36" d="M 2113 2584 
Q 1688 2584 1439 2293 
Q 1191 2003 1191 1497 
Q 1191 994 1439 701 
Q 1688 409 2113 409 
Q 2538 409 2786 701 
Q 3034 994 3034 1497 
Q 3034 2003 2786 2293 
Q 2538 2584 2113 2584 
z
M 3366 4563 
L 3366 3988 
Q 3128 4100 2886 4159 
Q 2644 4219 2406 4219 
Q 1781 4219 1451 3797 
Q 1122 3375 1075 2522 
Q 1259 2794 1537 2939 
Q 1816 3084 2150 3084 
Q 2853 3084 3261 2657 
Q 3669 2231 3669 1497 
Q 3669 778 3244 343 
Q 2819 -91 2113 -91 
Q 1303 -91 875 529 
Q 447 1150 447 2328 
Q 447 3434 972 4092 
Q 1497 4750 2381 4750 
Q 2619 4750 2861 4703 
Q 3103 4656 3366 4563 
z
" transform="scale(0.015625)"/>
       </defs>
       <use xlink:href="#DejaVuSans-30"/>
       <use xlink:href="#DejaVuSans-2e" x="63.623047"/>
       <use xlink:href="#DejaVuSans-36" x="95.410156"/>
      </g>
     </g>
    </g>
    <g id="xtick_5">
     <g id="line2d_9">
      <path d="M 417.189433 320.4 
L 417.189433 43.2 
" clip-path="url(#p70f575a483)" style="fill: none; stroke-dasharray: 0.8,1.32; stroke-dashoffset: 0; stroke: #b0b0b0; stroke-opacity: 0.7; stroke-width: 0.8"/>
     </g>
     <g id="line2d_10">
      <g>
       <use xlink:href="#m886e03af1d" x="417.189433" y="320.4" style="stroke: #000000; stroke-width: 0.8"/>
      </g>
     </g>
     <g id="text_5">
      <!-- 0.8 -->
      <g transform="translate(409.237871 334.998438) scale(0.1 -0.1)">
       <defs>
        <path id="DejaVuSans-38" d="M 2034 2216 
Q 1584 2216 1326 1975 
Q 1069 1734 1069 1313 
Q 1069 891 1326 650 
Q 1584 409 2034 409 
Q 2484 409 2743 651 
Q 3003 894 3003 1313 
Q 3003 1734 2745 1975 
Q 2488 2216 2034 2216 
z
M 1403 2484 
Q 997 2584 770 2862 
Q 544 3141 544 3541 
Q 544 4100 942 4425 
Q 1341 4750 2034 4750 
Q 2731 4750 3128 4425 
Q 3525 4100 3525 3541 
Q 3525 3141 3298 2862 
Q 3072 2584 2669 2484 
Q 3125 2378 3379 2068 
Q 3634 1759 3634 1313 
Q 3634 634 3220 271 
Q 2806 -91 2034 -91 
Q 1263 -91 848 271 
Q 434 634 434 1313 
Q 434 1759 690 2068 
Q 947 2378 1403 2484 
z
M 1172 3481 
Q 1172 3119 1398 2916 
Q 1625 2713 2034 2713 
Q 2441 2713 2670 2916 
Q 2900 3119 2900 3481 
Q 2900 3844 2670 4047 
Q 2441 4250 2034 4250 
Q 1625 4250 1398 4047 
Q 1172 3844 1172 3481 
z
" transform="scale(0.015625)"/>
       </defs>
       <use xlink:href="#DejaVuSans-30"/>
       <use xlink:href="#DejaVuSans-2e" x="63.623047"/>
       <use xlink:href="#DejaVuSans-38" x="95.410156"/>
      </g>
     </g>
    </g>
    <g id="xtick_6">
     <g id="line2d_11">
      <path d="M 498.515722 320.4 
L 498.515722 43.2 
" clip-path="url(#p70f575a483)" style="fill: none; stroke-dasharray: 0.8,1.32; stroke-dashoffset: 0; stroke: #b0b0b0; stroke-opacity: 0.7; stroke-width: 0.8"/>
     </g>
     <g id="line2d_12">
      <g>
       <use xlink:href="#m886e03af1d" x="498.515722" y="320.4" style="stroke: #000000; stroke-width: 0.8"/>
      </g>
     </g>
     <g id="text_6">
      <!-- 1.0 -->
      <g transform="translate(490.56416 334.998438) scale(0.1 -0.1)">
       <defs>
        <path id="DejaVuSans-31" d="M 794 531 
L 1825 531 
L 1825 4091 
L 703 3866 
L 703 4441 
L 1819 4666 
L 2450 4666 
L 2450 531 
L 3481 531 
L 3481 0 
L 794 0 
L 794 531 
z
" transform="scale(0.015625)"/>
       </defs>
       <use xlink:href="#DejaVuSans-31"/>
       <use xlink:href="#DejaVuSans-2e" x="63.623047"/>
       <use xlink:href="#DejaVuSans-30" x="95.410156"/>
      </g>
     </g>
    </g>
    <g id="text_7">
     <!-- Probability of Class 1 (pâ‚) -->
     <g transform="translate(232.179688 348.676562) scale(0.1 -0.1)">
      <defs>
       <path id="DejaVuSans-50" d="M 1259 4147 
L 1259 2394 
L 2053 2394 
Q 2494 2394 2734 2622 
Q 2975 2850 2975 3272 
Q 2975 3691 2734 3919 
Q 2494 4147 2053 4147 
L 1259 4147 
z
M 628 4666 
L 2053 4666 
Q 2838 4666 3239 4311 
Q 3641 3956 3641 3272 
Q 3641 2581 3239 2228 
Q 2838 1875 2053 1875 
L 1259 1875 
L 1259 0 
L 628 0 
L 628 4666 
z
" transform="scale(0.015625)"/>
       <path id="DejaVuSans-72" d="M 2631 2963 
Q 2534 3019 2420 3045 
Q 2306 3072 2169 3072 
Q 1681 3072 1420 2755 
Q 1159 2438 1159 1844 
L 1159 0 
L 581 0 
L 581 3500 
L 1159 3500 
L 1159 2956 
Q 1341 3275 1631 3429 
Q 1922 3584 2338 3584 
Q 2397 3584 2469 3576 
Q 2541 3569 2628 3553 
L 2631 2963 
z
" transform="scale(0.015625)"/>
       <path id="DejaVuSans-6f" d="M 1959 3097 
Q 1497 3097 1228 2736 
Q 959 2375 959 1747 
Q 959 1119 1226 758 
Q 1494 397 1959 397 
Q 2419 397 2687 759 
Q 2956 1122 2956 1747 
Q 2956 2369 2687 2733 
Q 2419 3097 1959 3097 
z
M 1959 3584 
Q 2709 3584 3137 3096 
Q 3566 2609 3566 1747 
Q 3566 888 3137 398 
Q 2709 -91 1959 -91 
Q 1206 -91 779 398 
Q 353 888 353 1747 
Q 353 2609 779 3096 
Q 1206 3584 1959 3584 
z
" transform="scale(0.015625)"/>
       <path id="DejaVuSans-62" d="M 3116 1747 
Q 3116 2381 2855 2742 
Q 2594 3103 2138 3103 
Q 1681 3103 1420 2742 
Q 1159 2381 1159 1747 
Q 1159 1113 1420 752 
Q 1681 391 2138 391 
Q 2594 391 2855 752 
Q 3116 1113 3116 1747 
z
M 1159 2969 
Q 1341 3281 1617 3432 
Q 1894 3584 2278 3584 
Q 2916 3584 3314 3078 
Q 3713 2572 3713 1747 
Q 3713 922 3314 415 
Q 2916 -91 2278 -91 
Q 1894 -91 1617 61 
Q 1341 213 1159 525 
L 1159 0 
L 581 0 
L 581 4863 
L 1159 4863 
L 1159 2969 
z
" transform="scale(0.015625)"/>
       <path id="DejaVuSans-61" d="M 2194 1759 
Q 1497 1759 1228 1600 
Q 959 1441 959 1056 
Q 959 750 1161 570 
Q 1363 391 1709 391 
Q 2188 391 2477 730 
Q 2766 1069 2766 1631 
L 2766 1759 
L 2194 1759 
z
M 3341 1997 
L 3341 0 
L 2766 0 
L 2766 531 
Q 2569 213 2275 61 
Q 1981 -91 1556 -91 
Q 1019 -91 701 211 
Q 384 513 384 1019 
Q 384 1609 779 1909 
Q 1175 2209 1959 2209 
L 2766 2209 
L 2766 2266 
Q 2766 2663 2505 2880 
Q 2244 3097 1772 3097 
Q 1472 3097 1187 3025 
Q 903 2953 641 2809 
L 641 3341 
Q 956 3463 1253 3523 
Q 1550 3584 1831 3584 
Q 2591 3584 2966 3190 
Q 3341 2797 3341 1997 
z
" transform="scale(0.015625)"/>
       <path id="DejaVuSans-69" d="M 603 3500 
L 1178 3500 
L 1178 0 
L 603 0 
L 603 3500 
z
M 603 4863 
L 1178 4863 
L 1178 4134 
L 603 4134 
L 603 4863 
z
" transform="scale(0.015625)"/>
       <path id="DejaVuSans-6c" d="M 603 4863 
L 1178 4863 
L 1178 0 
L 603 0 
L 603 4863 
z
" transform="scale(0.015625)"/>
       <path id="DejaVuSans-74" d="M 1172 4494 
L 1172 3500 
L 2356 3500 
L 2356 3053 
L 1172 3053 
L 1172 1153 
Q 1172 725 1289 603 
Q 1406 481 1766 481 
L 2356 481 
L 2356 0 
L 1766 0 
Q 1100 0 847 248 
Q 594 497 594 1153 
L 594 3053 
L 172 3053 
L 172 3500 
L 594 3500 
L 594 4494 
L 1172 4494 
z
" transform="scale(0.015625)"/>
       <path id="DejaVuSans-79" d="M 2059 -325 
Q 1816 -950 1584 -1140 
Q 1353 -1331 966 -1331 
L 506 -1331 
L 506 -850 
L 844 -850 
Q 1081 -850 1212 -737 
Q 1344 -625 1503 -206 
L 1606 56 
L 191 3500 
L 800 3500 
L 1894 763 
L 2988 3500 
L 3597 3500 
L 2059 -325 
z
" transform="scale(0.015625)"/>
       <path id="DejaVuSans-20" transform="scale(0.015625)"/>
       <path id="DejaVuSans-66" d="M 2375 4863 
L 2375 4384 
L 1825 4384 
Q 1516 4384 1395 4259 
Q 1275 4134 1275 3809 
L 1275 3500 
L 2222 3500 
L 2222 3053 
L 1275 3053 
L 1275 0 
L 697 0 
L 697 3053 
L 147 3053 
L 147 3500 
L 697 3500 
L 697 3744 
Q 697 4328 969 4595 
Q 1241 4863 1831 4863 
L 2375 4863 
z
" transform="scale(0.015625)"/>
       <path id="DejaVuSans-43" d="M 4122 4306 
L 4122 3641 
Q 3803 3938 3442 4084 
Q 3081 4231 2675 4231 
Q 1875 4231 1450 3742 
Q 1025 3253 1025 2328 
Q 1025 1406 1450 917 
Q 1875 428 2675 428 
Q 3081 428 3442 575 
Q 3803 722 4122 1019 
L 4122 359 
Q 3791 134 3420 21 
Q 3050 -91 2638 -91 
Q 1578 -91 968 557 
Q 359 1206 359 2328 
Q 359 3453 968 4101 
Q 1578 4750 2638 4750 
Q 3056 4750 3426 4639 
Q 3797 4528 4122 4306 
z
" transform="scale(0.015625)"/>
       <path id="DejaVuSans-73" d="M 2834 3397 
L 2834 2853 
Q 2591 2978 2328 3040 
Q 2066 3103 1784 3103 
Q 1356 3103 1142 2972 
Q 928 2841 928 2578 
Q 928 2378 1081 2264 
Q 1234 2150 1697 2047 
L 1894 2003 
Q 2506 1872 2764 1633 
Q 3022 1394 3022 966 
Q 3022 478 2636 193 
Q 2250 -91 1575 -91 
Q 1294 -91 989 -36 
Q 684 19 347 128 
L 347 722 
Q 666 556 975 473 
Q 1284 391 1588 391 
Q 1994 391 2212 530 
Q 2431 669 2431 922 
Q 2431 1156 2273 1281 
Q 2116 1406 1581 1522 
L 1381 1569 
Q 847 1681 609 1914 
Q 372 2147 372 2553 
Q 372 3047 722 3315 
Q 1072 3584 1716 3584 
Q 2034 3584 2315 3537 
Q 2597 3491 2834 3397 
z
" transform="scale(0.015625)"/>
       <path id="DejaVuSans-28" d="M 1984 4856 
Q 1566 4138 1362 3434 
Q 1159 2731 1159 2009 
Q 1159 1288 1364 580 
Q 1569 -128 1984 -844 
L 1484 -844 
Q 1016 -109 783 600 
Q 550 1309 550 2009 
Q 550 2706 781 3412 
Q 1013 4119 1484 4856 
L 1984 4856 
z
" transform="scale(0.015625)"/>
       <path id="DejaVuSans-70" d="M 1159 525 
L 1159 -1331 
L 581 -1331 
L 581 3500 
L 1159 3500 
L 1159 2969 
Q 1341 3281 1617 3432 
Q 1894 3584 2278 3584 
Q 2916 3584 3314 3078 
Q 3713 2572 3713 1747 
Q 3713 922 3314 415 
Q 2916 -91 2278 -91 
Q 1894 -91 1617 61 
Q 1341 213 1159 525 
z
M 3116 1747 
Q 3116 2381 2855 2742 
Q 2594 3103 2138 3103 
Q 1681 3103 1420 2742 
Q 1159 2381 1159 1747 
Q 1159 1113 1420 752 
Q 1681 391 2138 391 
Q 2594 391 2855 752 
Q 3116 1113 3116 1747 
z
" transform="scale(0.015625)"/>
       <path id="DejaVuSans-2081" d="M 488 319 
L 1125 319 
L 1125 2229 
L 428 2101 
L 428 2463 
L 1147 2585 
L 1575 2585 
L 1575 319 
L 2216 319 
L 2216 -24 
L 488 -24 
L 488 319 
z
" transform="scale(0.015625)"/>
       <path id="DejaVuSans-29" d="M 513 4856 
L 1013 4856 
Q 1481 4119 1714 3412 
Q 1947 2706 1947 2009 
Q 1947 1309 1714 600 
Q 1481 -109 1013 -844 
L 513 -844 
Q 928 -128 1133 580 
Q 1338 1288 1338 2009 
Q 1338 2731 1133 3434 
Q 928 4138 513 4856 
z
" transform="scale(0.015625)"/>
      </defs>
      <use xlink:href="#DejaVuSans-50"/>
      <use xlink:href="#DejaVuSans-72" x="58.552734"/>
      <use xlink:href="#DejaVuSans-6f" x="97.416016"/>
      <use xlink:href="#DejaVuSans-62" x="158.597656"/>
      <use xlink:href="#DejaVuSans-61" x="222.074219"/>
      <use xlink:href="#DejaVuSans-62" x="283.353516"/>
      <use xlink:href="#DejaVuSans-69" x="346.830078"/>
      <use xlink:href="#DejaVuSans-6c" x="374.613281"/>
      <use xlink:href="#DejaVuSans-69" x="402.396484"/>
      <use xlink:href="#DejaVuSans-74" x="430.179688"/>
      <use xlink:href="#DejaVuSans-79" x="469.388672"/>
      <use xlink:href="#DejaVuSans-20" x="528.568359"/>
      <use xlink:href="#DejaVuSans-6f" x="560.355469"/>
      <use xlink:href="#DejaVuSans-66" x="621.537109"/>
      <use xlink:href="#DejaVuSans-20" x="656.742188"/>
      <use xlink:href="#DejaVuSans-43" x="688.529297"/>
      <use xlink:href="#DejaVuSans-6c" x="758.353516"/>
      <use xlink:href="#DejaVuSans-61" x="786.136719"/>
      <use xlink:href="#DejaVuSans-73" x="847.416016"/>
      <use xlink:href="#DejaVuSans-73" x="899.515625"/>
      <use xlink:href="#DejaVuSans-20" x="951.615234"/>
      <use xlink:href="#DejaVuSans-31" x="983.402344"/>
      <use xlink:href="#DejaVuSans-20" x="1047.025391"/>
      <use xlink:href="#DejaVuSans-28" x="1078.8125"/>
      <use xlink:href="#DejaVuSans-70" x="1117.826172"/>
      <use xlink:href="#DejaVuSans-2081" x="1181.302734"/>
      <use xlink:href="#DejaVuSans-29" x="1221.390625"/>
     </g>
    </g>
   </g>
   <g id="matplotlib.axis_2">
    <g id="ytick_1">
     <g id="line2d_13">
      <path d="M 72 308.304513 
L 518.4 308.304513 
" clip-path="url(#p70f575a483)" style="fill: none; stroke-dasharray: 0.8,1.32; stroke-dashoffset: 0; stroke: #b0b0b0; stroke-opacity: 0.7; stroke-width: 0.8"/>
     </g>
     <g id="line2d_14">
      <defs>
       <path id="m5a059d9252" d="M 0 0 
L -3.5 0 
" style="stroke: #000000; stroke-width: 0.8"/>
      </defs>
      <g>
       <use xlink:href="#m5a059d9252" x="72" y="308.304513" style="stroke: #000000; stroke-width: 0.8"/>
      </g>
     </g>
     <g id="text_8">
      <!-- 0.0 -->
      <g transform="translate(49.096875 312.103732) scale(0.1 -0.1)">
       <use xlink:href="#DejaVuSans-30"/>
       <use xlink:href="#DejaVuSans-2e" x="63.623047"/>
       <use xlink:href="#DejaVuSans-30" x="95.410156"/>
      </g>
     </g>
    </g>
    <g id="ytick_2">
     <g id="line2d_15">
      <path d="M 72 257.802694 
L 518.4 257.802694 
" clip-path="url(#p70f575a483)" style="fill: none; stroke-dasharray: 0.8,1.32; stroke-dashoffset: 0; stroke: #b0b0b0; stroke-opacity: 0.7; stroke-width: 0.8"/>
     </g>
     <g id="line2d_16">
      <g>
       <use xlink:href="#m5a059d9252" x="72" y="257.802694" style="stroke: #000000; stroke-width: 0.8"/>
      </g>
     </g>
     <g id="text_9">
      <!-- 0.2 -->
      <g transform="translate(49.096875 261.601913) scale(0.1 -0.1)">
       <use xlink:href="#DejaVuSans-30"/>
       <use xlink:href="#DejaVuSans-2e" x="63.623047"/>
       <use xlink:href="#DejaVuSans-32" x="95.410156"/>
      </g>
     </g>
    </g>
    <g id="ytick_3">
     <g id="line2d_17">
      <path d="M 72 207.300875 
L 518.4 207.300875 
" clip-path="url(#p70f575a483)" style="fill: none; stroke-dasharray: 0.8,1.32; stroke-dashoffset: 0; stroke: #b0b0b0; stroke-opacity: 0.7; stroke-width: 0.8"/>
     </g>
     <g id="line2d_18">
      <g>
       <use xlink:href="#m5a059d9252" x="72" y="207.300875" style="stroke: #000000; stroke-width: 0.8"/>
      </g>
     </g>
     <g id="text_10">
      <!-- 0.4 -->
      <g transform="translate(49.096875 211.100094) scale(0.1 -0.1)">
       <use xlink:href="#DejaVuSans-30"/>
       <use xlink:href="#DejaVuSans-2e" x="63.623047"/>
       <use xlink:href="#DejaVuSans-34" x="95.410156"/>
      </g>
     </g>
    </g>
    <g id="ytick_4">
     <g id="line2d_19">
      <path d="M 72 156.799057 
L 518.4 156.799057 
" clip-path="url(#p70f575a483)" style="fill: none; stroke-dasharray: 0.8,1.32; stroke-dashoffset: 0; stroke: #b0b0b0; stroke-opacity: 0.7; stroke-width: 0.8"/>
     </g>
     <g id="line2d_20">
      <g>
       <use xlink:href="#m5a059d9252" x="72" y="156.799057" style="stroke: #000000; stroke-width: 0.8"/>
      </g>
     </g>
     <g id="text_11">
      <!-- 0.6 -->
      <g transform="translate(49.096875 160.598275) scale(0.1 -0.1)">
       <use xlink:href="#DejaVuSans-30"/>
       <use xlink:href="#DejaVuSans-2e" x="63.623047"/>
       <use xlink:href="#DejaVuSans-36" x="95.410156"/>
      </g>
     </g>
    </g>
    <g id="ytick_5">
     <g id="line2d_21">
      <path d="M 72 106.297238 
L 518.4 106.297238 
" clip-path="url(#p70f575a483)" style="fill: none; stroke-dasharray: 0.8,1.32; stroke-dashoffset: 0; stroke: #b0b0b0; stroke-opacity: 0.7; stroke-width: 0.8"/>
     </g>
     <g id="line2d_22">
      <g>
       <use xlink:href="#m5a059d9252" x="72" y="106.297238" style="stroke: #000000; stroke-width: 0.8"/>
      </g>
     </g>
     <g id="text_12">
      <!-- 0.8 -->
      <g transform="translate(49.096875 110.096456) scale(0.1 -0.1)">
       <use xlink:href="#DejaVuSans-30"/>
       <use xlink:href="#DejaVuSans-2e" x="63.623047"/>
       <use xlink:href="#DejaVuSans-38" x="95.410156"/>
      </g>
     </g>
    </g>
    <g id="ytick_6">
     <g id="line2d_23">
      <path d="M 72 55.795419 
L 518.4 55.795419 
" clip-path="url(#p70f575a483)" style="fill: none; stroke-dasharray: 0.8,1.32; stroke-dashoffset: 0; stroke: #b0b0b0; stroke-opacity: 0.7; stroke-width: 0.8"/>
     </g>
     <g id="line2d_24">
      <g>
       <use xlink:href="#m5a059d9252" x="72" y="55.795419" style="stroke: #000000; stroke-width: 0.8"/>
      </g>
     </g>
     <g id="text_13">
      <!-- 1.0 -->
      <g transform="translate(49.096875 59.594638) scale(0.1 -0.1)">
       <use xlink:href="#DejaVuSans-31"/>
       <use xlink:href="#DejaVuSans-2e" x="63.623047"/>
       <use xlink:href="#DejaVuSans-30" x="95.410156"/>
      </g>
     </g>
    </g>
    <g id="text_14">
     <!-- Impurity Measure -->
     <g transform="translate(43.017187 225.689062) rotate(-90) scale(0.1 -0.1)">
      <defs>
       <path id="DejaVuSans-49" d="M 628 4666 
L 1259 4666 
L 1259 0 
L 628 0 
L 628 4666 
z
" transform="scale(0.015625)"/>
       <path id="DejaVuSans-6d" d="M 3328 2828 
Q 3544 3216 3844 3400 
Q 4144 3584 4550 3584 
Q 5097 3584 5394 3201 
Q 5691 2819 5691 2113 
L 5691 0 
L 5113 0 
L 5113 2094 
Q 5113 2597 4934 2840 
Q 4756 3084 4391 3084 
Q 3944 3084 3684 2787 
Q 3425 2491 3425 1978 
L 3425 0 
L 2847 0 
L 2847 2094 
Q 2847 2600 2669 2842 
Q 2491 3084 2119 3084 
Q 1678 3084 1418 2786 
Q 1159 2488 1159 1978 
L 1159 0 
L 581 0 
L 581 3500 
L 1159 3500 
L 1159 2956 
Q 1356 3278 1631 3431 
Q 1906 3584 2284 3584 
Q 2666 3584 2933 3390 
Q 3200 3197 3328 2828 
z
" transform="scale(0.015625)"/>
       <path id="DejaVuSans-75" d="M 544 1381 
L 544 3500 
L 1119 3500 
L 1119 1403 
Q 1119 906 1312 657 
Q 1506 409 1894 409 
Q 2359 409 2629 706 
Q 2900 1003 2900 1516 
L 2900 3500 
L 3475 3500 
L 3475 0 
L 2900 0 
L 2900 538 
Q 2691 219 2414 64 
Q 2138 -91 1772 -91 
Q 1169 -91 856 284 
Q 544 659 544 1381 
z
M 1991 3584 
L 1991 3584 
z
" transform="scale(0.015625)"/>
       <path id="DejaVuSans-4d" d="M 628 4666 
L 1569 4666 
L 2759 1491 
L 3956 4666 
L 4897 4666 
L 4897 0 
L 4281 0 
L 4281 4097 
L 3078 897 
L 2444 897 
L 1241 4097 
L 1241 0 
L 628 0 
L 628 4666 
z
" transform="scale(0.015625)"/>
       <path id="DejaVuSans-65" d="M 3597 1894 
L 3597 1613 
L 953 1613 
Q 991 1019 1311 708 
Q 1631 397 2203 397 
Q 2534 397 2845 478 
Q 3156 559 3463 722 
L 3463 178 
Q 3153 47 2828 -22 
Q 2503 -91 2169 -91 
Q 1331 -91 842 396 
Q 353 884 353 1716 
Q 353 2575 817 3079 
Q 1281 3584 2069 3584 
Q 2775 3584 3186 3129 
Q 3597 2675 3597 1894 
z
M 3022 2063 
Q 3016 2534 2758 2815 
Q 2500 3097 2075 3097 
Q 1594 3097 1305 2825 
Q 1016 2553 972 2059 
L 3022 2063 
z
" transform="scale(0.015625)"/>
      </defs>
      <use xlink:href="#DejaVuSans-49"/>
      <use xlink:href="#DejaVuSans-6d" x="29.492188"/>
      <use xlink:href="#DejaVuSans-70" x="126.904297"/>
      <use xlink:href="#DejaVuSans-75" x="190.380859"/>
      <use xlink:href="#DejaVuSans-72" x="253.759766"/>
      <use xlink:href="#DejaVuSans-69" x="294.873047"/>
      <use xlink:href="#DejaVuSans-74" x="322.65625"/>
      <use xlink:href="#DejaVuSans-79" x="361.865234"/>
      <use xlink:href="#DejaVuSans-20" x="421.044922"/>
      <use xlink:href="#DejaVuSans-4d" x="452.832031"/>
      <use xlink:href="#DejaVuSans-65" x="539.111328"/>
      <use xlink:href="#DejaVuSans-61" x="600.634766"/>
      <use xlink:href="#DejaVuSans-73" x="661.914062"/>
      <use xlink:href="#DejaVuSans-75" x="714.013672"/>
      <use xlink:href="#DejaVuSans-72" x="777.392578"/>
      <use xlink:href="#DejaVuSans-65" x="816.255859"/>
     </g>
    </g>
   </g>
   <g id="line2d_25">
    <path d="M 92.290909 305.423951 
L 94.330196 294.914918 
L 96.369484 286.197961 
L 98.408771 278.352219 
L 100.448058 271.096503 
L 104.526633 257.845296 
L 108.605208 245.832064 
L 112.683783 234.757374 
L 116.762357 224.44247 
L 120.840932 214.768351 
L 124.919507 205.650065 
L 128.998081 197.023941 
L 133.076656 188.840504 
L 137.155231 181.060226 
L 141.233805 173.650828 
L 145.31238 166.585471 
L 149.390955 159.841511 
L 153.469529 153.399605 
L 157.548104 147.243055 
L 163.665966 138.511947 
L 169.783828 130.348679 
L 175.90169 122.718304 
L 182.019552 115.591324 
L 188.137414 108.942593 
L 194.255276 102.750503 
L 200.373138 96.996368 
L 206.491 91.663947 
L 212.608862 86.739075 
L 218.726725 82.20936 
L 224.844587 78.063957 
L 230.962449 74.293366 
L 237.080311 70.889287 
L 243.198173 67.844484 
L 249.316035 65.152686 
L 255.433897 62.8085 
L 261.551759 60.807341 
L 267.669621 59.145374 
L 273.787483 57.819467 
L 279.905345 56.827157 
L 286.023207 56.16662 
L 292.141069 55.836651 
L 298.258931 55.836651 
L 304.376793 56.16662 
L 310.494655 56.827157 
L 316.612517 57.819467 
L 322.730379 59.145374 
L 328.848241 60.807341 
L 334.966103 62.8085 
L 341.083965 65.152686 
L 347.201827 67.844484 
L 353.319689 70.889287 
L 359.437551 74.293366 
L 365.555413 78.063957 
L 371.673275 82.20936 
L 377.791138 86.739075 
L 383.909 91.663947 
L 390.026862 96.996368 
L 396.144724 102.750503 
L 402.262586 108.942593 
L 408.380448 115.591324 
L 414.49831 122.718304 
L 420.616172 130.348679 
L 426.734034 138.511947 
L 430.812608 144.267169 
L 434.891183 150.286615 
L 438.969758 156.583901 
L 443.048333 163.174594 
L 447.126907 170.076646 
L 451.205482 177.310955 
L 455.284057 184.902133 
L 459.362631 192.879553 
L 463.441206 201.278848 
L 467.519781 210.144105 
L 471.598355 219.531232 
L 475.67693 229.513394 
L 479.755505 240.190422 
L 483.834079 251.706633 
L 487.912654 264.289407 
L 489.951942 271.096503 
L 491.991229 278.352219 
L 494.030516 286.197961 
L 496.069804 294.914918 
L 498.109091 305.423951 
L 498.109091 305.423951 
" clip-path="url(#p70f575a483)" style="fill: none; stroke: #0000ff; stroke-width: 1.5; stroke-linecap: square"/>
   </g>
   <g id="line2d_26">
    <path d="M 92.290909 307.8 
L 100.448058 297.892672 
L 108.605208 288.391798 
L 116.762357 279.297379 
L 124.919507 270.609414 
L 133.076656 262.327904 
L 141.233805 254.452848 
L 147.351667 248.813292 
L 153.469529 243.402366 
L 159.587392 238.220072 
L 165.705254 233.266407 
L 171.823116 228.541374 
L 177.940978 224.044971 
L 184.05884 219.777199 
L 190.176702 215.738057 
L 196.294564 211.927547 
L 202.412426 208.345666 
L 208.530288 204.992417 
L 214.64815 201.867798 
L 220.766012 198.97181 
L 226.883874 196.304452 
L 233.001736 193.865725 
L 239.119598 191.655629 
L 245.23746 189.674163 
L 251.355322 187.921328 
L 257.473184 186.397124 
L 263.591046 185.10155 
L 269.708908 184.034607 
L 275.82677 183.196295 
L 281.944632 182.586613 
L 288.062494 182.205562 
L 294.180356 182.053141 
L 300.298218 182.129352 
L 306.41608 182.434193 
L 312.533942 182.967664 
L 318.651804 183.729766 
L 324.769667 184.720499 
L 330.887529 185.939862 
L 337.005391 187.387857 
L 343.123253 189.064481 
L 349.241115 190.969737 
L 355.358977 193.103623 
L 361.476839 195.46614 
L 367.594701 198.057287 
L 373.712563 200.877065 
L 379.830425 203.925474 
L 385.948287 207.202513 
L 392.066149 210.708183 
L 398.184011 214.442484 
L 404.301873 218.405415 
L 410.419735 222.596977 
L 416.537597 227.01717 
L 422.655459 231.665993 
L 428.773321 236.543447 
L 434.891183 241.649531 
L 441.009045 246.984247 
L 447.126907 252.547592 
L 453.244769 258.339569 
L 461.401919 266.417852 
L 469.559068 274.90259 
L 477.716217 283.793782 
L 485.873367 293.091428 
L 494.030516 302.795529 
L 498.109091 307.8 
L 498.109091 307.8 
" clip-path="url(#p70f575a483)" style="fill: none; stroke-dasharray: 5.55,2.4; stroke-dashoffset: 0; stroke: #ff0000; stroke-width: 1.5"/>
   </g>
   <g id="line2d_27">
    <path d="M 72 308.304513 
L 518.4 308.304513 
" clip-path="url(#p70f575a483)" style="fill: none; stroke: #000000; stroke-width: 0.5; stroke-linecap: square"/>
   </g>
   <g id="line2d_28">
    <path d="M 295.2 320.4 
L 295.2 43.2 
" clip-path="url(#p70f575a483)" style="fill: none; stroke-dasharray: 2.96,1.28; stroke-dashoffset: 0; stroke: #808080; stroke-width: 0.8"/>
   </g>
   <g id="patch_3">
    <path d="M 72 320.4 
L 72 43.2 
" style="fill: none; stroke: #000000; stroke-width: 0.8; stroke-linejoin: miter; stroke-linecap: square"/>
   </g>
   <g id="patch_4">
    <path d="M 518.4 320.4 
L 518.4 43.2 
" style="fill: none; stroke: #000000; stroke-width: 0.8; stroke-linejoin: miter; stroke-linecap: square"/>
   </g>
   <g id="patch_5">
    <path d="M 72 320.4 
L 518.4 320.4 
" style="fill: none; stroke: #000000; stroke-width: 0.8; stroke-linejoin: miter; stroke-linecap: square"/>
   </g>
   <g id="patch_6">
    <path d="M 72 43.2 
L 518.4 43.2 
" style="fill: none; stroke: #000000; stroke-width: 0.8; stroke-linejoin: miter; stroke-linecap: square"/>
   </g>
   <g id="text_15">
    <!-- Max impurity at p=0.5 -->
    <g style="fill: #808080" transform="translate(299.266314 106.297238) scale(0.1 -0.1)">
     <defs>
      <path id="DejaVuSans-78" d="M 3513 3500 
L 2247 1797 
L 3578 0 
L 2900 0 
L 1881 1375 
L 863 0 
L 184 0 
L 1544 1831 
L 300 3500 
L 978 3500 
L 1906 2253 
L 2834 3500 
L 3513 3500 
z
" transform="scale(0.015625)"/>
      <path id="DejaVuSans-3d" d="M 678 2906 
L 4684 2906 
L 4684 2381 
L 678 2381 
L 678 2906 
z
M 678 1631 
L 4684 1631 
L 4684 1100 
L 678 1100 
L 678 1631 
z
" transform="scale(0.015625)"/>
      <path id="DejaVuSans-35" d="M 691 4666 
L 3169 4666 
L 3169 4134 
L 1269 4134 
L 1269 2991 
Q 1406 3038 1543 3061 
Q 1681 3084 1819 3084 
Q 2600 3084 3056 2656 
Q 3513 2228 3513 1497 
Q 3513 744 3044 326 
Q 2575 -91 1722 -91 
Q 1428 -91 1123 -41 
Q 819 9 494 109 
L 494 744 
Q 775 591 1075 516 
Q 1375 441 1709 441 
Q 2250 441 2565 725 
Q 2881 1009 2881 1497 
Q 2881 1984 2565 2268 
Q 2250 2553 1709 2553 
Q 1456 2553 1204 2497 
Q 953 2441 691 2322 
L 691 4666 
z
" transform="scale(0.015625)"/>
     </defs>
     <use xlink:href="#DejaVuSans-4d"/>
     <use xlink:href="#DejaVuSans-61" x="86.279297"/>
     <use xlink:href="#DejaVuSans-78" x="147.558594"/>
     <use xlink:href="#DejaVuSans-20" x="206.738281"/>
     <use xlink:href="#DejaVuSans-69" x="238.525391"/>
     <use xlink:href="#DejaVuSans-6d" x="266.308594"/>
     <use xlink:href="#DejaVuSans-70" x="363.720703"/>
     <use xlink:href="#DejaVuSans-75" x="427.197266"/>
     <use xlink:href="#DejaVuSans-72" x="490.576172"/>
     <use xlink:href="#DejaVuSans-69" x="531.689453"/>
     <use xlink:href="#DejaVuSans-74" x="559.472656"/>
     <use xlink:href="#DejaVuSans-79" x="598.681641"/>
     <use xlink:href="#DejaVuSans-20" x="657.861328"/>
     <use xlink:href="#DejaVuSans-61" x="689.648438"/>
     <use xlink:href="#DejaVuSans-74" x="750.927734"/>
     <use xlink:href="#DejaVuSans-20" x="790.136719"/>
     <use xlink:href="#DejaVuSans-70" x="821.923828"/>
     <use xlink:href="#DejaVuSans-3d" x="885.400391"/>
     <use xlink:href="#DejaVuSans-30" x="969.189453"/>
     <use xlink:href="#DejaVuSans-2e" x="1032.8125"/>
     <use xlink:href="#DejaVuSans-35" x="1064.599609"/>
    </g>
   </g>
   <g id="text_16">
    <!-- Entropy vs. Gini Impurity for Binary Classification -->
    <g transform="translate(147.587812 37.2) scale(0.12 -0.12)">
     <defs>
      <path id="DejaVuSans-45" d="M 628 4666 
L 3578 4666 
L 3578 4134 
L 1259 4134 
L 1259 2753 
L 3481 2753 
L 3481 2222 
L 1259 2222 
L 1259 531 
L 3634 531 
L 3634 0 
L 628 0 
L 628 4666 
z
" transform="scale(0.015625)"/>
      <path id="DejaVuSans-6e" d="M 3513 2113 
L 3513 0 
L 2938 0 
L 2938 2094 
Q 2938 2591 2744 2837 
Q 2550 3084 2163 3084 
Q 1697 3084 1428 2787 
Q 1159 2491 1159 1978 
L 1159 0 
L 581 0 
L 581 3500 
L 1159 3500 
L 1159 2956 
Q 1366 3272 1645 3428 
Q 1925 3584 2291 3584 
Q 2894 3584 3203 3211 
Q 3513 2838 3513 2113 
z
" transform="scale(0.015625)"/>
      <path id="DejaVuSans-76" d="M 191 3500 
L 800 3500 
L 1894 563 
L 2988 3500 
L 3597 3500 
L 2284 0 
L 1503 0 
L 191 3500 
z
" transform="scale(0.015625)"/>
      <path id="DejaVuSans-47" d="M 3809 666 
L 3809 1919 
L 2778 1919 
L 2778 2438 
L 4434 2438 
L 4434 434 
Q 4069 175 3628 42 
Q 3188 -91 2688 -91 
Q 1594 -91 976 548 
Q 359 1188 359 2328 
Q 359 3472 976 4111 
Q 1594 4750 2688 4750 
Q 3144 4750 3555 4637 
Q 3966 4525 4313 4306 
L 4313 3634 
Q 3963 3931 3569 4081 
Q 3175 4231 2741 4231 
Q 1884 4231 1454 3753 
Q 1025 3275 1025 2328 
Q 1025 1384 1454 906 
Q 1884 428 2741 428 
Q 3075 428 3337 486 
Q 3600 544 3809 666 
z
" transform="scale(0.015625)"/>
      <path id="DejaVuSans-42" d="M 1259 2228 
L 1259 519 
L 2272 519 
Q 2781 519 3026 730 
Q 3272 941 3272 1375 
Q 3272 1813 3026 2020 
Q 2781 2228 2272 2228 
L 1259 2228 
z
M 1259 4147 
L 1259 2741 
L 2194 2741 
Q 2656 2741 2882 2914 
Q 3109 3088 3109 3444 
Q 3109 3797 2882 3972 
Q 2656 4147 2194 4147 
L 1259 4147 
z
M 628 4666 
L 2241 4666 
Q 2963 4666 3353 4366 
Q 3744 4066 3744 3513 
Q 3744 3084 3544 2831 
Q 3344 2578 2956 2516 
Q 3422 2416 3680 2098 
Q 3938 1781 3938 1306 
Q 3938 681 3513 340 
Q 3088 0 2303 0 
L 628 0 
L 628 4666 
z
" transform="scale(0.015625)"/>
      <path id="DejaVuSans-63" d="M 3122 3366 
L 3122 2828 
Q 2878 2963 2633 3030 
Q 2388 3097 2138 3097 
Q 1578 3097 1268 2742 
Q 959 2388 959 1747 
Q 959 1106 1268 751 
Q 1578 397 2138 397 
Q 2388 397 2633 464 
Q 2878 531 3122 666 
L 3122 134 
Q 2881 22 2623 -34 
Q 2366 -91 2075 -91 
Q 1284 -91 818 406 
Q 353 903 353 1747 
Q 353 2603 823 3093 
Q 1294 3584 2113 3584 
Q 2378 3584 2631 3529 
Q 2884 3475 3122 3366 
z
" transform="scale(0.015625)"/>
     </defs>
     <use xlink:href="#DejaVuSans-45"/>
     <use xlink:href="#DejaVuSans-6e" x="63.183594"/>
     <use xlink:href="#DejaVuSans-74" x="126.5625"/>
     <use xlink:href="#DejaVuSans-72" x="165.771484"/>
     <use xlink:href="#DejaVuSans-6f" x="204.634766"/>
     <use xlink:href="#DejaVuSans-70" x="265.816406"/>
     <use xlink:href="#DejaVuSans-79" x="329.292969"/>
     <use xlink:href="#DejaVuSans-20" x="388.472656"/>
     <use xlink:href="#DejaVuSans-76" x="420.259766"/>
     <use xlink:href="#DejaVuSans-73" x="479.439453"/>
     <use xlink:href="#DejaVuSans-2e" x="531.539062"/>
     <use xlink:href="#DejaVuSans-20" x="563.326172"/>
     <use xlink:href="#DejaVuSans-47" x="595.113281"/>
     <use xlink:href="#DejaVuSans-69" x="672.603516"/>
     <use xlink:href="#DejaVuSans-6e" x="700.386719"/>
     <use xlink:href="#DejaVuSans-69" x="763.765625"/>
     <use xlink:href="#DejaVuSans-20" x="791.548828"/>
     <use xlink:href="#DejaVuSans-49" x="823.335938"/>
     <use xlink:href="#DejaVuSans-6d" x="852.828125"/>
     <use xlink:href="#DejaVuSans-70" x="950.240234"/>
     <use xlink:href="#DejaVuSans-75" x="1013.716797"/>
     <use xlink:href="#DejaVuSans-72" x="1077.095703"/>
     <use xlink:href="#DejaVuSans-69" x="1118.208984"/>
     <use xlink:href="#DejaVuSans-74" x="1145.992188"/>
     <use xlink:href="#DejaVuSans-79" x="1185.201172"/>
     <use xlink:href="#DejaVuSans-20" x="1244.380859"/>
     <use xlink:href="#DejaVuSans-66" x="1276.167969"/>
     <use xlink:href="#DejaVuSans-6f" x="1311.373047"/>
     <use xlink:href="#DejaVuSans-72" x="1372.554688"/>
     <use xlink:href="#DejaVuSans-20" x="1413.667969"/>
     <use xlink:href="#DejaVuSans-42" x="1445.455078"/>
     <use xlink:href="#DejaVuSans-69" x="1514.058594"/>
     <use xlink:href="#DejaVuSans-6e" x="1541.841797"/>
     <use xlink:href="#DejaVuSans-61" x="1605.220703"/>
     <use xlink:href="#DejaVuSans-72" x="1666.5"/>
     <use xlink:href="#DejaVuSans-79" x="1707.613281"/>
     <use xlink:href="#DejaVuSans-20" x="1766.792969"/>
     <use xlink:href="#DejaVuSans-43" x="1798.580078"/>
     <use xlink:href="#DejaVuSans-6c" x="1868.404297"/>
     <use xlink:href="#DejaVuSans-61" x="1896.1875"/>
     <use xlink:href="#DejaVuSans-73" x="1957.466797"/>
     <use xlink:href="#DejaVuSans-73" x="2009.566406"/>
     <use xlink:href="#DejaVuSans-69" x="2061.666016"/>
     <use xlink:href="#DejaVuSans-66" x="2089.449219"/>
     <use xlink:href="#DejaVuSans-69" x="2124.654297"/>
     <use xlink:href="#DejaVuSans-63" x="2152.4375"/>
     <use xlink:href="#DejaVuSans-61" x="2207.417969"/>
     <use xlink:href="#DejaVuSans-74" x="2268.697266"/>
     <use xlink:href="#DejaVuSans-69" x="2307.90625"/>
     <use xlink:href="#DejaVuSans-6f" x="2335.689453"/>
     <use xlink:href="#DejaVuSans-6e" x="2396.871094"/>
    </g>
   </g>
   <g id="legend_1">
    <g id="patch_7">
     <path d="M 411.314062 80.55625 
L 511.4 80.55625 
Q 513.4 80.55625 513.4 78.55625 
L 513.4 50.2 
Q 513.4 48.2 511.4 48.2 
L 411.314062 48.2 
Q 409.314062 48.2 409.314062 50.2 
L 409.314062 78.55625 
Q 409.314062 80.55625 411.314062 80.55625 
z
" style="fill: #ffffff; opacity: 0.8; stroke: #cccccc; stroke-linejoin: miter"/>
    </g>
    <g id="line2d_29">
     <path d="M 413.314062 56.298437 
L 423.314062 56.298437 
L 433.314062 56.298437 
" style="fill: none; stroke: #0000ff; stroke-width: 1.5; stroke-linecap: square"/>
    </g>
    <g id="text_17">
     <!-- Entropy (bits) -->
     <g transform="translate(441.314062 59.798437) scale(0.1 -0.1)">
      <use xlink:href="#DejaVuSans-45"/>
      <use xlink:href="#DejaVuSans-6e" x="63.183594"/>
      <use xlink:href="#DejaVuSans-74" x="126.5625"/>
      <use xlink:href="#DejaVuSans-72" x="165.771484"/>
      <use xlink:href="#DejaVuSans-6f" x="204.634766"/>
      <use xlink:href="#DejaVuSans-70" x="265.816406"/>
      <use xlink:href="#DejaVuSans-79" x="329.292969"/>
      <use xlink:href="#DejaVuSans-20" x="388.472656"/>
      <use xlink:href="#DejaVuSans-28" x="420.259766"/>
      <use xlink:href="#DejaVuSans-62" x="459.273438"/>
      <use xlink:href="#DejaVuSans-69" x="522.75"/>
      <use xlink:href="#DejaVuSans-74" x="550.533203"/>
      <use xlink:href="#DejaVuSans-73" x="589.742188"/>
      <use xlink:href="#DejaVuSans-29" x="641.841797"/>
     </g>
    </g>
    <g id="line2d_30">
     <path d="M 413.314062 70.976562 
L 423.314062 70.976562 
L 433.314062 70.976562 
" style="fill: none; stroke-dasharray: 5.55,2.4; stroke-dashoffset: 0; stroke: #ff0000; stroke-width: 1.5"/>
    </g>
    <g id="text_18">
     <!-- Gini Impurity -->
     <g transform="translate(441.314062 74.476562) scale(0.1 -0.1)">
      <use xlink:href="#DejaVuSans-47"/>
      <use xlink:href="#DejaVuSans-69" x="77.490234"/>
      <use xlink:href="#DejaVuSans-6e" x="105.273438"/>
      <use xlink:href="#DejaVuSans-69" x="168.652344"/>
      <use xlink:href="#DejaVuSans-20" x="196.435547"/>
      <use xlink:href="#DejaVuSans-49" x="228.222656"/>
      <use xlink:href="#DejaVuSans-6d" x="257.714844"/>
      <use xlink:href="#DejaVuSans-70" x="355.126953"/>
      <use xlink:href="#DejaVuSans-75" x="418.603516"/>
      <use xlink:href="#DejaVuSans-72" x="481.982422"/>
      <use xlink:href="#DejaVuSans-69" x="523.095703"/>
      <use xlink:href="#DejaVuSans-74" x="550.878906"/>
      <use xlink:href="#DejaVuSans-79" x="590.087891"/>
     </g>
    </g>
   </g>
  </g>
 </g>
 <defs>
  <clipPath id="p70f575a483">
   <rect x="72" y="43.2" width="446.4" height="277.2"/>
  </clipPath>
 </defs>
</svg>
