<?xml version="1.0" encoding="utf-8" standalone="no"?>
<!DOCTYPE svg PUBLIC "-//W3C//DTD SVG 1.1//EN"
  "http://www.w3.org/Graphics/SVG/1.1/DTD/svg11.dtd">
<svg xmlns:xlink="http://www.w3.org/1999/xlink" width="1080pt" height="720pt" viewBox="0 0 1080 720" xmlns="http://www.w3.org/2000/svg" version="1.1">
 <metadata>
  <rdf:RDF xmlns:dc="http://purl.org/dc/elements/1.1/" xmlns:cc="http://creativecommons.org/ns#" xmlns:rdf="http://www.w3.org/1999/02/22-rdf-syntax-ns#">
   <cc:Work>
    <dc:type rdf:resource="http://purl.org/dc/dcmitype/StillImage"/>
    <dc:date>2025-05-27T11:08:11.200540</dc:date>
    <dc:format>image/svg+xml</dc:format>
    <dc:creator>
     <cc:Agent>
      <dc:title>Matplotlib v3.7.2, https://matplotlib.org/</dc:title>
     </cc:Agent>
    </dc:creator>
   </cc:Work>
  </rdf:RDF>
 </metadata>
 <defs>
  <style type="text/css">*{stroke-linejoin: round; stroke-linecap: butt}</style>
 </defs>
 <g id="figure_1">
  <g id="patch_1">
   <path d="M 0 720 
L 1080 720 
L 1080 0 
L 0 0 
z
" style="fill: #ffffff"/>
  </g>
  <g id="axes_1">
   <g id="text_1">
    <!-- Decision Tree for Iris Dataset (max_depth=3) using plot_tree -->
    <g transform="translate(371.500313 80.4) scale(0.12 -0.12)">
     <defs>
      <path id="DejaVuSans-44" d="M 1259 4147 
L 1259 519 
L 2022 519 
Q 2988 519 3436 956 
Q 3884 1394 3884 2338 
Q 3884 3275 3436 3711 
Q 2988 4147 2022 4147 
L 1259 4147 
z
M 628 4666 
L 1925 4666 
Q 3281 4666 3915 4102 
Q 4550 3538 4550 2338 
Q 4550 1131 3912 565 
Q 3275 0 1925 0 
L 628 0 
L 628 4666 
z
" transform="scale(0.015625)"/>
      <path id="DejaVuSans-65" d="M 3597 1894 
L 3597 1613 
L 953 1613 
Q 991 1019 1311 708 
Q 1631 397 2203 397 
Q 2534 397 2845 478 
Q 3156 559 3463 722 
L 3463 178 
Q 3153 47 2828 -22 
Q 2503 -91 2169 -91 
Q 1331 -91 842 396 
Q 353 884 353 1716 
Q 353 2575 817 3079 
Q 1281 3584 2069 3584 
Q 2775 3584 3186 3129 
Q 3597 2675 3597 1894 
z
M 3022 2063 
Q 3016 2534 2758 2815 
Q 2500 3097 2075 3097 
Q 1594 3097 1305 2825 
Q 1016 2553 972 2059 
L 3022 2063 
z
" transform="scale(0.015625)"/>
      <path id="DejaVuSans-63" d="M 3122 3366 
L 3122 2828 
Q 2878 2963 2633 3030 
Q 2388 3097 2138 3097 
Q 1578 3097 1268 2742 
Q 959 2388 959 1747 
Q 959 1106 1268 751 
Q 1578 397 2138 397 
Q 2388 397 2633 464 
Q 2878 531 3122 666 
L 3122 134 
Q 2881 22 2623 -34 
Q 2366 -91 2075 -91 
Q 1284 -91 818 406 
Q 353 903 353 1747 
Q 353 2603 823 3093 
Q 1294 3584 2113 3584 
Q 2378 3584 2631 3529 
Q 2884 3475 3122 3366 
z
" transform="scale(0.015625)"/>
      <path id="DejaVuSans-69" d="M 603 3500 
L 1178 3500 
L 1178 0 
L 603 0 
L 603 3500 
z
M 603 4863 
L 1178 4863 
L 1178 4134 
L 603 4134 
L 603 4863 
z
" transform="scale(0.015625)"/>
      <path id="DejaVuSans-73" d="M 2834 3397 
L 2834 2853 
Q 2591 2978 2328 3040 
Q 2066 3103 1784 3103 
Q 1356 3103 1142 2972 
Q 928 2841 928 2578 
Q 928 2378 1081 2264 
Q 1234 2150 1697 2047 
L 1894 2003 
Q 2506 1872 2764 1633 
Q 3022 1394 3022 966 
Q 3022 478 2636 193 
Q 2250 -91 1575 -91 
Q 1294 -91 989 -36 
Q 684 19 347 128 
L 347 722 
Q 666 556 975 473 
Q 1284 391 1588 391 
Q 1994 391 2212 530 
Q 2431 669 2431 922 
Q 2431 1156 2273 1281 
Q 2116 1406 1581 1522 
L 1381 1569 
Q 847 1681 609 1914 
Q 372 2147 372 2553 
Q 372 3047 722 3315 
Q 1072 3584 1716 3584 
Q 2034 3584 2315 3537 
Q 2597 3491 2834 3397 
z
" transform="scale(0.015625)"/>
      <path id="DejaVuSans-6f" d="M 1959 3097 
Q 1497 3097 1228 2736 
Q 959 2375 959 1747 
Q 959 1119 1226 758 
Q 1494 397 1959 397 
Q 2419 397 2687 759 
Q 2956 1122 2956 1747 
Q 2956 2369 2687 2733 
Q 2419 3097 1959 3097 
z
M 1959 3584 
Q 2709 3584 3137 3096 
Q 3566 2609 3566 1747 
Q 3566 888 3137 398 
Q 2709 -91 1959 -91 
Q 1206 -91 779 398 
Q 353 888 353 1747 
Q 353 2609 779 3096 
Q 1206 3584 1959 3584 
z
" transform="scale(0.015625)"/>
      <path id="DejaVuSans-6e" d="M 3513 2113 
L 3513 0 
L 2938 0 
L 2938 2094 
Q 2938 2591 2744 2837 
Q 2550 3084 2163 3084 
Q 1697 3084 1428 2787 
Q 1159 2491 1159 1978 
L 1159 0 
L 581 0 
L 581 3500 
L 1159 3500 
L 1159 2956 
Q 1366 3272 1645 3428 
Q 1925 3584 2291 3584 
Q 2894 3584 3203 3211 
Q 3513 2838 3513 2113 
z
" transform="scale(0.015625)"/>
      <path id="DejaVuSans-20" transform="scale(0.015625)"/>
      <path id="DejaVuSans-54" d="M -19 4666 
L 3928 4666 
L 3928 4134 
L 2272 4134 
L 2272 0 
L 1638 0 
L 1638 4134 
L -19 4134 
L -19 4666 
z
" transform="scale(0.015625)"/>
      <path id="DejaVuSans-72" d="M 2631 2963 
Q 2534 3019 2420 3045 
Q 2306 3072 2169 3072 
Q 1681 3072 1420 2755 
Q 1159 2438 1159 1844 
L 1159 0 
L 581 0 
L 581 3500 
L 1159 3500 
L 1159 2956 
Q 1341 3275 1631 3429 
Q 1922 3584 2338 3584 
Q 2397 3584 2469 3576 
Q 2541 3569 2628 3553 
L 2631 2963 
z
" transform="scale(0.015625)"/>
      <path id="DejaVuSans-66" d="M 2375 4863 
L 2375 4384 
L 1825 4384 
Q 1516 4384 1395 4259 
Q 1275 4134 1275 3809 
L 1275 3500 
L 2222 3500 
L 2222 3053 
L 1275 3053 
L 1275 0 
L 697 0 
L 697 3053 
L 147 3053 
L 147 3500 
L 697 3500 
L 697 3744 
Q 697 4328 969 4595 
Q 1241 4863 1831 4863 
L 2375 4863 
z
" transform="scale(0.015625)"/>
      <path id="DejaVuSans-49" d="M 628 4666 
L 1259 4666 
L 1259 0 
L 628 0 
L 628 4666 
z
" transform="scale(0.015625)"/>
      <path id="DejaVuSans-61" d="M 2194 1759 
Q 1497 1759 1228 1600 
Q 959 1441 959 1056 
Q 959 750 1161 570 
Q 1363 391 1709 391 
Q 2188 391 2477 730 
Q 2766 1069 2766 1631 
L 2766 1759 
L 2194 1759 
z
M 3341 1997 
L 3341 0 
L 2766 0 
L 2766 531 
Q 2569 213 2275 61 
Q 1981 -91 1556 -91 
Q 1019 -91 701 211 
Q 384 513 384 1019 
Q 384 1609 779 1909 
Q 1175 2209 1959 2209 
L 2766 2209 
L 2766 2266 
Q 2766 2663 2505 2880 
Q 2244 3097 1772 3097 
Q 1472 3097 1187 3025 
Q 903 2953 641 2809 
L 641 3341 
Q 956 3463 1253 3523 
Q 1550 3584 1831 3584 
Q 2591 3584 2966 3190 
Q 3341 2797 3341 1997 
z
" transform="scale(0.015625)"/>
      <path id="DejaVuSans-74" d="M 1172 4494 
L 1172 3500 
L 2356 3500 
L 2356 3053 
L 1172 3053 
L 1172 1153 
Q 1172 725 1289 603 
Q 1406 481 1766 481 
L 2356 481 
L 2356 0 
L 1766 0 
Q 1100 0 847 248 
Q 594 497 594 1153 
L 594 3053 
L 172 3053 
L 172 3500 
L 594 3500 
L 594 4494 
L 1172 4494 
z
" transform="scale(0.015625)"/>
      <path id="DejaVuSans-28" d="M 1984 4856 
Q 1566 4138 1362 3434 
Q 1159 2731 1159 2009 
Q 1159 1288 1364 580 
Q 1569 -128 1984 -844 
L 1484 -844 
Q 1016 -109 783 600 
Q 550 1309 550 2009 
Q 550 2706 781 3412 
Q 1013 4119 1484 4856 
L 1984 4856 
z
" transform="scale(0.015625)"/>
      <path id="DejaVuSans-6d" d="M 3328 2828 
Q 3544 3216 3844 3400 
Q 4144 3584 4550 3584 
Q 5097 3584 5394 3201 
Q 5691 2819 5691 2113 
L 5691 0 
L 5113 0 
L 5113 2094 
Q 5113 2597 4934 2840 
Q 4756 3084 4391 3084 
Q 3944 3084 3684 2787 
Q 3425 2491 3425 1978 
L 3425 0 
L 2847 0 
L 2847 2094 
Q 2847 2600 2669 2842 
Q 2491 3084 2119 3084 
Q 1678 3084 1418 2786 
Q 1159 2488 1159 1978 
L 1159 0 
L 581 0 
L 581 3500 
L 1159 3500 
L 1159 2956 
Q 1356 3278 1631 3431 
Q 1906 3584 2284 3584 
Q 2666 3584 2933 3390 
Q 3200 3197 3328 2828 
z
" transform="scale(0.015625)"/>
      <path id="DejaVuSans-78" d="M 3513 3500 
L 2247 1797 
L 3578 0 
L 2900 0 
L 1881 1375 
L 863 0 
L 184 0 
L 1544 1831 
L 300 3500 
L 978 3500 
L 1906 2253 
L 2834 3500 
L 3513 3500 
z
" transform="scale(0.015625)"/>
      <path id="DejaVuSans-5f" d="M 3263 -1063 
L 3263 -1509 
L -63 -1509 
L -63 -1063 
L 3263 -1063 
z
" transform="scale(0.015625)"/>
      <path id="DejaVuSans-64" d="M 2906 2969 
L 2906 4863 
L 3481 4863 
L 3481 0 
L 2906 0 
L 2906 525 
Q 2725 213 2448 61 
Q 2172 -91 1784 -91 
Q 1150 -91 751 415 
Q 353 922 353 1747 
Q 353 2572 751 3078 
Q 1150 3584 1784 3584 
Q 2172 3584 2448 3432 
Q 2725 3281 2906 2969 
z
M 947 1747 
Q 947 1113 1208 752 
Q 1469 391 1925 391 
Q 2381 391 2643 752 
Q 2906 1113 2906 1747 
Q 2906 2381 2643 2742 
Q 2381 3103 1925 3103 
Q 1469 3103 1208 2742 
Q 947 2381 947 1747 
z
" transform="scale(0.015625)"/>
      <path id="DejaVuSans-70" d="M 1159 525 
L 1159 -1331 
L 581 -1331 
L 581 3500 
L 1159 3500 
L 1159 2969 
Q 1341 3281 1617 3432 
Q 1894 3584 2278 3584 
Q 2916 3584 3314 3078 
Q 3713 2572 3713 1747 
Q 3713 922 3314 415 
Q 2916 -91 2278 -91 
Q 1894 -91 1617 61 
Q 1341 213 1159 525 
z
M 3116 1747 
Q 3116 2381 2855 2742 
Q 2594 3103 2138 3103 
Q 1681 3103 1420 2742 
Q 1159 2381 1159 1747 
Q 1159 1113 1420 752 
Q 1681 391 2138 391 
Q 2594 391 2855 752 
Q 3116 1113 3116 1747 
z
" transform="scale(0.015625)"/>
      <path id="DejaVuSans-68" d="M 3513 2113 
L 3513 0 
L 2938 0 
L 2938 2094 
Q 2938 2591 2744 2837 
Q 2550 3084 2163 3084 
Q 1697 3084 1428 2787 
Q 1159 2491 1159 1978 
L 1159 0 
L 581 0 
L 581 4863 
L 1159 4863 
L 1159 2956 
Q 1366 3272 1645 3428 
Q 1925 3584 2291 3584 
Q 2894 3584 3203 3211 
Q 3513 2838 3513 2113 
z
" transform="scale(0.015625)"/>
      <path id="DejaVuSans-3d" d="M 678 2906 
L 4684 2906 
L 4684 2381 
L 678 2381 
L 678 2906 
z
M 678 1631 
L 4684 1631 
L 4684 1100 
L 678 1100 
L 678 1631 
z
" transform="scale(0.015625)"/>
      <path id="DejaVuSans-33" d="M 2597 2516 
Q 3050 2419 3304 2112 
Q 3559 1806 3559 1356 
Q 3559 666 3084 287 
Q 2609 -91 1734 -91 
Q 1441 -91 1130 -33 
Q 819 25 488 141 
L 488 750 
Q 750 597 1062 519 
Q 1375 441 1716 441 
Q 2309 441 2620 675 
Q 2931 909 2931 1356 
Q 2931 1769 2642 2001 
Q 2353 2234 1838 2234 
L 1294 2234 
L 1294 2753 
L 1863 2753 
Q 2328 2753 2575 2939 
Q 2822 3125 2822 3475 
Q 2822 3834 2567 4026 
Q 2313 4219 1838 4219 
Q 1578 4219 1281 4162 
Q 984 4106 628 3988 
L 628 4550 
Q 988 4650 1302 4700 
Q 1616 4750 1894 4750 
Q 2613 4750 3031 4423 
Q 3450 4097 3450 3541 
Q 3450 3153 3228 2886 
Q 3006 2619 2597 2516 
z
" transform="scale(0.015625)"/>
      <path id="DejaVuSans-29" d="M 513 4856 
L 1013 4856 
Q 1481 4119 1714 3412 
Q 1947 2706 1947 2009 
Q 1947 1309 1714 600 
Q 1481 -109 1013 -844 
L 513 -844 
Q 928 -128 1133 580 
Q 1338 1288 1338 2009 
Q 1338 2731 1133 3434 
Q 928 4138 513 4856 
z
" transform="scale(0.015625)"/>
      <path id="DejaVuSans-75" d="M 544 1381 
L 544 3500 
L 1119 3500 
L 1119 1403 
Q 1119 906 1312 657 
Q 1506 409 1894 409 
Q 2359 409 2629 706 
Q 2900 1003 2900 1516 
L 2900 3500 
L 3475 3500 
L 3475 0 
L 2900 0 
L 2900 538 
Q 2691 219 2414 64 
Q 2138 -91 1772 -91 
Q 1169 -91 856 284 
Q 544 659 544 1381 
z
M 1991 3584 
L 1991 3584 
z
" transform="scale(0.015625)"/>
      <path id="DejaVuSans-67" d="M 2906 1791 
Q 2906 2416 2648 2759 
Q 2391 3103 1925 3103 
Q 1463 3103 1205 2759 
Q 947 2416 947 1791 
Q 947 1169 1205 825 
Q 1463 481 1925 481 
Q 2391 481 2648 825 
Q 2906 1169 2906 1791 
z
M 3481 434 
Q 3481 -459 3084 -895 
Q 2688 -1331 1869 -1331 
Q 1566 -1331 1297 -1286 
Q 1028 -1241 775 -1147 
L 775 -588 
Q 1028 -725 1275 -790 
Q 1522 -856 1778 -856 
Q 2344 -856 2625 -561 
Q 2906 -266 2906 331 
L 2906 616 
Q 2728 306 2450 153 
Q 2172 0 1784 0 
Q 1141 0 747 490 
Q 353 981 353 1791 
Q 353 2603 747 3093 
Q 1141 3584 1784 3584 
Q 2172 3584 2450 3431 
Q 2728 3278 2906 2969 
L 2906 3500 
L 3481 3500 
L 3481 434 
z
" transform="scale(0.015625)"/>
      <path id="DejaVuSans-6c" d="M 603 4863 
L 1178 4863 
L 1178 0 
L 603 0 
L 603 4863 
z
" transform="scale(0.015625)"/>
     </defs>
     <use xlink:href="#DejaVuSans-44"/>
     <use xlink:href="#DejaVuSans-65" x="77.001953"/>
     <use xlink:href="#DejaVuSans-63" x="138.525391"/>
     <use xlink:href="#DejaVuSans-69" x="193.505859"/>
     <use xlink:href="#DejaVuSans-73" x="221.289062"/>
     <use xlink:href="#DejaVuSans-69" x="273.388672"/>
     <use xlink:href="#DejaVuSans-6f" x="301.171875"/>
     <use xlink:href="#DejaVuSans-6e" x="362.353516"/>
     <use xlink:href="#DejaVuSans-20" x="425.732422"/>
     <use xlink:href="#DejaVuSans-54" x="457.519531"/>
     <use xlink:href="#DejaVuSans-72" x="503.853516"/>
     <use xlink:href="#DejaVuSans-65" x="542.716797"/>
     <use xlink:href="#DejaVuSans-65" x="604.240234"/>
     <use xlink:href="#DejaVuSans-20" x="665.763672"/>
     <use xlink:href="#DejaVuSans-66" x="697.550781"/>
     <use xlink:href="#DejaVuSans-6f" x="732.755859"/>
     <use xlink:href="#DejaVuSans-72" x="793.9375"/>
     <use xlink:href="#DejaVuSans-20" x="835.050781"/>
     <use xlink:href="#DejaVuSans-49" x="866.837891"/>
     <use xlink:href="#DejaVuSans-72" x="896.330078"/>
     <use xlink:href="#DejaVuSans-69" x="937.443359"/>
     <use xlink:href="#DejaVuSans-73" x="965.226562"/>
     <use xlink:href="#DejaVuSans-20" x="1017.326172"/>
     <use xlink:href="#DejaVuSans-44" x="1049.113281"/>
     <use xlink:href="#DejaVuSans-61" x="1126.115234"/>
     <use xlink:href="#DejaVuSans-74" x="1187.394531"/>
     <use xlink:href="#DejaVuSans-61" x="1226.603516"/>
     <use xlink:href="#DejaVuSans-73" x="1287.882812"/>
     <use xlink:href="#DejaVuSans-65" x="1339.982422"/>
     <use xlink:href="#DejaVuSans-74" x="1401.505859"/>
     <use xlink:href="#DejaVuSans-20" x="1440.714844"/>
     <use xlink:href="#DejaVuSans-28" x="1472.501953"/>
     <use xlink:href="#DejaVuSans-6d" x="1511.515625"/>
     <use xlink:href="#DejaVuSans-61" x="1608.927734"/>
     <use xlink:href="#DejaVuSans-78" x="1670.207031"/>
     <use xlink:href="#DejaVuSans-5f" x="1729.386719"/>
     <use xlink:href="#DejaVuSans-64" x="1779.386719"/>
     <use xlink:href="#DejaVuSans-65" x="1842.863281"/>
     <use xlink:href="#DejaVuSans-70" x="1904.386719"/>
     <use xlink:href="#DejaVuSans-74" x="1967.863281"/>
     <use xlink:href="#DejaVuSans-68" x="2007.072266"/>
     <use xlink:href="#DejaVuSans-3d" x="2070.451172"/>
     <use xlink:href="#DejaVuSans-33" x="2154.240234"/>
     <use xlink:href="#DejaVuSans-29" x="2217.863281"/>
     <use xlink:href="#DejaVuSans-20" x="2256.876953"/>
     <use xlink:href="#DejaVuSans-75" x="2288.664062"/>
     <use xlink:href="#DejaVuSans-73" x="2352.042969"/>
     <use xlink:href="#DejaVuSans-69" x="2404.142578"/>
     <use xlink:href="#DejaVuSans-6e" x="2431.925781"/>
     <use xlink:href="#DejaVuSans-67" x="2495.304688"/>
     <use xlink:href="#DejaVuSans-20" x="2558.78125"/>
     <use xlink:href="#DejaVuSans-70" x="2590.568359"/>
     <use xlink:href="#DejaVuSans-6c" x="2654.044922"/>
     <use xlink:href="#DejaVuSans-6f" x="2681.828125"/>
     <use xlink:href="#DejaVuSans-74" x="2743.009766"/>
     <use xlink:href="#DejaVuSans-5f" x="2782.21875"/>
     <use xlink:href="#DejaVuSans-74" x="2832.21875"/>
     <use xlink:href="#DejaVuSans-72" x="2871.427734"/>
     <use xlink:href="#DejaVuSans-65" x="2910.291016"/>
     <use xlink:href="#DejaVuSans-65" x="2971.814453"/>
    </g>
   </g>
   <g id="patch_2">
    <path d="M 269.949165 531.328633 
Q 306.159885 483.359163 343.044204 434.497356 
" style="fill: none; stroke: #000000; stroke-linecap: round"/>
    <path d="M 275.995033 528.329163 
L 269.949165 531.328633 
L 271.17711 524.692257 
" style="fill: none; stroke: #000000; stroke-linecap: round"/>
   </g>
   <g id="text_2">
    <g id="patch_3">
     <path d="M 172.955743 608.678542 
L 306.294257 608.678542 
Q 310.82164 608.678542 310.82164 604.151159 
L 310.82164 538.848841 
Q 310.82164 534.321458 306.294257 534.321458 
L 172.955743 534.321458 
Q 168.42836 534.321458 168.42836 538.848841 
L 168.42836 604.151159 
Q 168.42836 608.678542 172.955743 608.678542 
z
" style="fill: #39e581; stroke: #000000; stroke-linejoin: miter"/>
    </g>
    <!-- gini = 0.0 -->
    <g transform="translate(202.740974 550.315854) scale(0.150913 -0.150913)">
     <defs>
      <path id="DejaVuSans-30" d="M 2034 4250 
Q 1547 4250 1301 3770 
Q 1056 3291 1056 2328 
Q 1056 1369 1301 889 
Q 1547 409 2034 409 
Q 2525 409 2770 889 
Q 3016 1369 3016 2328 
Q 3016 3291 2770 3770 
Q 2525 4250 2034 4250 
z
M 2034 4750 
Q 2819 4750 3233 4129 
Q 3647 3509 3647 2328 
Q 3647 1150 3233 529 
Q 2819 -91 2034 -91 
Q 1250 -91 836 529 
Q 422 1150 422 2328 
Q 422 3509 836 4129 
Q 1250 4750 2034 4750 
z
" transform="scale(0.015625)"/>
      <path id="DejaVuSans-2e" d="M 684 794 
L 1344 794 
L 1344 0 
L 684 0 
L 684 794 
z
" transform="scale(0.015625)"/>
     </defs>
     <use xlink:href="#DejaVuSans-67"/>
     <use xlink:href="#DejaVuSans-69" x="63.476562"/>
     <use xlink:href="#DejaVuSans-6e" x="91.259766"/>
     <use xlink:href="#DejaVuSans-69" x="154.638672"/>
     <use xlink:href="#DejaVuSans-20" x="182.421875"/>
     <use xlink:href="#DejaVuSans-3d" x="214.208984"/>
     <use xlink:href="#DejaVuSans-20" x="297.998047"/>
     <use xlink:href="#DejaVuSans-30" x="329.785156"/>
     <use xlink:href="#DejaVuSans-2e" x="393.408203"/>
     <use xlink:href="#DejaVuSans-30" x="425.195312"/>
    </g>
    <!-- samples = 33 -->
    <g transform="translate(187.538869 567.214784) scale(0.150913 -0.150913)">
     <use xlink:href="#DejaVuSans-73"/>
     <use xlink:href="#DejaVuSans-61" x="52.099609"/>
     <use xlink:href="#DejaVuSans-6d" x="113.378906"/>
     <use xlink:href="#DejaVuSans-70" x="210.791016"/>
     <use xlink:href="#DejaVuSans-6c" x="274.267578"/>
     <use xlink:href="#DejaVuSans-65" x="302.050781"/>
     <use xlink:href="#DejaVuSans-73" x="363.574219"/>
     <use xlink:href="#DejaVuSans-20" x="415.673828"/>
     <use xlink:href="#DejaVuSans-3d" x="447.460938"/>
     <use xlink:href="#DejaVuSans-20" x="531.25"/>
     <use xlink:href="#DejaVuSans-33" x="563.037109"/>
     <use xlink:href="#DejaVuSans-33" x="626.660156"/>
    </g>
    <!-- value = [0, 33, 0] -->
    <g transform="translate(173.210408 584.113715) scale(0.150913 -0.150913)">
     <defs>
      <path id="DejaVuSans-76" d="M 191 3500 
L 800 3500 
L 1894 563 
L 2988 3500 
L 3597 3500 
L 2284 0 
L 1503 0 
L 191 3500 
z
" transform="scale(0.015625)"/>
      <path id="DejaVuSans-5b" d="M 550 4863 
L 1875 4863 
L 1875 4416 
L 1125 4416 
L 1125 -397 
L 1875 -397 
L 1875 -844 
L 550 -844 
L 550 4863 
z
" transform="scale(0.015625)"/>
      <path id="DejaVuSans-2c" d="M 750 794 
L 1409 794 
L 1409 256 
L 897 -744 
L 494 -744 
L 750 256 
L 750 794 
z
" transform="scale(0.015625)"/>
      <path id="DejaVuSans-5d" d="M 1947 4863 
L 1947 -844 
L 622 -844 
L 622 -397 
L 1369 -397 
L 1369 4416 
L 622 4416 
L 622 4863 
L 1947 4863 
z
" transform="scale(0.015625)"/>
     </defs>
     <use xlink:href="#DejaVuSans-76"/>
     <use xlink:href="#DejaVuSans-61" x="59.179688"/>
     <use xlink:href="#DejaVuSans-6c" x="120.458984"/>
     <use xlink:href="#DejaVuSans-75" x="148.242188"/>
     <use xlink:href="#DejaVuSans-65" x="211.621094"/>
     <use xlink:href="#DejaVuSans-20" x="273.144531"/>
     <use xlink:href="#DejaVuSans-3d" x="304.931641"/>
     <use xlink:href="#DejaVuSans-20" x="388.720703"/>
     <use xlink:href="#DejaVuSans-5b" x="420.507812"/>
     <use xlink:href="#DejaVuSans-30" x="459.521484"/>
     <use xlink:href="#DejaVuSans-2c" x="523.144531"/>
     <use xlink:href="#DejaVuSans-20" x="554.931641"/>
     <use xlink:href="#DejaVuSans-33" x="586.71875"/>
     <use xlink:href="#DejaVuSans-33" x="650.341797"/>
     <use xlink:href="#DejaVuSans-2c" x="713.964844"/>
     <use xlink:href="#DejaVuSans-20" x="745.751953"/>
     <use xlink:href="#DejaVuSans-30" x="777.539062"/>
     <use xlink:href="#DejaVuSans-5d" x="841.162109"/>
    </g>
    <!-- class = versicolor -->
    <g transform="translate(172.955743 601.012645) scale(0.150913 -0.150913)">
     <use xlink:href="#DejaVuSans-63"/>
     <use xlink:href="#DejaVuSans-6c" x="54.980469"/>
     <use xlink:href="#DejaVuSans-61" x="82.763672"/>
     <use xlink:href="#DejaVuSans-73" x="144.042969"/>
     <use xlink:href="#DejaVuSans-73" x="196.142578"/>
     <use xlink:href="#DejaVuSans-20" x="248.242188"/>
     <use xlink:href="#DejaVuSans-3d" x="280.029297"/>
     <use xlink:href="#DejaVuSans-20" x="363.818359"/>
     <use xlink:href="#DejaVuSans-76" x="395.605469"/>
     <use xlink:href="#DejaVuSans-65" x="454.785156"/>
     <use xlink:href="#DejaVuSans-72" x="516.308594"/>
     <use xlink:href="#DejaVuSans-73" x="557.421875"/>
     <use xlink:href="#DejaVuSans-69" x="609.521484"/>
     <use xlink:href="#DejaVuSans-63" x="637.304688"/>
     <use xlink:href="#DejaVuSans-6f" x="692.285156"/>
     <use xlink:href="#DejaVuSans-6c" x="753.466797"/>
     <use xlink:href="#DejaVuSans-6f" x="781.25"/>
     <use xlink:href="#DejaVuSans-72" x="842.431641"/>
    </g>
   </g>
   <g id="patch_4">
    <path d="M 418.550835 531.328633 
Q 382.340115 483.359163 345.455796 434.497356 
" style="fill: none; stroke: #000000; stroke-linecap: round"/>
    <path d="M 417.32289 524.692257 
L 418.550835 531.328633 
L 412.504967 528.329163 
" style="fill: none; stroke: #000000; stroke-linecap: round"/>
   </g>
   <g id="text_3">
    <g id="patch_5">
     <path d="M 386.954779 608.678542 
L 510.795221 608.678542 
Q 515.322604 608.678542 515.322604 604.151159 
L 515.322604 538.848841 
Q 515.322604 534.321458 510.795221 534.321458 
L 386.954779 534.321458 
Q 382.427396 534.321458 382.427396 538.848841 
L 382.427396 604.151159 
Q 382.427396 608.678542 386.954779 608.678542 
z
" style="fill: #8139e5; stroke: #000000; stroke-linejoin: miter"/>
    </g>
    <!-- gini = 0.0 -->
    <g transform="translate(411.990974 550.315854) scale(0.150913 -0.150913)">
     <use xlink:href="#DejaVuSans-67"/>
     <use xlink:href="#DejaVuSans-69" x="63.476562"/>
     <use xlink:href="#DejaVuSans-6e" x="91.259766"/>
     <use xlink:href="#DejaVuSans-69" x="154.638672"/>
     <use xlink:href="#DejaVuSans-20" x="182.421875"/>
     <use xlink:href="#DejaVuSans-3d" x="214.208984"/>
     <use xlink:href="#DejaVuSans-20" x="297.998047"/>
     <use xlink:href="#DejaVuSans-30" x="329.785156"/>
     <use xlink:href="#DejaVuSans-2e" x="393.408203"/>
     <use xlink:href="#DejaVuSans-30" x="425.195312"/>
    </g>
    <!-- samples = 1 -->
    <g transform="translate(401.589782 567.214784) scale(0.150913 -0.150913)">
     <defs>
      <path id="DejaVuSans-31" d="M 794 531 
L 1825 531 
L 1825 4091 
L 703 3866 
L 703 4441 
L 1819 4666 
L 2450 4666 
L 2450 531 
L 3481 531 
L 3481 0 
L 794 0 
L 794 531 
z
" transform="scale(0.015625)"/>
     </defs>
     <use xlink:href="#DejaVuSans-73"/>
     <use xlink:href="#DejaVuSans-61" x="52.099609"/>
     <use xlink:href="#DejaVuSans-6d" x="113.378906"/>
     <use xlink:href="#DejaVuSans-70" x="210.791016"/>
     <use xlink:href="#DejaVuSans-6c" x="274.267578"/>
     <use xlink:href="#DejaVuSans-65" x="302.050781"/>
     <use xlink:href="#DejaVuSans-73" x="363.574219"/>
     <use xlink:href="#DejaVuSans-20" x="415.673828"/>
     <use xlink:href="#DejaVuSans-3d" x="447.460938"/>
     <use xlink:href="#DejaVuSans-20" x="531.25"/>
     <use xlink:href="#DejaVuSans-31" x="563.037109"/>
    </g>
    <!-- value = [0, 0, 1] -->
    <g transform="translate(387.261321 584.113715) scale(0.150913 -0.150913)">
     <use xlink:href="#DejaVuSans-76"/>
     <use xlink:href="#DejaVuSans-61" x="59.179688"/>
     <use xlink:href="#DejaVuSans-6c" x="120.458984"/>
     <use xlink:href="#DejaVuSans-75" x="148.242188"/>
     <use xlink:href="#DejaVuSans-65" x="211.621094"/>
     <use xlink:href="#DejaVuSans-20" x="273.144531"/>
     <use xlink:href="#DejaVuSans-3d" x="304.931641"/>
     <use xlink:href="#DejaVuSans-20" x="388.720703"/>
     <use xlink:href="#DejaVuSans-5b" x="420.507812"/>
     <use xlink:href="#DejaVuSans-30" x="459.521484"/>
     <use xlink:href="#DejaVuSans-2c" x="523.144531"/>
     <use xlink:href="#DejaVuSans-20" x="554.931641"/>
     <use xlink:href="#DejaVuSans-30" x="586.71875"/>
     <use xlink:href="#DejaVuSans-2c" x="650.341797"/>
     <use xlink:href="#DejaVuSans-20" x="682.128906"/>
     <use xlink:href="#DejaVuSans-31" x="713.916016"/>
     <use xlink:href="#DejaVuSans-5d" x="777.539062"/>
    </g>
    <!-- class = virginica -->
    <g transform="translate(386.954779 601.012645) scale(0.150913 -0.150913)">
     <use xlink:href="#DejaVuSans-63"/>
     <use xlink:href="#DejaVuSans-6c" x="54.980469"/>
     <use xlink:href="#DejaVuSans-61" x="82.763672"/>
     <use xlink:href="#DejaVuSans-73" x="144.042969"/>
     <use xlink:href="#DejaVuSans-73" x="196.142578"/>
     <use xlink:href="#DejaVuSans-20" x="248.242188"/>
     <use xlink:href="#DejaVuSans-3d" x="280.029297"/>
     <use xlink:href="#DejaVuSans-20" x="363.818359"/>
     <use xlink:href="#DejaVuSans-76" x="395.605469"/>
     <use xlink:href="#DejaVuSans-69" x="454.785156"/>
     <use xlink:href="#DejaVuSans-72" x="482.568359"/>
     <use xlink:href="#DejaVuSans-67" x="521.931641"/>
     <use xlink:href="#DejaVuSans-69" x="585.408203"/>
     <use xlink:href="#DejaVuSans-6e" x="613.191406"/>
     <use xlink:href="#DejaVuSans-69" x="676.570312"/>
     <use xlink:href="#DejaVuSans-63" x="704.353516"/>
     <use xlink:href="#DejaVuSans-61" x="759.333984"/>
    </g>
   </g>
   <g id="patch_6">
    <path d="M 688.449165 531.328633 
Q 724.659885 483.359163 761.544204 434.497356 
" style="fill: none; stroke: #000000; stroke-linecap: round"/>
    <path d="M 694.495033 528.329163 
L 688.449165 531.328633 
L 689.67711 524.692257 
" style="fill: none; stroke: #000000; stroke-linecap: round"/>
   </g>
   <g id="text_4">
    <g id="patch_7">
     <path d="M 591.455743 608.678542 
L 724.794257 608.678542 
Q 729.32164 608.678542 729.32164 604.151159 
L 729.32164 538.848841 
Q 729.32164 534.321458 724.794257 534.321458 
L 591.455743 534.321458 
Q 586.92836 534.321458 586.92836 538.848841 
L 586.92836 604.151159 
Q 586.92836 608.678542 591.455743 608.678542 
z
" style="fill: #ffffff; stroke: #000000; stroke-linejoin: miter"/>
    </g>
    <!-- gini = 0.5 -->
    <g transform="translate(621.240974 550.315854) scale(0.150913 -0.150913)">
     <defs>
      <path id="DejaVuSans-35" d="M 691 4666 
L 3169 4666 
L 3169 4134 
L 1269 4134 
L 1269 2991 
Q 1406 3038 1543 3061 
Q 1681 3084 1819 3084 
Q 2600 3084 3056 2656 
Q 3513 2228 3513 1497 
Q 3513 744 3044 326 
Q 2575 -91 1722 -91 
Q 1428 -91 1123 -41 
Q 819 9 494 109 
L 494 744 
Q 775 591 1075 516 
Q 1375 441 1709 441 
Q 2250 441 2565 725 
Q 2881 1009 2881 1497 
Q 2881 1984 2565 2268 
Q 2250 2553 1709 2553 
Q 1456 2553 1204 2497 
Q 953 2441 691 2322 
L 691 4666 
z
" transform="scale(0.015625)"/>
     </defs>
     <use xlink:href="#DejaVuSans-67"/>
     <use xlink:href="#DejaVuSans-69" x="63.476562"/>
     <use xlink:href="#DejaVuSans-6e" x="91.259766"/>
     <use xlink:href="#DejaVuSans-69" x="154.638672"/>
     <use xlink:href="#DejaVuSans-20" x="182.421875"/>
     <use xlink:href="#DejaVuSans-3d" x="214.208984"/>
     <use xlink:href="#DejaVuSans-20" x="297.998047"/>
     <use xlink:href="#DejaVuSans-30" x="329.785156"/>
     <use xlink:href="#DejaVuSans-2e" x="393.408203"/>
     <use xlink:href="#DejaVuSans-35" x="425.195312"/>
    </g>
    <!-- samples = 2 -->
    <g transform="translate(610.839782 567.214784) scale(0.150913 -0.150913)">
     <defs>
      <path id="DejaVuSans-32" d="M 1228 531 
L 3431 531 
L 3431 0 
L 469 0 
L 469 531 
Q 828 903 1448 1529 
Q 2069 2156 2228 2338 
Q 2531 2678 2651 2914 
Q 2772 3150 2772 3378 
Q 2772 3750 2511 3984 
Q 2250 4219 1831 4219 
Q 1534 4219 1204 4116 
Q 875 4013 500 3803 
L 500 4441 
Q 881 4594 1212 4672 
Q 1544 4750 1819 4750 
Q 2544 4750 2975 4387 
Q 3406 4025 3406 3419 
Q 3406 3131 3298 2873 
Q 3191 2616 2906 2266 
Q 2828 2175 2409 1742 
Q 1991 1309 1228 531 
z
" transform="scale(0.015625)"/>
     </defs>
     <use xlink:href="#DejaVuSans-73"/>
     <use xlink:href="#DejaVuSans-61" x="52.099609"/>
     <use xlink:href="#DejaVuSans-6d" x="113.378906"/>
     <use xlink:href="#DejaVuSans-70" x="210.791016"/>
     <use xlink:href="#DejaVuSans-6c" x="274.267578"/>
     <use xlink:href="#DejaVuSans-65" x="302.050781"/>
     <use xlink:href="#DejaVuSans-73" x="363.574219"/>
     <use xlink:href="#DejaVuSans-20" x="415.673828"/>
     <use xlink:href="#DejaVuSans-3d" x="447.460938"/>
     <use xlink:href="#DejaVuSans-20" x="531.25"/>
     <use xlink:href="#DejaVuSans-32" x="563.037109"/>
    </g>
    <!-- value = [0, 1, 1] -->
    <g transform="translate(596.511321 584.113715) scale(0.150913 -0.150913)">
     <use xlink:href="#DejaVuSans-76"/>
     <use xlink:href="#DejaVuSans-61" x="59.179688"/>
     <use xlink:href="#DejaVuSans-6c" x="120.458984"/>
     <use xlink:href="#DejaVuSans-75" x="148.242188"/>
     <use xlink:href="#DejaVuSans-65" x="211.621094"/>
     <use xlink:href="#DejaVuSans-20" x="273.144531"/>
     <use xlink:href="#DejaVuSans-3d" x="304.931641"/>
     <use xlink:href="#DejaVuSans-20" x="388.720703"/>
     <use xlink:href="#DejaVuSans-5b" x="420.507812"/>
     <use xlink:href="#DejaVuSans-30" x="459.521484"/>
     <use xlink:href="#DejaVuSans-2c" x="523.144531"/>
     <use xlink:href="#DejaVuSans-20" x="554.931641"/>
     <use xlink:href="#DejaVuSans-31" x="586.71875"/>
     <use xlink:href="#DejaVuSans-2c" x="650.341797"/>
     <use xlink:href="#DejaVuSans-20" x="682.128906"/>
     <use xlink:href="#DejaVuSans-31" x="713.916016"/>
     <use xlink:href="#DejaVuSans-5d" x="777.539062"/>
    </g>
    <!-- class = versicolor -->
    <g transform="translate(591.455743 601.012645) scale(0.150913 -0.150913)">
     <use xlink:href="#DejaVuSans-63"/>
     <use xlink:href="#DejaVuSans-6c" x="54.980469"/>
     <use xlink:href="#DejaVuSans-61" x="82.763672"/>
     <use xlink:href="#DejaVuSans-73" x="144.042969"/>
     <use xlink:href="#DejaVuSans-73" x="196.142578"/>
     <use xlink:href="#DejaVuSans-20" x="248.242188"/>
     <use xlink:href="#DejaVuSans-3d" x="280.029297"/>
     <use xlink:href="#DejaVuSans-20" x="363.818359"/>
     <use xlink:href="#DejaVuSans-76" x="395.605469"/>
     <use xlink:href="#DejaVuSans-65" x="454.785156"/>
     <use xlink:href="#DejaVuSans-72" x="516.308594"/>
     <use xlink:href="#DejaVuSans-73" x="557.421875"/>
     <use xlink:href="#DejaVuSans-69" x="609.521484"/>
     <use xlink:href="#DejaVuSans-63" x="637.304688"/>
     <use xlink:href="#DejaVuSans-6f" x="692.285156"/>
     <use xlink:href="#DejaVuSans-6c" x="753.466797"/>
     <use xlink:href="#DejaVuSans-6f" x="781.25"/>
     <use xlink:href="#DejaVuSans-72" x="842.431641"/>
    </g>
   </g>
   <g id="patch_8">
    <path d="M 837.050835 531.328633 
Q 800.840115 483.359163 763.955796 434.497356 
" style="fill: none; stroke: #000000; stroke-linecap: round"/>
    <path d="M 835.82289 524.692257 
L 837.050835 531.328633 
L 831.004967 528.329163 
" style="fill: none; stroke: #000000; stroke-linecap: round"/>
   </g>
   <g id="text_5">
    <g id="patch_9">
     <path d="M 800.960408 608.678542 
L 933.789592 608.678542 
Q 938.316975 608.678542 938.316975 604.151159 
L 938.316975 538.848841 
Q 938.316975 534.321458 933.789592 534.321458 
L 800.960408 534.321458 
Q 796.433025 534.321458 796.433025 538.848841 
L 796.433025 604.151159 
Q 796.433025 608.678542 800.960408 608.678542 
z
" style="fill: #853fe6; stroke: #000000; stroke-linejoin: miter"/>
    </g>
    <!-- gini = 0.057 -->
    <g transform="translate(820.889148 550.315854) scale(0.150913 -0.150913)">
     <defs>
      <path id="DejaVuSans-37" d="M 525 4666 
L 3525 4666 
L 3525 4397 
L 1831 0 
L 1172 0 
L 2766 4134 
L 525 4134 
L 525 4666 
z
" transform="scale(0.015625)"/>
     </defs>
     <use xlink:href="#DejaVuSans-67"/>
     <use xlink:href="#DejaVuSans-69" x="63.476562"/>
     <use xlink:href="#DejaVuSans-6e" x="91.259766"/>
     <use xlink:href="#DejaVuSans-69" x="154.638672"/>
     <use xlink:href="#DejaVuSans-20" x="182.421875"/>
     <use xlink:href="#DejaVuSans-3d" x="214.208984"/>
     <use xlink:href="#DejaVuSans-20" x="297.998047"/>
     <use xlink:href="#DejaVuSans-30" x="329.785156"/>
     <use xlink:href="#DejaVuSans-2e" x="393.408203"/>
     <use xlink:href="#DejaVuSans-30" x="425.195312"/>
     <use xlink:href="#DejaVuSans-35" x="488.818359"/>
     <use xlink:href="#DejaVuSans-37" x="552.441406"/>
    </g>
    <!-- samples = 34 -->
    <g transform="translate(815.288869 567.214784) scale(0.150913 -0.150913)">
     <defs>
      <path id="DejaVuSans-34" d="M 2419 4116 
L 825 1625 
L 2419 1625 
L 2419 4116 
z
M 2253 4666 
L 3047 4666 
L 3047 1625 
L 3713 1625 
L 3713 1100 
L 3047 1100 
L 3047 0 
L 2419 0 
L 2419 1100 
L 313 1100 
L 313 1709 
L 2253 4666 
z
" transform="scale(0.015625)"/>
     </defs>
     <use xlink:href="#DejaVuSans-73"/>
     <use xlink:href="#DejaVuSans-61" x="52.099609"/>
     <use xlink:href="#DejaVuSans-6d" x="113.378906"/>
     <use xlink:href="#DejaVuSans-70" x="210.791016"/>
     <use xlink:href="#DejaVuSans-6c" x="274.267578"/>
     <use xlink:href="#DejaVuSans-65" x="302.050781"/>
     <use xlink:href="#DejaVuSans-73" x="363.574219"/>
     <use xlink:href="#DejaVuSans-20" x="415.673828"/>
     <use xlink:href="#DejaVuSans-3d" x="447.460938"/>
     <use xlink:href="#DejaVuSans-20" x="531.25"/>
     <use xlink:href="#DejaVuSans-33" x="563.037109"/>
     <use xlink:href="#DejaVuSans-34" x="626.660156"/>
    </g>
    <!-- value = [0, 1, 33] -->
    <g transform="translate(800.960408 584.113715) scale(0.150913 -0.150913)">
     <use xlink:href="#DejaVuSans-76"/>
     <use xlink:href="#DejaVuSans-61" x="59.179688"/>
     <use xlink:href="#DejaVuSans-6c" x="120.458984"/>
     <use xlink:href="#DejaVuSans-75" x="148.242188"/>
     <use xlink:href="#DejaVuSans-65" x="211.621094"/>
     <use xlink:href="#DejaVuSans-20" x="273.144531"/>
     <use xlink:href="#DejaVuSans-3d" x="304.931641"/>
     <use xlink:href="#DejaVuSans-20" x="388.720703"/>
     <use xlink:href="#DejaVuSans-5b" x="420.507812"/>
     <use xlink:href="#DejaVuSans-30" x="459.521484"/>
     <use xlink:href="#DejaVuSans-2c" x="523.144531"/>
     <use xlink:href="#DejaVuSans-20" x="554.931641"/>
     <use xlink:href="#DejaVuSans-31" x="586.71875"/>
     <use xlink:href="#DejaVuSans-2c" x="650.341797"/>
     <use xlink:href="#DejaVuSans-20" x="682.128906"/>
     <use xlink:href="#DejaVuSans-33" x="713.916016"/>
     <use xlink:href="#DejaVuSans-33" x="777.539062"/>
     <use xlink:href="#DejaVuSans-5d" x="841.162109"/>
    </g>
    <!-- class = virginica -->
    <g transform="translate(805.454779 601.012645) scale(0.150913 -0.150913)">
     <use xlink:href="#DejaVuSans-63"/>
     <use xlink:href="#DejaVuSans-6c" x="54.980469"/>
     <use xlink:href="#DejaVuSans-61" x="82.763672"/>
     <use xlink:href="#DejaVuSans-73" x="144.042969"/>
     <use xlink:href="#DejaVuSans-73" x="196.142578"/>
     <use xlink:href="#DejaVuSans-20" x="248.242188"/>
     <use xlink:href="#DejaVuSans-3d" x="280.029297"/>
     <use xlink:href="#DejaVuSans-20" x="363.818359"/>
     <use xlink:href="#DejaVuSans-76" x="395.605469"/>
     <use xlink:href="#DejaVuSans-69" x="454.785156"/>
     <use xlink:href="#DejaVuSans-72" x="482.568359"/>
     <use xlink:href="#DejaVuSans-67" x="521.931641"/>
     <use xlink:href="#DejaVuSans-69" x="585.408203"/>
     <use xlink:href="#DejaVuSans-6e" x="613.191406"/>
     <use xlink:href="#DejaVuSans-69" x="676.570312"/>
     <use xlink:href="#DejaVuSans-63" x="704.353516"/>
     <use xlink:href="#DejaVuSans-61" x="759.333984"/>
    </g>
   </g>
   <g id="patch_10">
    <path d="M 416.490488 385.050386 
Q 483.694629 340.536676 551.830876 295.40557 
" style="fill: none; stroke: #000000; stroke-linecap: round"/>
    <path d="M 423.189864 384.233257 
L 416.490488 385.050386 
L 419.85641 379.200608 
" style="fill: none; stroke: #000000; stroke-linecap: round"/>
   </g>
   <g id="text_6">
    <g id="patch_11">
     <path d="M 244.660535 478.528007 
L 443.839465 478.528007 
Q 448.366848 478.528007 448.366848 474.000624 
L 448.366848 391.799376 
Q 448.366848 387.271993 443.839465 387.271993 
L 244.660535 387.271993 
Q 240.133152 387.271993 240.133152 391.799376 
L 240.133152 474.000624 
Q 240.133152 478.528007 244.660535 478.528007 
z
" style="fill: #3fe685; stroke: #000000; stroke-linejoin: miter"/>
    </g>
    <!-- petal length (cm) &lt;= 4.95 -->
    <g transform="translate(244.660535 403.266389) scale(0.150913 -0.150913)">
     <defs>
      <path id="DejaVuSans-3c" d="M 4684 3150 
L 1459 2003 
L 4684 863 
L 4684 294 
L 678 1747 
L 678 2266 
L 4684 3719 
L 4684 3150 
z
" transform="scale(0.015625)"/>
      <path id="DejaVuSans-39" d="M 703 97 
L 703 672 
Q 941 559 1184 500 
Q 1428 441 1663 441 
Q 2288 441 2617 861 
Q 2947 1281 2994 2138 
Q 2813 1869 2534 1725 
Q 2256 1581 1919 1581 
Q 1219 1581 811 2004 
Q 403 2428 403 3163 
Q 403 3881 828 4315 
Q 1253 4750 1959 4750 
Q 2769 4750 3195 4129 
Q 3622 3509 3622 2328 
Q 3622 1225 3098 567 
Q 2575 -91 1691 -91 
Q 1453 -91 1209 -44 
Q 966 3 703 97 
z
M 1959 2075 
Q 2384 2075 2632 2365 
Q 2881 2656 2881 3163 
Q 2881 3666 2632 3958 
Q 2384 4250 1959 4250 
Q 1534 4250 1286 3958 
Q 1038 3666 1038 3163 
Q 1038 2656 1286 2365 
Q 1534 2075 1959 2075 
z
" transform="scale(0.015625)"/>
     </defs>
     <use xlink:href="#DejaVuSans-70"/>
     <use xlink:href="#DejaVuSans-65" x="63.476562"/>
     <use xlink:href="#DejaVuSans-74" x="125"/>
     <use xlink:href="#DejaVuSans-61" x="164.208984"/>
     <use xlink:href="#DejaVuSans-6c" x="225.488281"/>
     <use xlink:href="#DejaVuSans-20" x="253.271484"/>
     <use xlink:href="#DejaVuSans-6c" x="285.058594"/>
     <use xlink:href="#DejaVuSans-65" x="312.841797"/>
     <use xlink:href="#DejaVuSans-6e" x="374.365234"/>
     <use xlink:href="#DejaVuSans-67" x="437.744141"/>
     <use xlink:href="#DejaVuSans-74" x="501.220703"/>
     <use xlink:href="#DejaVuSans-68" x="540.429688"/>
     <use xlink:href="#DejaVuSans-20" x="603.808594"/>
     <use xlink:href="#DejaVuSans-28" x="635.595703"/>
     <use xlink:href="#DejaVuSans-63" x="674.609375"/>
     <use xlink:href="#DejaVuSans-6d" x="729.589844"/>
     <use xlink:href="#DejaVuSans-29" x="827.001953"/>
     <use xlink:href="#DejaVuSans-20" x="866.015625"/>
     <use xlink:href="#DejaVuSans-3c" x="897.802734"/>
     <use xlink:href="#DejaVuSans-3d" x="981.591797"/>
     <use xlink:href="#DejaVuSans-20" x="1065.380859"/>
     <use xlink:href="#DejaVuSans-34" x="1097.167969"/>
     <use xlink:href="#DejaVuSans-2e" x="1160.791016"/>
     <use xlink:href="#DejaVuSans-39" x="1192.578125"/>
     <use xlink:href="#DejaVuSans-35" x="1256.201172"/>
    </g>
    <!-- gini = 0.057 -->
    <g transform="translate(297.764148 420.165319) scale(0.150913 -0.150913)">
     <use xlink:href="#DejaVuSans-67"/>
     <use xlink:href="#DejaVuSans-69" x="63.476562"/>
     <use xlink:href="#DejaVuSans-6e" x="91.259766"/>
     <use xlink:href="#DejaVuSans-69" x="154.638672"/>
     <use xlink:href="#DejaVuSans-20" x="182.421875"/>
     <use xlink:href="#DejaVuSans-3d" x="214.208984"/>
     <use xlink:href="#DejaVuSans-20" x="297.998047"/>
     <use xlink:href="#DejaVuSans-30" x="329.785156"/>
     <use xlink:href="#DejaVuSans-2e" x="393.408203"/>
     <use xlink:href="#DejaVuSans-30" x="425.195312"/>
     <use xlink:href="#DejaVuSans-35" x="488.818359"/>
     <use xlink:href="#DejaVuSans-37" x="552.441406"/>
    </g>
    <!-- samples = 34 -->
    <g transform="translate(292.163869 437.064249) scale(0.150913 -0.150913)">
     <use xlink:href="#DejaVuSans-73"/>
     <use xlink:href="#DejaVuSans-61" x="52.099609"/>
     <use xlink:href="#DejaVuSans-6d" x="113.378906"/>
     <use xlink:href="#DejaVuSans-70" x="210.791016"/>
     <use xlink:href="#DejaVuSans-6c" x="274.267578"/>
     <use xlink:href="#DejaVuSans-65" x="302.050781"/>
     <use xlink:href="#DejaVuSans-73" x="363.574219"/>
     <use xlink:href="#DejaVuSans-20" x="415.673828"/>
     <use xlink:href="#DejaVuSans-3d" x="447.460938"/>
     <use xlink:href="#DejaVuSans-20" x="531.25"/>
     <use xlink:href="#DejaVuSans-33" x="563.037109"/>
     <use xlink:href="#DejaVuSans-34" x="626.660156"/>
    </g>
    <!-- value = [0, 33, 1] -->
    <g transform="translate(277.835408 453.96318) scale(0.150913 -0.150913)">
     <use xlink:href="#DejaVuSans-76"/>
     <use xlink:href="#DejaVuSans-61" x="59.179688"/>
     <use xlink:href="#DejaVuSans-6c" x="120.458984"/>
     <use xlink:href="#DejaVuSans-75" x="148.242188"/>
     <use xlink:href="#DejaVuSans-65" x="211.621094"/>
     <use xlink:href="#DejaVuSans-20" x="273.144531"/>
     <use xlink:href="#DejaVuSans-3d" x="304.931641"/>
     <use xlink:href="#DejaVuSans-20" x="388.720703"/>
     <use xlink:href="#DejaVuSans-5b" x="420.507812"/>
     <use xlink:href="#DejaVuSans-30" x="459.521484"/>
     <use xlink:href="#DejaVuSans-2c" x="523.144531"/>
     <use xlink:href="#DejaVuSans-20" x="554.931641"/>
     <use xlink:href="#DejaVuSans-33" x="586.71875"/>
     <use xlink:href="#DejaVuSans-33" x="650.341797"/>
     <use xlink:href="#DejaVuSans-2c" x="713.964844"/>
     <use xlink:href="#DejaVuSans-20" x="745.751953"/>
     <use xlink:href="#DejaVuSans-31" x="777.539062"/>
     <use xlink:href="#DejaVuSans-5d" x="841.162109"/>
    </g>
    <!-- class = versicolor -->
    <g transform="translate(277.580743 470.86211) scale(0.150913 -0.150913)">
     <use xlink:href="#DejaVuSans-63"/>
     <use xlink:href="#DejaVuSans-6c" x="54.980469"/>
     <use xlink:href="#DejaVuSans-61" x="82.763672"/>
     <use xlink:href="#DejaVuSans-73" x="144.042969"/>
     <use xlink:href="#DejaVuSans-73" x="196.142578"/>
     <use xlink:href="#DejaVuSans-20" x="248.242188"/>
     <use xlink:href="#DejaVuSans-3d" x="280.029297"/>
     <use xlink:href="#DejaVuSans-20" x="363.818359"/>
     <use xlink:href="#DejaVuSans-76" x="395.605469"/>
     <use xlink:href="#DejaVuSans-65" x="454.785156"/>
     <use xlink:href="#DejaVuSans-72" x="516.308594"/>
     <use xlink:href="#DejaVuSans-73" x="557.421875"/>
     <use xlink:href="#DejaVuSans-69" x="609.521484"/>
     <use xlink:href="#DejaVuSans-63" x="637.304688"/>
     <use xlink:href="#DejaVuSans-6f" x="692.285156"/>
     <use xlink:href="#DejaVuSans-6c" x="753.466797"/>
     <use xlink:href="#DejaVuSans-6f" x="781.25"/>
     <use xlink:href="#DejaVuSans-72" x="842.431641"/>
    </g>
   </g>
   <g id="patch_12">
    <path d="M 690.509512 385.050386 
Q 623.305371 340.536676 555.169124 295.40557 
" style="fill: none; stroke: #000000; stroke-linecap: round"/>
    <path d="M 687.14359 379.200608 
L 690.509512 385.050386 
L 683.810136 384.233257 
" style="fill: none; stroke: #000000; stroke-linecap: round"/>
   </g>
   <g id="text_7">
    <g id="patch_13">
     <path d="M 671.215505 478.528007 
L 854.284495 478.528007 
Q 858.811879 478.528007 858.811879 474.000624 
L 858.811879 391.799376 
Q 858.811879 387.271993 854.284495 387.271993 
L 671.215505 387.271993 
Q 666.688121 387.271993 666.688121 391.799376 
L 666.688121 474.000624 
Q 666.688121 478.528007 671.215505 478.528007 
z
" style="fill: #8845e7; stroke: #000000; stroke-linejoin: miter"/>
    </g>
    <!-- petal width (cm) &lt;= 1.7 -->
    <g transform="translate(671.215505 403.266389) scale(0.150913 -0.150913)">
     <defs>
      <path id="DejaVuSans-77" d="M 269 3500 
L 844 3500 
L 1563 769 
L 2278 3500 
L 2956 3500 
L 3675 769 
L 4391 3500 
L 4966 3500 
L 4050 0 
L 3372 0 
L 2619 2869 
L 1863 0 
L 1184 0 
L 269 3500 
z
" transform="scale(0.015625)"/>
     </defs>
     <use xlink:href="#DejaVuSans-70"/>
     <use xlink:href="#DejaVuSans-65" x="63.476562"/>
     <use xlink:href="#DejaVuSans-74" x="125"/>
     <use xlink:href="#DejaVuSans-61" x="164.208984"/>
     <use xlink:href="#DejaVuSans-6c" x="225.488281"/>
     <use xlink:href="#DejaVuSans-20" x="253.271484"/>
     <use xlink:href="#DejaVuSans-77" x="285.058594"/>
     <use xlink:href="#DejaVuSans-69" x="366.845703"/>
     <use xlink:href="#DejaVuSans-64" x="394.628906"/>
     <use xlink:href="#DejaVuSans-74" x="458.105469"/>
     <use xlink:href="#DejaVuSans-68" x="497.314453"/>
     <use xlink:href="#DejaVuSans-20" x="560.693359"/>
     <use xlink:href="#DejaVuSans-28" x="592.480469"/>
     <use xlink:href="#DejaVuSans-63" x="631.494141"/>
     <use xlink:href="#DejaVuSans-6d" x="686.474609"/>
     <use xlink:href="#DejaVuSans-29" x="783.886719"/>
     <use xlink:href="#DejaVuSans-20" x="822.900391"/>
     <use xlink:href="#DejaVuSans-3c" x="854.6875"/>
     <use xlink:href="#DejaVuSans-3d" x="938.476562"/>
     <use xlink:href="#DejaVuSans-20" x="1022.265625"/>
     <use xlink:href="#DejaVuSans-31" x="1054.052734"/>
     <use xlink:href="#DejaVuSans-2e" x="1117.675781"/>
     <use xlink:href="#DejaVuSans-37" x="1149.462891"/>
    </g>
    <!-- gini = 0.105 -->
    <g transform="translate(716.264148 420.165319) scale(0.150913 -0.150913)">
     <use xlink:href="#DejaVuSans-67"/>
     <use xlink:href="#DejaVuSans-69" x="63.476562"/>
     <use xlink:href="#DejaVuSans-6e" x="91.259766"/>
     <use xlink:href="#DejaVuSans-69" x="154.638672"/>
     <use xlink:href="#DejaVuSans-20" x="182.421875"/>
     <use xlink:href="#DejaVuSans-3d" x="214.208984"/>
     <use xlink:href="#DejaVuSans-20" x="297.998047"/>
     <use xlink:href="#DejaVuSans-30" x="329.785156"/>
     <use xlink:href="#DejaVuSans-2e" x="393.408203"/>
     <use xlink:href="#DejaVuSans-31" x="425.195312"/>
     <use xlink:href="#DejaVuSans-30" x="488.818359"/>
     <use xlink:href="#DejaVuSans-35" x="552.441406"/>
    </g>
    <!-- samples = 36 -->
    <g transform="translate(710.663869 437.064249) scale(0.150913 -0.150913)">
     <defs>
      <path id="DejaVuSans-36" d="M 2113 2584 
Q 1688 2584 1439 2293 
Q 1191 2003 1191 1497 
Q 1191 994 1439 701 
Q 1688 409 2113 409 
Q 2538 409 2786 701 
Q 3034 994 3034 1497 
Q 3034 2003 2786 2293 
Q 2538 2584 2113 2584 
z
M 3366 4563 
L 3366 3988 
Q 3128 4100 2886 4159 
Q 2644 4219 2406 4219 
Q 1781 4219 1451 3797 
Q 1122 3375 1075 2522 
Q 1259 2794 1537 2939 
Q 1816 3084 2150 3084 
Q 2853 3084 3261 2657 
Q 3669 2231 3669 1497 
Q 3669 778 3244 343 
Q 2819 -91 2113 -91 
Q 1303 -91 875 529 
Q 447 1150 447 2328 
Q 447 3434 972 4092 
Q 1497 4750 2381 4750 
Q 2619 4750 2861 4703 
Q 3103 4656 3366 4563 
z
" transform="scale(0.015625)"/>
     </defs>
     <use xlink:href="#DejaVuSans-73"/>
     <use xlink:href="#DejaVuSans-61" x="52.099609"/>
     <use xlink:href="#DejaVuSans-6d" x="113.378906"/>
     <use xlink:href="#DejaVuSans-70" x="210.791016"/>
     <use xlink:href="#DejaVuSans-6c" x="274.267578"/>
     <use xlink:href="#DejaVuSans-65" x="302.050781"/>
     <use xlink:href="#DejaVuSans-73" x="363.574219"/>
     <use xlink:href="#DejaVuSans-20" x="415.673828"/>
     <use xlink:href="#DejaVuSans-3d" x="447.460938"/>
     <use xlink:href="#DejaVuSans-20" x="531.25"/>
     <use xlink:href="#DejaVuSans-33" x="563.037109"/>
     <use xlink:href="#DejaVuSans-36" x="626.660156"/>
    </g>
    <!-- value = [0, 2, 34] -->
    <g transform="translate(696.335408 453.96318) scale(0.150913 -0.150913)">
     <use xlink:href="#DejaVuSans-76"/>
     <use xlink:href="#DejaVuSans-61" x="59.179688"/>
     <use xlink:href="#DejaVuSans-6c" x="120.458984"/>
     <use xlink:href="#DejaVuSans-75" x="148.242188"/>
     <use xlink:href="#DejaVuSans-65" x="211.621094"/>
     <use xlink:href="#DejaVuSans-20" x="273.144531"/>
     <use xlink:href="#DejaVuSans-3d" x="304.931641"/>
     <use xlink:href="#DejaVuSans-20" x="388.720703"/>
     <use xlink:href="#DejaVuSans-5b" x="420.507812"/>
     <use xlink:href="#DejaVuSans-30" x="459.521484"/>
     <use xlink:href="#DejaVuSans-2c" x="523.144531"/>
     <use xlink:href="#DejaVuSans-20" x="554.931641"/>
     <use xlink:href="#DejaVuSans-32" x="586.71875"/>
     <use xlink:href="#DejaVuSans-2c" x="650.341797"/>
     <use xlink:href="#DejaVuSans-20" x="682.128906"/>
     <use xlink:href="#DejaVuSans-33" x="713.916016"/>
     <use xlink:href="#DejaVuSans-34" x="777.539062"/>
     <use xlink:href="#DejaVuSans-5d" x="841.162109"/>
    </g>
    <!-- class = virginica -->
    <g transform="translate(700.829779 470.86211) scale(0.150913 -0.150913)">
     <use xlink:href="#DejaVuSans-63"/>
     <use xlink:href="#DejaVuSans-6c" x="54.980469"/>
     <use xlink:href="#DejaVuSans-61" x="82.763672"/>
     <use xlink:href="#DejaVuSans-73" x="144.042969"/>
     <use xlink:href="#DejaVuSans-73" x="196.142578"/>
     <use xlink:href="#DejaVuSans-20" x="248.242188"/>
     <use xlink:href="#DejaVuSans-3d" x="280.029297"/>
     <use xlink:href="#DejaVuSans-20" x="363.818359"/>
     <use xlink:href="#DejaVuSans-76" x="395.605469"/>
     <use xlink:href="#DejaVuSans-69" x="454.785156"/>
     <use xlink:href="#DejaVuSans-72" x="482.568359"/>
     <use xlink:href="#DejaVuSans-67" x="521.931641"/>
     <use xlink:href="#DejaVuSans-69" x="585.408203"/>
     <use xlink:href="#DejaVuSans-6e" x="613.191406"/>
     <use xlink:href="#DejaVuSans-69" x="676.570312"/>
     <use xlink:href="#DejaVuSans-63" x="704.353516"/>
     <use xlink:href="#DejaVuSans-61" x="759.333984"/>
    </g>
   </g>
   <g id="patch_14">
    <path d="M 374.574165 254.128633 
Q 410.784885 206.159163 447.669204 157.297356 
" style="fill: none; stroke: #000000; stroke-linecap: round"/>
    <path d="M 380.620033 251.129163 
L 374.574165 254.128633 
L 375.80211 247.492257 
" style="fill: none; stroke: #000000; stroke-linecap: round"/>
   </g>
   <g id="text_8">
    <g id="patch_15">
     <path d="M 277.835408 331.478542 
L 410.664592 331.478542 
Q 415.191975 331.478542 415.191975 326.951159 
L 415.191975 261.648841 
Q 415.191975 257.121458 410.664592 257.121458 
L 277.835408 257.121458 
Q 273.308025 257.121458 273.308025 261.648841 
L 273.308025 326.951159 
Q 273.308025 331.478542 277.835408 331.478542 
z
" style="fill: #e58139; stroke: #000000; stroke-linejoin: miter"/>
    </g>
    <!-- gini = 0.0 -->
    <g transform="translate(307.365974 273.115854) scale(0.150913 -0.150913)">
     <use xlink:href="#DejaVuSans-67"/>
     <use xlink:href="#DejaVuSans-69" x="63.476562"/>
     <use xlink:href="#DejaVuSans-6e" x="91.259766"/>
     <use xlink:href="#DejaVuSans-69" x="154.638672"/>
     <use xlink:href="#DejaVuSans-20" x="182.421875"/>
     <use xlink:href="#DejaVuSans-3d" x="214.208984"/>
     <use xlink:href="#DejaVuSans-20" x="297.998047"/>
     <use xlink:href="#DejaVuSans-30" x="329.785156"/>
     <use xlink:href="#DejaVuSans-2e" x="393.408203"/>
     <use xlink:href="#DejaVuSans-30" x="425.195312"/>
    </g>
    <!-- samples = 35 -->
    <g transform="translate(292.163869 290.014784) scale(0.150913 -0.150913)">
     <use xlink:href="#DejaVuSans-73"/>
     <use xlink:href="#DejaVuSans-61" x="52.099609"/>
     <use xlink:href="#DejaVuSans-6d" x="113.378906"/>
     <use xlink:href="#DejaVuSans-70" x="210.791016"/>
     <use xlink:href="#DejaVuSans-6c" x="274.267578"/>
     <use xlink:href="#DejaVuSans-65" x="302.050781"/>
     <use xlink:href="#DejaVuSans-73" x="363.574219"/>
     <use xlink:href="#DejaVuSans-20" x="415.673828"/>
     <use xlink:href="#DejaVuSans-3d" x="447.460938"/>
     <use xlink:href="#DejaVuSans-20" x="531.25"/>
     <use xlink:href="#DejaVuSans-33" x="563.037109"/>
     <use xlink:href="#DejaVuSans-35" x="626.660156"/>
    </g>
    <!-- value = [35, 0, 0] -->
    <g transform="translate(277.835408 306.913715) scale(0.150913 -0.150913)">
     <use xlink:href="#DejaVuSans-76"/>
     <use xlink:href="#DejaVuSans-61" x="59.179688"/>
     <use xlink:href="#DejaVuSans-6c" x="120.458984"/>
     <use xlink:href="#DejaVuSans-75" x="148.242188"/>
     <use xlink:href="#DejaVuSans-65" x="211.621094"/>
     <use xlink:href="#DejaVuSans-20" x="273.144531"/>
     <use xlink:href="#DejaVuSans-3d" x="304.931641"/>
     <use xlink:href="#DejaVuSans-20" x="388.720703"/>
     <use xlink:href="#DejaVuSans-5b" x="420.507812"/>
     <use xlink:href="#DejaVuSans-33" x="459.521484"/>
     <use xlink:href="#DejaVuSans-35" x="523.144531"/>
     <use xlink:href="#DejaVuSans-2c" x="586.767578"/>
     <use xlink:href="#DejaVuSans-20" x="618.554688"/>
     <use xlink:href="#DejaVuSans-30" x="650.341797"/>
     <use xlink:href="#DejaVuSans-2c" x="713.964844"/>
     <use xlink:href="#DejaVuSans-20" x="745.751953"/>
     <use xlink:href="#DejaVuSans-30" x="777.539062"/>
     <use xlink:href="#DejaVuSans-5d" x="841.162109"/>
    </g>
    <!-- class = setosa -->
    <g transform="translate(289.696209 323.812645) scale(0.150913 -0.150913)">
     <use xlink:href="#DejaVuSans-63"/>
     <use xlink:href="#DejaVuSans-6c" x="54.980469"/>
     <use xlink:href="#DejaVuSans-61" x="82.763672"/>
     <use xlink:href="#DejaVuSans-73" x="144.042969"/>
     <use xlink:href="#DejaVuSans-73" x="196.142578"/>
     <use xlink:href="#DejaVuSans-20" x="248.242188"/>
     <use xlink:href="#DejaVuSans-3d" x="280.029297"/>
     <use xlink:href="#DejaVuSans-20" x="363.818359"/>
     <use xlink:href="#DejaVuSans-73" x="395.605469"/>
     <use xlink:href="#DejaVuSans-65" x="447.705078"/>
     <use xlink:href="#DejaVuSans-74" x="509.228516"/>
     <use xlink:href="#DejaVuSans-6f" x="548.4375"/>
     <use xlink:href="#DejaVuSans-73" x="609.619141"/>
     <use xlink:href="#DejaVuSans-61" x="661.71875"/>
    </g>
   </g>
   <g id="text_9">
    <!-- True   -->
    <g transform="translate(354.924721 225) scale(0.150913 -0.150913)">
     <use xlink:href="#DejaVuSans-54"/>
     <use xlink:href="#DejaVuSans-72" x="46.333984"/>
     <use xlink:href="#DejaVuSans-75" x="87.447266"/>
     <use xlink:href="#DejaVuSans-65" x="150.826172"/>
     <use xlink:href="#DejaVuSans-20" x="212.349609"/>
     <use xlink:href="#DejaVuSans-20" x="244.136719"/>
    </g>
   </g>
   <g id="patch_16">
    <path d="M 516.802608 245.685821 
Q 483.777497 201.936426 450.078787 157.294694 
" style="fill: none; stroke: #000000; stroke-linecap: round"/>
    <path d="M 515.574664 239.049445 
L 516.802608 245.685821 
L 510.756741 242.686351 
" style="fill: none; stroke: #000000; stroke-linecap: round"/>
   </g>
   <g id="text_10">
    <g id="patch_17">
     <path d="M 457.164592 339.928007 
L 649.835408 339.928007 
Q 654.362792 339.928007 654.362792 335.400624 
L 654.362792 253.199376 
Q 654.362792 248.671993 649.835408 248.671993 
L 457.164592 248.671993 
Q 452.637208 248.671993 452.637208 253.199376 
L 452.637208 335.400624 
Q 452.637208 339.928007 457.164592 339.928007 
z
" style="fill: #ffffff; stroke: #000000; stroke-linejoin: miter"/>
    </g>
    <!-- petal width (cm) &lt;= 1.55 -->
    <g transform="translate(457.164592 264.666389) scale(0.150913 -0.150913)">
     <use xlink:href="#DejaVuSans-70"/>
     <use xlink:href="#DejaVuSans-65" x="63.476562"/>
     <use xlink:href="#DejaVuSans-74" x="125"/>
     <use xlink:href="#DejaVuSans-61" x="164.208984"/>
     <use xlink:href="#DejaVuSans-6c" x="225.488281"/>
     <use xlink:href="#DejaVuSans-20" x="253.271484"/>
     <use xlink:href="#DejaVuSans-77" x="285.058594"/>
     <use xlink:href="#DejaVuSans-69" x="366.845703"/>
     <use xlink:href="#DejaVuSans-64" x="394.628906"/>
     <use xlink:href="#DejaVuSans-74" x="458.105469"/>
     <use xlink:href="#DejaVuSans-68" x="497.314453"/>
     <use xlink:href="#DejaVuSans-20" x="560.693359"/>
     <use xlink:href="#DejaVuSans-28" x="592.480469"/>
     <use xlink:href="#DejaVuSans-63" x="631.494141"/>
     <use xlink:href="#DejaVuSans-6d" x="686.474609"/>
     <use xlink:href="#DejaVuSans-29" x="783.886719"/>
     <use xlink:href="#DejaVuSans-20" x="822.900391"/>
     <use xlink:href="#DejaVuSans-3c" x="854.6875"/>
     <use xlink:href="#DejaVuSans-3d" x="938.476562"/>
     <use xlink:href="#DejaVuSans-20" x="1022.265625"/>
     <use xlink:href="#DejaVuSans-31" x="1054.052734"/>
     <use xlink:href="#DejaVuSans-2e" x="1117.675781"/>
     <use xlink:href="#DejaVuSans-35" x="1149.462891"/>
     <use xlink:href="#DejaVuSans-35" x="1213.085938"/>
    </g>
    <!-- gini = 0.5 -->
    <g transform="translate(516.615974 281.565319) scale(0.150913 -0.150913)">
     <use xlink:href="#DejaVuSans-67"/>
     <use xlink:href="#DejaVuSans-69" x="63.476562"/>
     <use xlink:href="#DejaVuSans-6e" x="91.259766"/>
     <use xlink:href="#DejaVuSans-69" x="154.638672"/>
     <use xlink:href="#DejaVuSans-20" x="182.421875"/>
     <use xlink:href="#DejaVuSans-3d" x="214.208984"/>
     <use xlink:href="#DejaVuSans-20" x="297.998047"/>
     <use xlink:href="#DejaVuSans-30" x="329.785156"/>
     <use xlink:href="#DejaVuSans-2e" x="393.408203"/>
     <use xlink:href="#DejaVuSans-35" x="425.195312"/>
    </g>
    <!-- samples = 70 -->
    <g transform="translate(501.413869 298.464249) scale(0.150913 -0.150913)">
     <use xlink:href="#DejaVuSans-73"/>
     <use xlink:href="#DejaVuSans-61" x="52.099609"/>
     <use xlink:href="#DejaVuSans-6d" x="113.378906"/>
     <use xlink:href="#DejaVuSans-70" x="210.791016"/>
     <use xlink:href="#DejaVuSans-6c" x="274.267578"/>
     <use xlink:href="#DejaVuSans-65" x="302.050781"/>
     <use xlink:href="#DejaVuSans-73" x="363.574219"/>
     <use xlink:href="#DejaVuSans-20" x="415.673828"/>
     <use xlink:href="#DejaVuSans-3d" x="447.460938"/>
     <use xlink:href="#DejaVuSans-20" x="531.25"/>
     <use xlink:href="#DejaVuSans-37" x="563.037109"/>
     <use xlink:href="#DejaVuSans-30" x="626.660156"/>
    </g>
    <!-- value = [0, 35, 35] -->
    <g transform="translate(482.284495 315.36318) scale(0.150913 -0.150913)">
     <use xlink:href="#DejaVuSans-76"/>
     <use xlink:href="#DejaVuSans-61" x="59.179688"/>
     <use xlink:href="#DejaVuSans-6c" x="120.458984"/>
     <use xlink:href="#DejaVuSans-75" x="148.242188"/>
     <use xlink:href="#DejaVuSans-65" x="211.621094"/>
     <use xlink:href="#DejaVuSans-20" x="273.144531"/>
     <use xlink:href="#DejaVuSans-3d" x="304.931641"/>
     <use xlink:href="#DejaVuSans-20" x="388.720703"/>
     <use xlink:href="#DejaVuSans-5b" x="420.507812"/>
     <use xlink:href="#DejaVuSans-30" x="459.521484"/>
     <use xlink:href="#DejaVuSans-2c" x="523.144531"/>
     <use xlink:href="#DejaVuSans-20" x="554.931641"/>
     <use xlink:href="#DejaVuSans-33" x="586.71875"/>
     <use xlink:href="#DejaVuSans-35" x="650.341797"/>
     <use xlink:href="#DejaVuSans-2c" x="713.964844"/>
     <use xlink:href="#DejaVuSans-20" x="745.751953"/>
     <use xlink:href="#DejaVuSans-33" x="777.539062"/>
     <use xlink:href="#DejaVuSans-35" x="841.162109"/>
     <use xlink:href="#DejaVuSans-5d" x="904.785156"/>
    </g>
    <!-- class = versicolor -->
    <g transform="translate(486.830743 332.26211) scale(0.150913 -0.150913)">
     <use xlink:href="#DejaVuSans-63"/>
     <use xlink:href="#DejaVuSans-6c" x="54.980469"/>
     <use xlink:href="#DejaVuSans-61" x="82.763672"/>
     <use xlink:href="#DejaVuSans-73" x="144.042969"/>
     <use xlink:href="#DejaVuSans-73" x="196.142578"/>
     <use xlink:href="#DejaVuSans-20" x="248.242188"/>
     <use xlink:href="#DejaVuSans-3d" x="280.029297"/>
     <use xlink:href="#DejaVuSans-20" x="363.818359"/>
     <use xlink:href="#DejaVuSans-76" x="395.605469"/>
     <use xlink:href="#DejaVuSans-65" x="454.785156"/>
     <use xlink:href="#DejaVuSans-72" x="516.308594"/>
     <use xlink:href="#DejaVuSans-73" x="557.421875"/>
     <use xlink:href="#DejaVuSans-69" x="609.521484"/>
     <use xlink:href="#DejaVuSans-63" x="637.304688"/>
     <use xlink:href="#DejaVuSans-6f" x="692.285156"/>
     <use xlink:href="#DejaVuSans-6c" x="753.466797"/>
     <use xlink:href="#DejaVuSans-6f" x="781.25"/>
     <use xlink:href="#DejaVuSans-72" x="842.431641"/>
    </g>
   </g>
   <g id="text_11">
    <!--   False -->
    <g transform="translate(501.1875 225) scale(0.150913 -0.150913)">
     <defs>
      <path id="DejaVuSans-46" d="M 628 4666 
L 3309 4666 
L 3309 4134 
L 1259 4134 
L 1259 2759 
L 3109 2759 
L 3109 2228 
L 1259 2228 
L 1259 0 
L 628 0 
L 628 4666 
z
" transform="scale(0.015625)"/>
     </defs>
     <use xlink:href="#DejaVuSans-20"/>
     <use xlink:href="#DejaVuSans-20" x="31.787109"/>
     <use xlink:href="#DejaVuSans-46" x="63.574219"/>
     <use xlink:href="#DejaVuSans-61" x="111.96875"/>
     <use xlink:href="#DejaVuSans-6c" x="173.248047"/>
     <use xlink:href="#DejaVuSans-73" x="201.03125"/>
     <use xlink:href="#DejaVuSans-65" x="253.130859"/>
    </g>
   </g>
   <g id="patch_18">
    <path d="M 448.875 155.7 
Q 448.875 155.7 448.875 155.7 
" style="fill: none; stroke: #000000; stroke-linecap: round"/>
   </g>
   <g id="text_12">
    <g id="patch_19">
     <path d="M 349.285535 201.328007 
L 548.464465 201.328007 
Q 552.991848 201.328007 552.991848 196.800624 
L 552.991848 114.599376 
Q 552.991848 110.071993 548.464465 110.071993 
L 349.285535 110.071993 
Q 344.758152 110.071993 344.758152 114.599376 
L 344.758152 196.800624 
Q 344.758152 201.328007 349.285535 201.328007 
z
" style="fill: #ffffff; stroke: #000000; stroke-linejoin: miter"/>
    </g>
    <!-- petal length (cm) &lt;= 2.45 -->
    <g transform="translate(349.285535 126.066389) scale(0.150913 -0.150913)">
     <use xlink:href="#DejaVuSans-70"/>
     <use xlink:href="#DejaVuSans-65" x="63.476562"/>
     <use xlink:href="#DejaVuSans-74" x="125"/>
     <use xlink:href="#DejaVuSans-61" x="164.208984"/>
     <use xlink:href="#DejaVuSans-6c" x="225.488281"/>
     <use xlink:href="#DejaVuSans-20" x="253.271484"/>
     <use xlink:href="#DejaVuSans-6c" x="285.058594"/>
     <use xlink:href="#DejaVuSans-65" x="312.841797"/>
     <use xlink:href="#DejaVuSans-6e" x="374.365234"/>
     <use xlink:href="#DejaVuSans-67" x="437.744141"/>
     <use xlink:href="#DejaVuSans-74" x="501.220703"/>
     <use xlink:href="#DejaVuSans-68" x="540.429688"/>
     <use xlink:href="#DejaVuSans-20" x="603.808594"/>
     <use xlink:href="#DejaVuSans-28" x="635.595703"/>
     <use xlink:href="#DejaVuSans-63" x="674.609375"/>
     <use xlink:href="#DejaVuSans-6d" x="729.589844"/>
     <use xlink:href="#DejaVuSans-29" x="827.001953"/>
     <use xlink:href="#DejaVuSans-20" x="866.015625"/>
     <use xlink:href="#DejaVuSans-3c" x="897.802734"/>
     <use xlink:href="#DejaVuSans-3d" x="981.591797"/>
     <use xlink:href="#DejaVuSans-20" x="1065.380859"/>
     <use xlink:href="#DejaVuSans-32" x="1097.167969"/>
     <use xlink:href="#DejaVuSans-2e" x="1160.791016"/>
     <use xlink:href="#DejaVuSans-34" x="1192.578125"/>
     <use xlink:href="#DejaVuSans-35" x="1256.201172"/>
    </g>
    <!-- gini = 0.667 -->
    <g transform="translate(402.389148 142.965319) scale(0.150913 -0.150913)">
     <use xlink:href="#DejaVuSans-67"/>
     <use xlink:href="#DejaVuSans-69" x="63.476562"/>
     <use xlink:href="#DejaVuSans-6e" x="91.259766"/>
     <use xlink:href="#DejaVuSans-69" x="154.638672"/>
     <use xlink:href="#DejaVuSans-20" x="182.421875"/>
     <use xlink:href="#DejaVuSans-3d" x="214.208984"/>
     <use xlink:href="#DejaVuSans-20" x="297.998047"/>
     <use xlink:href="#DejaVuSans-30" x="329.785156"/>
     <use xlink:href="#DejaVuSans-2e" x="393.408203"/>
     <use xlink:href="#DejaVuSans-36" x="425.195312"/>
     <use xlink:href="#DejaVuSans-36" x="488.818359"/>
     <use xlink:href="#DejaVuSans-37" x="552.441406"/>
    </g>
    <!-- samples = 105 -->
    <g transform="translate(391.987956 159.864249) scale(0.150913 -0.150913)">
     <use xlink:href="#DejaVuSans-73"/>
     <use xlink:href="#DejaVuSans-61" x="52.099609"/>
     <use xlink:href="#DejaVuSans-6d" x="113.378906"/>
     <use xlink:href="#DejaVuSans-70" x="210.791016"/>
     <use xlink:href="#DejaVuSans-6c" x="274.267578"/>
     <use xlink:href="#DejaVuSans-65" x="302.050781"/>
     <use xlink:href="#DejaVuSans-73" x="363.574219"/>
     <use xlink:href="#DejaVuSans-20" x="415.673828"/>
     <use xlink:href="#DejaVuSans-3d" x="447.460938"/>
     <use xlink:href="#DejaVuSans-20" x="531.25"/>
     <use xlink:href="#DejaVuSans-31" x="563.037109"/>
     <use xlink:href="#DejaVuSans-30" x="626.660156"/>
     <use xlink:href="#DejaVuSans-35" x="690.283203"/>
    </g>
    <!-- value = [35, 35, 35] -->
    <g transform="translate(372.858583 176.76318) scale(0.150913 -0.150913)">
     <use xlink:href="#DejaVuSans-76"/>
     <use xlink:href="#DejaVuSans-61" x="59.179688"/>
     <use xlink:href="#DejaVuSans-6c" x="120.458984"/>
     <use xlink:href="#DejaVuSans-75" x="148.242188"/>
     <use xlink:href="#DejaVuSans-65" x="211.621094"/>
     <use xlink:href="#DejaVuSans-20" x="273.144531"/>
     <use xlink:href="#DejaVuSans-3d" x="304.931641"/>
     <use xlink:href="#DejaVuSans-20" x="388.720703"/>
     <use xlink:href="#DejaVuSans-5b" x="420.507812"/>
     <use xlink:href="#DejaVuSans-33" x="459.521484"/>
     <use xlink:href="#DejaVuSans-35" x="523.144531"/>
     <use xlink:href="#DejaVuSans-2c" x="586.767578"/>
     <use xlink:href="#DejaVuSans-20" x="618.554688"/>
     <use xlink:href="#DejaVuSans-33" x="650.341797"/>
     <use xlink:href="#DejaVuSans-35" x="713.964844"/>
     <use xlink:href="#DejaVuSans-2c" x="777.587891"/>
     <use xlink:href="#DejaVuSans-20" x="809.375"/>
     <use xlink:href="#DejaVuSans-33" x="841.162109"/>
     <use xlink:href="#DejaVuSans-35" x="904.785156"/>
     <use xlink:href="#DejaVuSans-5d" x="968.408203"/>
    </g>
    <!-- class = setosa -->
    <g transform="translate(394.321209 193.66211) scale(0.150913 -0.150913)">
     <use xlink:href="#DejaVuSans-63"/>
     <use xlink:href="#DejaVuSans-6c" x="54.980469"/>
     <use xlink:href="#DejaVuSans-61" x="82.763672"/>
     <use xlink:href="#DejaVuSans-73" x="144.042969"/>
     <use xlink:href="#DejaVuSans-73" x="196.142578"/>
     <use xlink:href="#DejaVuSans-20" x="248.242188"/>
     <use xlink:href="#DejaVuSans-3d" x="280.029297"/>
     <use xlink:href="#DejaVuSans-20" x="363.818359"/>
     <use xlink:href="#DejaVuSans-73" x="395.605469"/>
     <use xlink:href="#DejaVuSans-65" x="447.705078"/>
     <use xlink:href="#DejaVuSans-74" x="509.228516"/>
     <use xlink:href="#DejaVuSans-6f" x="548.4375"/>
     <use xlink:href="#DejaVuSans-73" x="609.619141"/>
     <use xlink:href="#DejaVuSans-61" x="661.71875"/>
    </g>
   </g>
  </g>
 </g>
</svg>
