<?xml version="1.0" encoding="utf-8" standalone="no"?>
<!DOCTYPE svg PUBLIC "-//W3C//DTD SVG 1.1//EN"
  "http://www.w3.org/Graphics/SVG/1.1/DTD/svg11.dtd">
<svg xmlns:xlink="http://www.w3.org/1999/xlink" width="720pt" height="432pt" viewBox="0 0 720 432" xmlns="http://www.w3.org/2000/svg" version="1.1">
 <metadata>
  <rdf:RDF xmlns:dc="http://purl.org/dc/elements/1.1/" xmlns:cc="http://creativecommons.org/ns#" xmlns:rdf="http://www.w3.org/1999/02/22-rdf-syntax-ns#">
   <cc:Work>
    <dc:type rdf:resource="http://purl.org/dc/dcmitype/StillImage"/>
    <dc:date>2025-05-27T11:08:11.399705</dc:date>
    <dc:format>image/svg+xml</dc:format>
    <dc:creator>
     <cc:Agent>
      <dc:title>Matplotlib v3.7.2, https://matplotlib.org/</dc:title>
     </cc:Agent>
    </dc:creator>
   </cc:Work>
  </rdf:RDF>
 </metadata>
 <defs>
  <style type="text/css">*{stroke-linejoin: round; stroke-linecap: butt}</style>
 </defs>
 <g id="figure_1">
  <g id="patch_1">
   <path d="M 0 432 
L 720 432 
L 720 0 
L 0 0 
z
" style="fill: #ffffff"/>
  </g>
  <g id="axes_1">
   <g id="patch_2">
    <path d="M 90 384.48 
L 648 384.48 
L 648 51.84 
L 90 51.84 
z
" style="fill: #ffffff"/>
   </g>
   <g id="PathCollection_1">
    <defs>
     <path id="me0fad5964e" d="M 0 2.236068 
C 0.593012 2.236068 1.161816 2.000462 1.581139 1.581139 
C 2.000462 1.161816 2.236068 0.593012 2.236068 0 
C 2.236068 -0.593012 2.000462 -1.161816 1.581139 -1.581139 
C 1.161816 -2.000462 0.593012 -2.236068 0 -2.236068 
C -0.593012 -2.236068 -1.161816 -2.000462 -1.581139 -1.581139 
C -2.000462 -1.161816 -2.236068 -0.593012 -2.236068 0 
C -2.236068 0.593012 -2.000462 1.161816 -1.581139 1.581139 
C -1.161816 2.000462 -0.593012 2.236068 0 2.236068 
z
" style="stroke: #000000"/>
    </defs>
    <g clip-path="url(#p75b47d6edd)">
     <use xlink:href="#me0fad5964e" x="118.170469" y="206.311774" style="fill: #ff8c00; stroke: #000000"/>
     <use xlink:href="#me0fad5964e" x="125.826515" y="187.513456" style="fill: #ff8c00; stroke: #000000"/>
     <use xlink:href="#me0fad5964e" x="132.842954" y="197.900629" style="fill: #ff8c00; stroke: #000000"/>
     <use xlink:href="#me0fad5964e" x="138.352184" y="186.792467" style="fill: #ff8c00; stroke: #000000"/>
     <use xlink:href="#me0fad5964e" x="138.973884" y="198.391324" style="fill: #ff8c00; stroke: #000000"/>
     <use xlink:href="#me0fad5964e" x="144.886915" y="192.03426" style="fill: #ff8c00; stroke: #000000"/>
     <use xlink:href="#me0fad5964e" x="148.428665" y="160.505671" style="fill: #ff8c00; stroke: #000000"/>
     <use xlink:href="#me0fad5964e" x="152.999741" y="147.488495" style="fill: #ff8c00; stroke: #000000"/>
     <use xlink:href="#me0fad5964e" x="153.256931" y="166.408803" style="fill: #ff8c00; stroke: #000000"/>
     <use xlink:href="#me0fad5964e" x="160.343429" y="143.303268" style="fill: #ff8c00; stroke: #000000"/>
     <use xlink:href="#me0fad5964e" x="165.009327" y="146.425109" style="fill: #ff8c00; stroke: #000000"/>
     <use xlink:href="#me0fad5964e" x="174.25864" y="149.439334" style="fill: #ff8c00; stroke: #000000"/>
     <use xlink:href="#me0fad5964e" x="177.394366" y="132.440874" style="fill: #ff8c00; stroke: #000000"/>
     <use xlink:href="#me0fad5964e" x="186.266874" y="107.263657" style="fill: #ff8c00; stroke: #000000"/>
     <use xlink:href="#me0fad5964e" x="186.993913" y="127.72669" style="fill: #ff8c00; stroke: #000000"/>
     <use xlink:href="#me0fad5964e" x="194.653983" y="98.691576" style="fill: #ff8c00; stroke: #000000"/>
     <use xlink:href="#me0fad5964e" x="194.666243" y="155.041716" style="fill: #ff8c00; stroke: #000000"/>
     <use xlink:href="#me0fad5964e" x="202.039225" y="101.9952" style="fill: #ff8c00; stroke: #000000"/>
     <use xlink:href="#me0fad5964e" x="207.783323" y="107.049854" style="fill: #ff8c00; stroke: #000000"/>
     <use xlink:href="#me0fad5964e" x="208.586187" y="111.599513" style="fill: #ff8c00; stroke: #000000"/>
     <use xlink:href="#me0fad5964e" x="209.323179" y="105.744975" style="fill: #ff8c00; stroke: #000000"/>
     <use xlink:href="#me0fad5964e" x="214.979629" y="129.406322" style="fill: #ff8c00; stroke: #000000"/>
     <use xlink:href="#me0fad5964e" x="216.368692" y="104.578756" style="fill: #ff8c00; stroke: #000000"/>
     <use xlink:href="#me0fad5964e" x="216.855685" y="96.458932" style="fill: #ff8c00; stroke: #000000"/>
     <use xlink:href="#me0fad5964e" x="223.293336" y="76.972221" style="fill: #ff8c00; stroke: #000000"/>
     <use xlink:href="#me0fad5964e" x="246.898734" y="91.908709" style="fill: #ff8c00; stroke: #000000"/>
     <use xlink:href="#me0fad5964e" x="253.287447" y="93.761098" style="fill: #ff8c00; stroke: #000000"/>
     <use xlink:href="#me0fad5964e" x="258.159643" y="88.409873" style="fill: #ff8c00; stroke: #000000"/>
     <use xlink:href="#me0fad5964e" x="263.392294" y="68.351397" style="fill: #ff8c00; stroke: #000000"/>
     <use xlink:href="#me0fad5964e" x="263.857637" y="76.184168" style="fill: #ff8c00; stroke: #000000"/>
     <use xlink:href="#me0fad5964e" x="270.006715" y="87.098286" style="fill: #ff8c00; stroke: #000000"/>
     <use xlink:href="#me0fad5964e" x="270.195558" y="73.03704" style="fill: #ff8c00; stroke: #000000"/>
     <use xlink:href="#me0fad5964e" x="273.803043" y="78.499625" style="fill: #ff8c00; stroke: #000000"/>
     <use xlink:href="#me0fad5964e" x="280.725564" y="66.96" style="fill: #ff8c00; stroke: #000000"/>
     <use xlink:href="#me0fad5964e" x="296.697537" y="92.296548" style="fill: #ff8c00; stroke: #000000"/>
     <use xlink:href="#me0fad5964e" x="297.567933" y="87.502264" style="fill: #ff8c00; stroke: #000000"/>
     <use xlink:href="#me0fad5964e" x="301.581443" y="89.640875" style="fill: #ff8c00; stroke: #000000"/>
     <use xlink:href="#me0fad5964e" x="305.738373" y="105.601949" style="fill: #ff8c00; stroke: #000000"/>
     <use xlink:href="#me0fad5964e" x="312.924146" y="85.050283" style="fill: #ff8c00; stroke: #000000"/>
     <use xlink:href="#me0fad5964e" x="334.91667" y="98.97209" style="fill: #ff8c00; stroke: #000000"/>
     <use xlink:href="#me0fad5964e" x="339.088442" y="105.583322" style="fill: #ff8c00; stroke: #000000"/>
     <use xlink:href="#me0fad5964e" x="347.179132" y="115.465195" style="fill: #ff8c00; stroke: #000000"/>
     <use xlink:href="#me0fad5964e" x="367.056764" y="150.366722" style="fill: #ff8c00; stroke: #000000"/>
     <use xlink:href="#me0fad5964e" x="376.743502" y="147.424666" style="fill: #ff8c00; stroke: #000000"/>
     <use xlink:href="#me0fad5964e" x="379.70865" y="149.712193" style="fill: #ff8c00; stroke: #000000"/>
     <use xlink:href="#me0fad5964e" x="382.091719" y="158.627306" style="fill: #ff8c00; stroke: #000000"/>
     <use xlink:href="#me0fad5964e" x="391.210252" y="160.745461" style="fill: #ff8c00; stroke: #000000"/>
     <use xlink:href="#me0fad5964e" x="393.250625" y="155.601228" style="fill: #ff8c00; stroke: #000000"/>
     <use xlink:href="#me0fad5964e" x="416.481626" y="165.035484" style="fill: #ff8c00; stroke: #000000"/>
     <use xlink:href="#me0fad5964e" x="419.269802" y="191.733526" style="fill: #ff8c00; stroke: #000000"/>
     <use xlink:href="#me0fad5964e" x="419.655342" y="191.121009" style="fill: #ff8c00; stroke: #000000"/>
     <use xlink:href="#me0fad5964e" x="420.903968" y="197.230551" style="fill: #ff8c00; stroke: #000000"/>
     <use xlink:href="#me0fad5964e" x="424.172187" y="226.371763" style="fill: #ff8c00; stroke: #000000"/>
     <use xlink:href="#me0fad5964e" x="426.36192" y="203.772716" style="fill: #ff8c00; stroke: #000000"/>
     <use xlink:href="#me0fad5964e" x="452.116628" y="236.604274" style="fill: #ff8c00; stroke: #000000"/>
     <use xlink:href="#me0fad5964e" x="463.151966" y="218.482014" style="fill: #ff8c00; stroke: #000000"/>
     <use xlink:href="#me0fad5964e" x="474.651665" y="268.628258" style="fill: #ff8c00; stroke: #000000"/>
     <use xlink:href="#me0fad5964e" x="475.269355" y="262.730729" style="fill: #ff8c00; stroke: #000000"/>
     <use xlink:href="#me0fad5964e" x="485.910184" y="279.942739" style="fill: #ff8c00; stroke: #000000"/>
     <use xlink:href="#me0fad5964e" x="487.428329" y="296.971346" style="fill: #ff8c00; stroke: #000000"/>
     <use xlink:href="#me0fad5964e" x="507.392106" y="287.382982" style="fill: #ff8c00; stroke: #000000"/>
     <use xlink:href="#me0fad5964e" x="507.887394" y="293.142662" style="fill: #ff8c00; stroke: #000000"/>
     <use xlink:href="#me0fad5964e" x="509.355361" y="294.069473" style="fill: #ff8c00; stroke: #000000"/>
     <use xlink:href="#me0fad5964e" x="514.460181" y="321.879257" style="fill: #ff8c00; stroke: #000000"/>
     <use xlink:href="#me0fad5964e" x="523.111783" y="298.495908" style="fill: #ff8c00; stroke: #000000"/>
     <use xlink:href="#me0fad5964e" x="526.263363" y="338.917849" style="fill: #ff8c00; stroke: #000000"/>
     <use xlink:href="#me0fad5964e" x="529.85396" y="315.020305" style="fill: #ff8c00; stroke: #000000"/>
     <use xlink:href="#me0fad5964e" x="536.60205" y="298.482166" style="fill: #ff8c00; stroke: #000000"/>
     <use xlink:href="#me0fad5964e" x="538.485328" y="342.652856" style="fill: #ff8c00; stroke: #000000"/>
     <use xlink:href="#me0fad5964e" x="555.631708" y="347.131153" style="fill: #ff8c00; stroke: #000000"/>
     <use xlink:href="#me0fad5964e" x="570.194809" y="344.040289" style="fill: #ff8c00; stroke: #000000"/>
     <use xlink:href="#me0fad5964e" x="577.561472" y="354.12216" style="fill: #ff8c00; stroke: #000000"/>
     <use xlink:href="#me0fad5964e" x="583.942451" y="369.36" style="fill: #ff8c00; stroke: #000000"/>
     <use xlink:href="#me0fad5964e" x="592.900901" y="348.248971" style="fill: #ff8c00; stroke: #000000"/>
     <use xlink:href="#me0fad5964e" x="597.672007" y="363.427012" style="fill: #ff8c00; stroke: #000000"/>
     <use xlink:href="#me0fad5964e" x="598.601551" y="342.694155" style="fill: #ff8c00; stroke: #000000"/>
     <use xlink:href="#me0fad5964e" x="606.184072" y="360.66997" style="fill: #ff8c00; stroke: #000000"/>
     <use xlink:href="#me0fad5964e" x="608.193134" y="327.075307" style="fill: #ff8c00; stroke: #000000"/>
     <use xlink:href="#me0fad5964e" x="608.358442" y="358.472442" style="fill: #ff8c00; stroke: #000000"/>
     <use xlink:href="#me0fad5964e" x="616.987712" y="350.21853" style="fill: #ff8c00; stroke: #000000"/>
    </g>
   </g>
   <g id="matplotlib.axis_1">
    <g id="xtick_1">
     <g id="line2d_1">
      <defs>
       <path id="m359d665401" d="M 0 0 
L 0 3.5 
" style="stroke: #000000; stroke-width: 0.8"/>
      </defs>
      <g>
       <use xlink:href="#m359d665401" x="115.363636" y="384.48" style="stroke: #000000; stroke-width: 0.8"/>
      </g>
     </g>
     <g id="text_1">
      <!-- 0 -->
      <g transform="translate(112.182386 399.078438) scale(0.1 -0.1)">
       <defs>
        <path id="DejaVuSans-30" d="M 2034 4250 
Q 1547 4250 1301 3770 
Q 1056 3291 1056 2328 
Q 1056 1369 1301 889 
Q 1547 409 2034 409 
Q 2525 409 2770 889 
Q 3016 1369 3016 2328 
Q 3016 3291 2770 3770 
Q 2525 4250 2034 4250 
z
M 2034 4750 
Q 2819 4750 3233 4129 
Q 3647 3509 3647 2328 
Q 3647 1150 3233 529 
Q 2819 -91 2034 -91 
Q 1250 -91 836 529 
Q 422 1150 422 2328 
Q 422 3509 836 4129 
Q 1250 4750 2034 4750 
z
" transform="scale(0.015625)"/>
       </defs>
       <use xlink:href="#DejaVuSans-30"/>
      </g>
     </g>
    </g>
    <g id="xtick_2">
     <g id="line2d_2">
      <g>
       <use xlink:href="#m359d665401" x="217.021498" y="384.48" style="stroke: #000000; stroke-width: 0.8"/>
      </g>
     </g>
     <g id="text_2">
      <!-- 1 -->
      <g transform="translate(213.840248 399.078438) scale(0.1 -0.1)">
       <defs>
        <path id="DejaVuSans-31" d="M 794 531 
L 1825 531 
L 1825 4091 
L 703 3866 
L 703 4441 
L 1819 4666 
L 2450 4666 
L 2450 531 
L 3481 531 
L 3481 0 
L 794 0 
L 794 531 
z
" transform="scale(0.015625)"/>
       </defs>
       <use xlink:href="#DejaVuSans-31"/>
      </g>
     </g>
    </g>
    <g id="xtick_3">
     <g id="line2d_3">
      <g>
       <use xlink:href="#m359d665401" x="318.679359" y="384.48" style="stroke: #000000; stroke-width: 0.8"/>
      </g>
     </g>
     <g id="text_3">
      <!-- 2 -->
      <g transform="translate(315.498109 399.078438) scale(0.1 -0.1)">
       <defs>
        <path id="DejaVuSans-32" d="M 1228 531 
L 3431 531 
L 3431 0 
L 469 0 
L 469 531 
Q 828 903 1448 1529 
Q 2069 2156 2228 2338 
Q 2531 2678 2651 2914 
Q 2772 3150 2772 3378 
Q 2772 3750 2511 3984 
Q 2250 4219 1831 4219 
Q 1534 4219 1204 4116 
Q 875 4013 500 3803 
L 500 4441 
Q 881 4594 1212 4672 
Q 1544 4750 1819 4750 
Q 2544 4750 2975 4387 
Q 3406 4025 3406 3419 
Q 3406 3131 3298 2873 
Q 3191 2616 2906 2266 
Q 2828 2175 2409 1742 
Q 1991 1309 1228 531 
z
" transform="scale(0.015625)"/>
       </defs>
       <use xlink:href="#DejaVuSans-32"/>
      </g>
     </g>
    </g>
    <g id="xtick_4">
     <g id="line2d_4">
      <g>
       <use xlink:href="#m359d665401" x="420.33722" y="384.48" style="stroke: #000000; stroke-width: 0.8"/>
      </g>
     </g>
     <g id="text_4">
      <!-- 3 -->
      <g transform="translate(417.15597 399.078438) scale(0.1 -0.1)">
       <defs>
        <path id="DejaVuSans-33" d="M 2597 2516 
Q 3050 2419 3304 2112 
Q 3559 1806 3559 1356 
Q 3559 666 3084 287 
Q 2609 -91 1734 -91 
Q 1441 -91 1130 -33 
Q 819 25 488 141 
L 488 750 
Q 750 597 1062 519 
Q 1375 441 1716 441 
Q 2309 441 2620 675 
Q 2931 909 2931 1356 
Q 2931 1769 2642 2001 
Q 2353 2234 1838 2234 
L 1294 2234 
L 1294 2753 
L 1863 2753 
Q 2328 2753 2575 2939 
Q 2822 3125 2822 3475 
Q 2822 3834 2567 4026 
Q 2313 4219 1838 4219 
Q 1578 4219 1281 4162 
Q 984 4106 628 3988 
L 628 4550 
Q 988 4650 1302 4700 
Q 1616 4750 1894 4750 
Q 2613 4750 3031 4423 
Q 3450 4097 3450 3541 
Q 3450 3153 3228 2886 
Q 3006 2619 2597 2516 
z
" transform="scale(0.015625)"/>
       </defs>
       <use xlink:href="#DejaVuSans-33"/>
      </g>
     </g>
    </g>
    <g id="xtick_5">
     <g id="line2d_5">
      <g>
       <use xlink:href="#m359d665401" x="521.995081" y="384.48" style="stroke: #000000; stroke-width: 0.8"/>
      </g>
     </g>
     <g id="text_5">
      <!-- 4 -->
      <g transform="translate(518.813831 399.078438) scale(0.1 -0.1)">
       <defs>
        <path id="DejaVuSans-34" d="M 2419 4116 
L 825 1625 
L 2419 1625 
L 2419 4116 
z
M 2253 4666 
L 3047 4666 
L 3047 1625 
L 3713 1625 
L 3713 1100 
L 3047 1100 
L 3047 0 
L 2419 0 
L 2419 1100 
L 313 1100 
L 313 1709 
L 2253 4666 
z
" transform="scale(0.015625)"/>
       </defs>
       <use xlink:href="#DejaVuSans-34"/>
      </g>
     </g>
    </g>
    <g id="xtick_6">
     <g id="line2d_6">
      <g>
       <use xlink:href="#m359d665401" x="623.652942" y="384.48" style="stroke: #000000; stroke-width: 0.8"/>
      </g>
     </g>
     <g id="text_6">
      <!-- 5 -->
      <g transform="translate(620.471692 399.078438) scale(0.1 -0.1)">
       <defs>
        <path id="DejaVuSans-35" d="M 691 4666 
L 3169 4666 
L 3169 4134 
L 1269 4134 
L 1269 2991 
Q 1406 3038 1543 3061 
Q 1681 3084 1819 3084 
Q 2600 3084 3056 2656 
Q 3513 2228 3513 1497 
Q 3513 744 3044 326 
Q 2575 -91 1722 -91 
Q 1428 -91 1123 -41 
Q 819 9 494 109 
L 494 744 
Q 775 591 1075 516 
Q 1375 441 1709 441 
Q 2250 441 2565 725 
Q 2881 1009 2881 1497 
Q 2881 1984 2565 2268 
Q 2250 2553 1709 2553 
Q 1456 2553 1204 2497 
Q 953 2441 691 2322 
L 691 4666 
z
" transform="scale(0.015625)"/>
       </defs>
       <use xlink:href="#DejaVuSans-35"/>
      </g>
     </g>
    </g>
    <g id="text_7">
     <!-- data -->
     <g transform="translate(357.7375 412.756563) scale(0.1 -0.1)">
      <defs>
       <path id="DejaVuSans-64" d="M 2906 2969 
L 2906 4863 
L 3481 4863 
L 3481 0 
L 2906 0 
L 2906 525 
Q 2725 213 2448 61 
Q 2172 -91 1784 -91 
Q 1150 -91 751 415 
Q 353 922 353 1747 
Q 353 2572 751 3078 
Q 1150 3584 1784 3584 
Q 2172 3584 2448 3432 
Q 2725 3281 2906 2969 
z
M 947 1747 
Q 947 1113 1208 752 
Q 1469 391 1925 391 
Q 2381 391 2643 752 
Q 2906 1113 2906 1747 
Q 2906 2381 2643 2742 
Q 2381 3103 1925 3103 
Q 1469 3103 1208 2742 
Q 947 2381 947 1747 
z
" transform="scale(0.015625)"/>
       <path id="DejaVuSans-61" d="M 2194 1759 
Q 1497 1759 1228 1600 
Q 959 1441 959 1056 
Q 959 750 1161 570 
Q 1363 391 1709 391 
Q 2188 391 2477 730 
Q 2766 1069 2766 1631 
L 2766 1759 
L 2194 1759 
z
M 3341 1997 
L 3341 0 
L 2766 0 
L 2766 531 
Q 2569 213 2275 61 
Q 1981 -91 1556 -91 
Q 1019 -91 701 211 
Q 384 513 384 1019 
Q 384 1609 779 1909 
Q 1175 2209 1959 2209 
L 2766 2209 
L 2766 2266 
Q 2766 2663 2505 2880 
Q 2244 3097 1772 3097 
Q 1472 3097 1187 3025 
Q 903 2953 641 2809 
L 641 3341 
Q 956 3463 1253 3523 
Q 1550 3584 1831 3584 
Q 2591 3584 2966 3190 
Q 3341 2797 3341 1997 
z
" transform="scale(0.015625)"/>
       <path id="DejaVuSans-74" d="M 1172 4494 
L 1172 3500 
L 2356 3500 
L 2356 3053 
L 1172 3053 
L 1172 1153 
Q 1172 725 1289 603 
Q 1406 481 1766 481 
L 2356 481 
L 2356 0 
L 1766 0 
Q 1100 0 847 248 
Q 594 497 594 1153 
L 594 3053 
L 172 3053 
L 172 3500 
L 594 3500 
L 594 4494 
L 1172 4494 
z
" transform="scale(0.015625)"/>
      </defs>
      <use xlink:href="#DejaVuSans-64"/>
      <use xlink:href="#DejaVuSans-61" x="63.476562"/>
      <use xlink:href="#DejaVuSans-74" x="124.755859"/>
      <use xlink:href="#DejaVuSans-61" x="163.964844"/>
     </g>
    </g>
   </g>
   <g id="matplotlib.axis_2">
    <g id="ytick_1">
     <g id="line2d_7">
      <defs>
       <path id="md0c1d14510" d="M 0 0 
L -3.5 0 
" style="stroke: #000000; stroke-width: 0.8"/>
      </defs>
      <g>
       <use xlink:href="#md0c1d14510" x="90" y="349.187421" style="stroke: #000000; stroke-width: 0.8"/>
      </g>
     </g>
     <g id="text_8">
      <!-- −1.0 -->
      <g transform="translate(58.717187 352.98664) scale(0.1 -0.1)">
       <defs>
        <path id="DejaVuSans-2212" d="M 678 2272 
L 4684 2272 
L 4684 1741 
L 678 1741 
L 678 2272 
z
" transform="scale(0.015625)"/>
        <path id="DejaVuSans-2e" d="M 684 794 
L 1344 794 
L 1344 0 
L 684 0 
L 684 794 
z
" transform="scale(0.015625)"/>
       </defs>
       <use xlink:href="#DejaVuSans-2212"/>
       <use xlink:href="#DejaVuSans-31" x="83.789062"/>
       <use xlink:href="#DejaVuSans-2e" x="147.412109"/>
       <use xlink:href="#DejaVuSans-30" x="179.199219"/>
      </g>
     </g>
    </g>
    <g id="ytick_2">
     <g id="line2d_8">
      <g>
       <use xlink:href="#md0c1d14510" x="90" y="281.839846" style="stroke: #000000; stroke-width: 0.8"/>
      </g>
     </g>
     <g id="text_9">
      <!-- −0.5 -->
      <g transform="translate(58.717187 285.639065) scale(0.1 -0.1)">
       <use xlink:href="#DejaVuSans-2212"/>
       <use xlink:href="#DejaVuSans-30" x="83.789062"/>
       <use xlink:href="#DejaVuSans-2e" x="147.412109"/>
       <use xlink:href="#DejaVuSans-35" x="179.199219"/>
      </g>
     </g>
    </g>
    <g id="ytick_3">
     <g id="line2d_9">
      <g>
       <use xlink:href="#md0c1d14510" x="90" y="214.492271" style="stroke: #000000; stroke-width: 0.8"/>
      </g>
     </g>
     <g id="text_10">
      <!-- 0.0 -->
      <g transform="translate(67.096875 218.29149) scale(0.1 -0.1)">
       <use xlink:href="#DejaVuSans-30"/>
       <use xlink:href="#DejaVuSans-2e" x="63.623047"/>
       <use xlink:href="#DejaVuSans-30" x="95.410156"/>
      </g>
     </g>
    </g>
    <g id="ytick_4">
     <g id="line2d_10">
      <g>
       <use xlink:href="#md0c1d14510" x="90" y="147.144696" style="stroke: #000000; stroke-width: 0.8"/>
      </g>
     </g>
     <g id="text_11">
      <!-- 0.5 -->
      <g transform="translate(67.096875 150.943915) scale(0.1 -0.1)">
       <use xlink:href="#DejaVuSans-30"/>
       <use xlink:href="#DejaVuSans-2e" x="63.623047"/>
       <use xlink:href="#DejaVuSans-35" x="95.410156"/>
      </g>
     </g>
    </g>
    <g id="ytick_5">
     <g id="line2d_11">
      <g>
       <use xlink:href="#md0c1d14510" x="90" y="79.797121" style="stroke: #000000; stroke-width: 0.8"/>
      </g>
     </g>
     <g id="text_12">
      <!-- 1.0 -->
      <g transform="translate(67.096875 83.596339) scale(0.1 -0.1)">
       <use xlink:href="#DejaVuSans-31"/>
       <use xlink:href="#DejaVuSans-2e" x="63.623047"/>
       <use xlink:href="#DejaVuSans-30" x="95.410156"/>
      </g>
     </g>
    </g>
    <g id="text_13">
     <!-- target -->
     <g transform="translate(52.6375 233.363125) rotate(-90) scale(0.1 -0.1)">
      <defs>
       <path id="DejaVuSans-72" d="M 2631 2963 
Q 2534 3019 2420 3045 
Q 2306 3072 2169 3072 
Q 1681 3072 1420 2755 
Q 1159 2438 1159 1844 
L 1159 0 
L 581 0 
L 581 3500 
L 1159 3500 
L 1159 2956 
Q 1341 3275 1631 3429 
Q 1922 3584 2338 3584 
Q 2397 3584 2469 3576 
Q 2541 3569 2628 3553 
L 2631 2963 
z
" transform="scale(0.015625)"/>
       <path id="DejaVuSans-67" d="M 2906 1791 
Q 2906 2416 2648 2759 
Q 2391 3103 1925 3103 
Q 1463 3103 1205 2759 
Q 947 2416 947 1791 
Q 947 1169 1205 825 
Q 1463 481 1925 481 
Q 2391 481 2648 825 
Q 2906 1169 2906 1791 
z
M 3481 434 
Q 3481 -459 3084 -895 
Q 2688 -1331 1869 -1331 
Q 1566 -1331 1297 -1286 
Q 1028 -1241 775 -1147 
L 775 -588 
Q 1028 -725 1275 -790 
Q 1522 -856 1778 -856 
Q 2344 -856 2625 -561 
Q 2906 -266 2906 331 
L 2906 616 
Q 2728 306 2450 153 
Q 2172 0 1784 0 
Q 1141 0 747 490 
Q 353 981 353 1791 
Q 353 2603 747 3093 
Q 1141 3584 1784 3584 
Q 2172 3584 2450 3431 
Q 2728 3278 2906 2969 
L 2906 3500 
L 3481 3500 
L 3481 434 
z
" transform="scale(0.015625)"/>
       <path id="DejaVuSans-65" d="M 3597 1894 
L 3597 1613 
L 953 1613 
Q 991 1019 1311 708 
Q 1631 397 2203 397 
Q 2534 397 2845 478 
Q 3156 559 3463 722 
L 3463 178 
Q 3153 47 2828 -22 
Q 2503 -91 2169 -91 
Q 1331 -91 842 396 
Q 353 884 353 1716 
Q 353 2575 817 3079 
Q 1281 3584 2069 3584 
Q 2775 3584 3186 3129 
Q 3597 2675 3597 1894 
z
M 3022 2063 
Q 3016 2534 2758 2815 
Q 2500 3097 2075 3097 
Q 1594 3097 1305 2825 
Q 1016 2553 972 2059 
L 3022 2063 
z
" transform="scale(0.015625)"/>
      </defs>
      <use xlink:href="#DejaVuSans-74"/>
      <use xlink:href="#DejaVuSans-61" x="39.208984"/>
      <use xlink:href="#DejaVuSans-72" x="100.488281"/>
      <use xlink:href="#DejaVuSans-67" x="139.851562"/>
      <use xlink:href="#DejaVuSans-65" x="203.328125"/>
      <use xlink:href="#DejaVuSans-74" x="264.851562"/>
     </g>
    </g>
   </g>
   <g id="line2d_12">
    <path d="M 115.363636 121.984693 
L 380.690654 121.984693 
L 381.707233 183.359894 
L 438.635635 183.359894 
L 439.652214 270.883831 
L 511.829295 270.883831 
L 512.845874 340.053431 
L 622.636364 340.053431 
L 622.636364 340.053431 
" clip-path="url(#p75b47d6edd)" style="fill: none; stroke: #6495ed; stroke-width: 2; stroke-linecap: square"/>
   </g>
   <g id="line2d_13">
    <path d="M 115.363636 206.311774 
L 121.463108 206.311774 
L 122.479687 192.526427 
L 145.860995 192.526427 
L 146.877573 158.134323 
L 156.026781 158.134323 
L 157.043359 146.389237 
L 175.341774 146.389237 
L 176.358353 116.503557 
L 216.004919 116.503557 
L 217.021498 88.302835 
L 356.292767 88.302835 
L 357.309346 150.366722 
L 371.541447 150.366722 
L 372.558025 148.568429 
L 380.690654 148.568429 
L 381.707233 159.686383 
L 391.873019 159.686383 
L 392.889597 155.601228 
L 404.071962 155.601228 
L 405.088541 165.035484 
L 417.287484 165.035484 
L 418.304063 191.427267 
L 419.320641 191.427267 
L 420.33722 197.230551 
L 422.370377 197.230551 
L 423.386956 226.371763 
L 424.403534 226.371763 
L 425.420113 203.772716 
L 438.635635 203.772716 
L 439.652214 236.604274 
L 456.93405 236.604274 
L 457.950629 218.482014 
L 468.116415 218.482014 
L 469.132993 268.628258 
L 474.215886 268.628258 
L 475.232465 262.730729 
L 480.315358 262.730729 
L 481.331937 279.942739 
L 486.41483 279.942739 
L 487.431408 292.891616 
L 511.829295 292.891616 
L 512.845874 310.187583 
L 524.028238 310.187583 
L 525.044817 326.969077 
L 533.177446 326.969077 
L 534.194024 298.482166 
L 537.24376 298.482166 
L 538.260339 342.652856 
L 546.392968 342.652856 
L 547.409546 345.585721 
L 573.84059 345.585721 
L 574.857169 358.789536 
L 597.221898 358.789536 
L 598.238477 347.826081 
L 622.636364 347.826081 
L 622.636364 347.826081 
" clip-path="url(#p75b47d6edd)" style="fill: none; stroke: #9acd32; stroke-width: 2; stroke-linecap: square"/>
   </g>
   <g id="patch_3">
    <path d="M 90 384.48 
L 90 51.84 
" style="fill: none; stroke: #000000; stroke-width: 0.8; stroke-linejoin: miter; stroke-linecap: square"/>
   </g>
   <g id="patch_4">
    <path d="M 648 384.48 
L 648 51.84 
" style="fill: none; stroke: #000000; stroke-width: 0.8; stroke-linejoin: miter; stroke-linecap: square"/>
   </g>
   <g id="patch_5">
    <path d="M 90 384.48 
L 648 384.48 
" style="fill: none; stroke: #000000; stroke-width: 0.8; stroke-linejoin: miter; stroke-linecap: square"/>
   </g>
   <g id="patch_6">
    <path d="M 90 51.84 
L 648 51.84 
" style="fill: none; stroke: #000000; stroke-width: 0.8; stroke-linejoin: miter; stroke-linecap: square"/>
   </g>
   <g id="text_14">
    <!-- Decision Tree Regression -->
    <g transform="translate(294.331875 45.84) scale(0.12 -0.12)">
     <defs>
      <path id="DejaVuSans-44" d="M 1259 4147 
L 1259 519 
L 2022 519 
Q 2988 519 3436 956 
Q 3884 1394 3884 2338 
Q 3884 3275 3436 3711 
Q 2988 4147 2022 4147 
L 1259 4147 
z
M 628 4666 
L 1925 4666 
Q 3281 4666 3915 4102 
Q 4550 3538 4550 2338 
Q 4550 1131 3912 565 
Q 3275 0 1925 0 
L 628 0 
L 628 4666 
z
" transform="scale(0.015625)"/>
      <path id="DejaVuSans-63" d="M 3122 3366 
L 3122 2828 
Q 2878 2963 2633 3030 
Q 2388 3097 2138 3097 
Q 1578 3097 1268 2742 
Q 959 2388 959 1747 
Q 959 1106 1268 751 
Q 1578 397 2138 397 
Q 2388 397 2633 464 
Q 2878 531 3122 666 
L 3122 134 
Q 2881 22 2623 -34 
Q 2366 -91 2075 -91 
Q 1284 -91 818 406 
Q 353 903 353 1747 
Q 353 2603 823 3093 
Q 1294 3584 2113 3584 
Q 2378 3584 2631 3529 
Q 2884 3475 3122 3366 
z
" transform="scale(0.015625)"/>
      <path id="DejaVuSans-69" d="M 603 3500 
L 1178 3500 
L 1178 0 
L 603 0 
L 603 3500 
z
M 603 4863 
L 1178 4863 
L 1178 4134 
L 603 4134 
L 603 4863 
z
" transform="scale(0.015625)"/>
      <path id="DejaVuSans-73" d="M 2834 3397 
L 2834 2853 
Q 2591 2978 2328 3040 
Q 2066 3103 1784 3103 
Q 1356 3103 1142 2972 
Q 928 2841 928 2578 
Q 928 2378 1081 2264 
Q 1234 2150 1697 2047 
L 1894 2003 
Q 2506 1872 2764 1633 
Q 3022 1394 3022 966 
Q 3022 478 2636 193 
Q 2250 -91 1575 -91 
Q 1294 -91 989 -36 
Q 684 19 347 128 
L 347 722 
Q 666 556 975 473 
Q 1284 391 1588 391 
Q 1994 391 2212 530 
Q 2431 669 2431 922 
Q 2431 1156 2273 1281 
Q 2116 1406 1581 1522 
L 1381 1569 
Q 847 1681 609 1914 
Q 372 2147 372 2553 
Q 372 3047 722 3315 
Q 1072 3584 1716 3584 
Q 2034 3584 2315 3537 
Q 2597 3491 2834 3397 
z
" transform="scale(0.015625)"/>
      <path id="DejaVuSans-6f" d="M 1959 3097 
Q 1497 3097 1228 2736 
Q 959 2375 959 1747 
Q 959 1119 1226 758 
Q 1494 397 1959 397 
Q 2419 397 2687 759 
Q 2956 1122 2956 1747 
Q 2956 2369 2687 2733 
Q 2419 3097 1959 3097 
z
M 1959 3584 
Q 2709 3584 3137 3096 
Q 3566 2609 3566 1747 
Q 3566 888 3137 398 
Q 2709 -91 1959 -91 
Q 1206 -91 779 398 
Q 353 888 353 1747 
Q 353 2609 779 3096 
Q 1206 3584 1959 3584 
z
" transform="scale(0.015625)"/>
      <path id="DejaVuSans-6e" d="M 3513 2113 
L 3513 0 
L 2938 0 
L 2938 2094 
Q 2938 2591 2744 2837 
Q 2550 3084 2163 3084 
Q 1697 3084 1428 2787 
Q 1159 2491 1159 1978 
L 1159 0 
L 581 0 
L 581 3500 
L 1159 3500 
L 1159 2956 
Q 1366 3272 1645 3428 
Q 1925 3584 2291 3584 
Q 2894 3584 3203 3211 
Q 3513 2838 3513 2113 
z
" transform="scale(0.015625)"/>
      <path id="DejaVuSans-20" transform="scale(0.015625)"/>
      <path id="DejaVuSans-54" d="M -19 4666 
L 3928 4666 
L 3928 4134 
L 2272 4134 
L 2272 0 
L 1638 0 
L 1638 4134 
L -19 4134 
L -19 4666 
z
" transform="scale(0.015625)"/>
      <path id="DejaVuSans-52" d="M 2841 2188 
Q 3044 2119 3236 1894 
Q 3428 1669 3622 1275 
L 4263 0 
L 3584 0 
L 2988 1197 
Q 2756 1666 2539 1819 
Q 2322 1972 1947 1972 
L 1259 1972 
L 1259 0 
L 628 0 
L 628 4666 
L 2053 4666 
Q 2853 4666 3247 4331 
Q 3641 3997 3641 3322 
Q 3641 2881 3436 2590 
Q 3231 2300 2841 2188 
z
M 1259 4147 
L 1259 2491 
L 2053 2491 
Q 2509 2491 2742 2702 
Q 2975 2913 2975 3322 
Q 2975 3731 2742 3939 
Q 2509 4147 2053 4147 
L 1259 4147 
z
" transform="scale(0.015625)"/>
     </defs>
     <use xlink:href="#DejaVuSans-44"/>
     <use xlink:href="#DejaVuSans-65" x="77.001953"/>
     <use xlink:href="#DejaVuSans-63" x="138.525391"/>
     <use xlink:href="#DejaVuSans-69" x="193.505859"/>
     <use xlink:href="#DejaVuSans-73" x="221.289062"/>
     <use xlink:href="#DejaVuSans-69" x="273.388672"/>
     <use xlink:href="#DejaVuSans-6f" x="301.171875"/>
     <use xlink:href="#DejaVuSans-6e" x="362.353516"/>
     <use xlink:href="#DejaVuSans-20" x="425.732422"/>
     <use xlink:href="#DejaVuSans-54" x="457.519531"/>
     <use xlink:href="#DejaVuSans-72" x="503.853516"/>
     <use xlink:href="#DejaVuSans-65" x="542.716797"/>
     <use xlink:href="#DejaVuSans-65" x="604.240234"/>
     <use xlink:href="#DejaVuSans-20" x="665.763672"/>
     <use xlink:href="#DejaVuSans-52" x="697.550781"/>
     <use xlink:href="#DejaVuSans-65" x="762.533203"/>
     <use xlink:href="#DejaVuSans-67" x="824.056641"/>
     <use xlink:href="#DejaVuSans-72" x="887.533203"/>
     <use xlink:href="#DejaVuSans-65" x="926.396484"/>
     <use xlink:href="#DejaVuSans-73" x="987.919922"/>
     <use xlink:href="#DejaVuSans-73" x="1040.019531"/>
     <use xlink:href="#DejaVuSans-69" x="1092.119141"/>
     <use xlink:href="#DejaVuSans-6f" x="1119.902344"/>
     <use xlink:href="#DejaVuSans-6e" x="1181.083984"/>
    </g>
   </g>
   <g id="legend_1">
    <g id="patch_7">
     <path d="M 538.3625 104.430625 
L 641 104.430625 
Q 643 104.430625 643 102.430625 
L 643 58.84 
Q 643 56.84 641 56.84 
L 538.3625 56.84 
Q 536.3625 56.84 536.3625 58.84 
L 536.3625 102.430625 
Q 536.3625 104.430625 538.3625 104.430625 
z
" style="fill: #ffffff; opacity: 0.8; stroke: #cccccc; stroke-linejoin: miter"/>
    </g>
    <g id="PathCollection_2">
     <g>
      <use xlink:href="#me0fad5964e" x="550.3625" y="65.813437" style="fill: #ff8c00; stroke: #000000"/>
     </g>
    </g>
    <g id="text_15">
     <!-- data -->
     <g transform="translate(568.3625 68.438437) scale(0.1 -0.1)">
      <use xlink:href="#DejaVuSans-64"/>
      <use xlink:href="#DejaVuSans-61" x="63.476562"/>
      <use xlink:href="#DejaVuSans-74" x="124.755859"/>
      <use xlink:href="#DejaVuSans-61" x="163.964844"/>
     </g>
    </g>
    <g id="line2d_14">
     <path d="M 540.3625 79.616562 
L 550.3625 79.616562 
L 560.3625 79.616562 
" style="fill: none; stroke: #6495ed; stroke-width: 2; stroke-linecap: square"/>
    </g>
    <g id="text_16">
     <!-- max_depth=2 -->
     <g transform="translate(568.3625 83.116562) scale(0.1 -0.1)">
      <defs>
       <path id="DejaVuSans-6d" d="M 3328 2828 
Q 3544 3216 3844 3400 
Q 4144 3584 4550 3584 
Q 5097 3584 5394 3201 
Q 5691 2819 5691 2113 
L 5691 0 
L 5113 0 
L 5113 2094 
Q 5113 2597 4934 2840 
Q 4756 3084 4391 3084 
Q 3944 3084 3684 2787 
Q 3425 2491 3425 1978 
L 3425 0 
L 2847 0 
L 2847 2094 
Q 2847 2600 2669 2842 
Q 2491 3084 2119 3084 
Q 1678 3084 1418 2786 
Q 1159 2488 1159 1978 
L 1159 0 
L 581 0 
L 581 3500 
L 1159 3500 
L 1159 2956 
Q 1356 3278 1631 3431 
Q 1906 3584 2284 3584 
Q 2666 3584 2933 3390 
Q 3200 3197 3328 2828 
z
" transform="scale(0.015625)"/>
       <path id="DejaVuSans-78" d="M 3513 3500 
L 2247 1797 
L 3578 0 
L 2900 0 
L 1881 1375 
L 863 0 
L 184 0 
L 1544 1831 
L 300 3500 
L 978 3500 
L 1906 2253 
L 2834 3500 
L 3513 3500 
z
" transform="scale(0.015625)"/>
       <path id="DejaVuSans-5f" d="M 3263 -1063 
L 3263 -1509 
L -63 -1509 
L -63 -1063 
L 3263 -1063 
z
" transform="scale(0.015625)"/>
       <path id="DejaVuSans-70" d="M 1159 525 
L 1159 -1331 
L 581 -1331 
L 581 3500 
L 1159 3500 
L 1159 2969 
Q 1341 3281 1617 3432 
Q 1894 3584 2278 3584 
Q 2916 3584 3314 3078 
Q 3713 2572 3713 1747 
Q 3713 922 3314 415 
Q 2916 -91 2278 -91 
Q 1894 -91 1617 61 
Q 1341 213 1159 525 
z
M 3116 1747 
Q 3116 2381 2855 2742 
Q 2594 3103 2138 3103 
Q 1681 3103 1420 2742 
Q 1159 2381 1159 1747 
Q 1159 1113 1420 752 
Q 1681 391 2138 391 
Q 2594 391 2855 752 
Q 3116 1113 3116 1747 
z
" transform="scale(0.015625)"/>
       <path id="DejaVuSans-68" d="M 3513 2113 
L 3513 0 
L 2938 0 
L 2938 2094 
Q 2938 2591 2744 2837 
Q 2550 3084 2163 3084 
Q 1697 3084 1428 2787 
Q 1159 2491 1159 1978 
L 1159 0 
L 581 0 
L 581 4863 
L 1159 4863 
L 1159 2956 
Q 1366 3272 1645 3428 
Q 1925 3584 2291 3584 
Q 2894 3584 3203 3211 
Q 3513 2838 3513 2113 
z
" transform="scale(0.015625)"/>
       <path id="DejaVuSans-3d" d="M 678 2906 
L 4684 2906 
L 4684 2381 
L 678 2381 
L 678 2906 
z
M 678 1631 
L 4684 1631 
L 4684 1100 
L 678 1100 
L 678 1631 
z
" transform="scale(0.015625)"/>
      </defs>
      <use xlink:href="#DejaVuSans-6d"/>
      <use xlink:href="#DejaVuSans-61" x="97.412109"/>
      <use xlink:href="#DejaVuSans-78" x="158.691406"/>
      <use xlink:href="#DejaVuSans-5f" x="217.871094"/>
      <use xlink:href="#DejaVuSans-64" x="267.871094"/>
      <use xlink:href="#DejaVuSans-65" x="331.347656"/>
      <use xlink:href="#DejaVuSans-70" x="392.871094"/>
      <use xlink:href="#DejaVuSans-74" x="456.347656"/>
      <use xlink:href="#DejaVuSans-68" x="495.556641"/>
      <use xlink:href="#DejaVuSans-3d" x="558.935547"/>
      <use xlink:href="#DejaVuSans-32" x="642.724609"/>
     </g>
    </g>
    <g id="line2d_15">
     <path d="M 540.3625 94.572812 
L 550.3625 94.572812 
L 560.3625 94.572812 
" style="fill: none; stroke: #9acd32; stroke-width: 2; stroke-linecap: square"/>
    </g>
    <g id="text_17">
     <!-- max_depth=5 -->
     <g transform="translate(568.3625 98.072812) scale(0.1 -0.1)">
      <use xlink:href="#DejaVuSans-6d"/>
      <use xlink:href="#DejaVuSans-61" x="97.412109"/>
      <use xlink:href="#DejaVuSans-78" x="158.691406"/>
      <use xlink:href="#DejaVuSans-5f" x="217.871094"/>
      <use xlink:href="#DejaVuSans-64" x="267.871094"/>
      <use xlink:href="#DejaVuSans-65" x="331.347656"/>
      <use xlink:href="#DejaVuSans-70" x="392.871094"/>
      <use xlink:href="#DejaVuSans-74" x="456.347656"/>
      <use xlink:href="#DejaVuSans-68" x="495.556641"/>
      <use xlink:href="#DejaVuSans-3d" x="558.935547"/>
      <use xlink:href="#DejaVuSans-35" x="642.724609"/>
     </g>
    </g>
   </g>
  </g>
 </g>
 <defs>
  <clipPath id="p75b47d6edd">
   <rect x="90" y="51.84" width="558" height="332.64"/>
  </clipPath>
 </defs>
</svg>
