<?xml version="1.0" encoding="utf-8" standalone="no"?>
<!DOCTYPE svg PUBLIC "-//W3C//DTD SVG 1.1//EN"
  "http://www.w3.org/Graphics/SVG/1.1/DTD/svg11.dtd">
<svg xmlns:xlink="http://www.w3.org/1999/xlink" width="864pt" height="360pt" viewBox="0 0 864 360" xmlns="http://www.w3.org/2000/svg" version="1.1">
 <metadata>
  <rdf:RDF xmlns:dc="http://purl.org/dc/elements/1.1/" xmlns:cc="http://creativecommons.org/ns#" xmlns:rdf="http://www.w3.org/1999/02/22-rdf-syntax-ns#">
   <cc:Work>
    <dc:type rdf:resource="http://purl.org/dc/dcmitype/StillImage"/>
    <dc:date>2025-05-27T11:07:53.482585</dc:date>
    <dc:format>image/svg+xml</dc:format>
    <dc:creator>
     <cc:Agent>
      <dc:title>Matplotlib v3.7.2, https://matplotlib.org/</dc:title>
     </cc:Agent>
    </dc:creator>
   </cc:Work>
  </rdf:RDF>
 </metadata>
 <defs>
  <style type="text/css">*{stroke-linejoin: round; stroke-linecap: butt}</style>
 </defs>
 <g id="figure_1">
  <g id="patch_1">
   <path d="M 0 360 
L 864 360 
L 864 0 
L 0 0 
z
" style="fill: #ffffff"/>
  </g>
  <g id="axes_1">
   <g id="patch_2">
    <path d="M 47.4875 318.7 
L 426.6 318.7 
L 426.6 25.8 
L 47.4875 25.8 
z
" style="fill: #ffffff"/>
   </g>
   <g id="PathCollection_1">
    <defs>
     <path id="m2d16359750" d="M 0 3 
C 0.795609 3 1.55874 2.683901 2.12132 2.12132 
C 2.683901 1.55874 3 0.795609 3 0 
C 3 -0.795609 2.683901 -1.55874 2.12132 -2.12132 
C 1.55874 -2.683901 0.795609 -3 0 -3 
C -0.795609 -3 -1.55874 -2.683901 -2.12132 -2.12132 
C -2.683901 -1.55874 -3 -0.795609 -3 0 
C -3 0.795609 -2.683901 1.55874 -2.12132 2.12132 
C -1.55874 2.683901 -0.795609 3 0 3 
z
" style="stroke: #0000ff"/>
    </defs>
    <g clip-path="url(#p15301c7679)">
     <use xlink:href="#m2d16359750" x="64.719886" y="275.800505" style="fill: #0000ff; stroke: #0000ff"/>
     <use xlink:href="#m2d16359750" x="122.161174" y="275.800505" style="fill: #0000ff; stroke: #0000ff"/>
     <use xlink:href="#m2d16359750" x="179.602462" y="275.800505" style="fill: #0000ff; stroke: #0000ff"/>
     <use xlink:href="#m2d16359750" x="294.485038" y="68.699495" style="fill: #0000ff; stroke: #0000ff"/>
     <use xlink:href="#m2d16359750" x="351.926326" y="68.699495" style="fill: #0000ff; stroke: #0000ff"/>
     <use xlink:href="#m2d16359750" x="409.367614" y="68.699495" style="fill: #0000ff; stroke: #0000ff"/>
    </g>
   </g>
   <g id="matplotlib.axis_1">
    <g id="xtick_1">
     <g id="line2d_1">
      <path d="M 64.719886 318.7 
L 64.719886 25.8 
" clip-path="url(#p15301c7679)" style="fill: none; stroke-dasharray: 0.8,1.32; stroke-dashoffset: 0; stroke: #b0b0b0; stroke-opacity: 0.6; stroke-width: 0.8"/>
     </g>
     <g id="line2d_2">
      <defs>
       <path id="m34bd38c5da" d="M 0 0 
L 0 3.5 
" style="stroke: #000000; stroke-width: 0.8"/>
      </defs>
      <g>
       <use xlink:href="#m34bd38c5da" x="64.719886" y="318.7" style="stroke: #000000; stroke-width: 0.8"/>
      </g>
     </g>
     <g id="text_1">
      <!-- 1 -->
      <g transform="translate(61.538636 333.298437) scale(0.1 -0.1)">
       <defs>
        <path id="DejaVuSans-31" d="M 794 531 
L 1825 531 
L 1825 4091 
L 703 3866 
L 703 4441 
L 1819 4666 
L 2450 4666 
L 2450 531 
L 3481 531 
L 3481 0 
L 794 0 
L 794 531 
z
" transform="scale(0.015625)"/>
       </defs>
       <use xlink:href="#DejaVuSans-31"/>
      </g>
     </g>
    </g>
    <g id="xtick_2">
     <g id="line2d_3">
      <path d="M 122.161174 318.7 
L 122.161174 25.8 
" clip-path="url(#p15301c7679)" style="fill: none; stroke-dasharray: 0.8,1.32; stroke-dashoffset: 0; stroke: #b0b0b0; stroke-opacity: 0.6; stroke-width: 0.8"/>
     </g>
     <g id="line2d_4">
      <g>
       <use xlink:href="#m34bd38c5da" x="122.161174" y="318.7" style="stroke: #000000; stroke-width: 0.8"/>
      </g>
     </g>
     <g id="text_2">
      <!-- 2 -->
      <g transform="translate(118.979924 333.298437) scale(0.1 -0.1)">
       <defs>
        <path id="DejaVuSans-32" d="M 1228 531 
L 3431 531 
L 3431 0 
L 469 0 
L 469 531 
Q 828 903 1448 1529 
Q 2069 2156 2228 2338 
Q 2531 2678 2651 2914 
Q 2772 3150 2772 3378 
Q 2772 3750 2511 3984 
Q 2250 4219 1831 4219 
Q 1534 4219 1204 4116 
Q 875 4013 500 3803 
L 500 4441 
Q 881 4594 1212 4672 
Q 1544 4750 1819 4750 
Q 2544 4750 2975 4387 
Q 3406 4025 3406 3419 
Q 3406 3131 3298 2873 
Q 3191 2616 2906 2266 
Q 2828 2175 2409 1742 
Q 1991 1309 1228 531 
z
" transform="scale(0.015625)"/>
       </defs>
       <use xlink:href="#DejaVuSans-32"/>
      </g>
     </g>
    </g>
    <g id="xtick_3">
     <g id="line2d_5">
      <path d="M 179.602462 318.7 
L 179.602462 25.8 
" clip-path="url(#p15301c7679)" style="fill: none; stroke-dasharray: 0.8,1.32; stroke-dashoffset: 0; stroke: #b0b0b0; stroke-opacity: 0.6; stroke-width: 0.8"/>
     </g>
     <g id="line2d_6">
      <g>
       <use xlink:href="#m34bd38c5da" x="179.602462" y="318.7" style="stroke: #000000; stroke-width: 0.8"/>
      </g>
     </g>
     <g id="text_3">
      <!-- 3 -->
      <g transform="translate(176.421212 333.298437) scale(0.1 -0.1)">
       <defs>
        <path id="DejaVuSans-33" d="M 2597 2516 
Q 3050 2419 3304 2112 
Q 3559 1806 3559 1356 
Q 3559 666 3084 287 
Q 2609 -91 1734 -91 
Q 1441 -91 1130 -33 
Q 819 25 488 141 
L 488 750 
Q 750 597 1062 519 
Q 1375 441 1716 441 
Q 2309 441 2620 675 
Q 2931 909 2931 1356 
Q 2931 1769 2642 2001 
Q 2353 2234 1838 2234 
L 1294 2234 
L 1294 2753 
L 1863 2753 
Q 2328 2753 2575 2939 
Q 2822 3125 2822 3475 
Q 2822 3834 2567 4026 
Q 2313 4219 1838 4219 
Q 1578 4219 1281 4162 
Q 984 4106 628 3988 
L 628 4550 
Q 988 4650 1302 4700 
Q 1616 4750 1894 4750 
Q 2613 4750 3031 4423 
Q 3450 4097 3450 3541 
Q 3450 3153 3228 2886 
Q 3006 2619 2597 2516 
z
" transform="scale(0.015625)"/>
       </defs>
       <use xlink:href="#DejaVuSans-33"/>
      </g>
     </g>
    </g>
    <g id="xtick_4">
     <g id="line2d_7">
      <path d="M 237.04375 318.7 
L 237.04375 25.8 
" clip-path="url(#p15301c7679)" style="fill: none; stroke-dasharray: 0.8,1.32; stroke-dashoffset: 0; stroke: #b0b0b0; stroke-opacity: 0.6; stroke-width: 0.8"/>
     </g>
     <g id="line2d_8">
      <g>
       <use xlink:href="#m34bd38c5da" x="237.04375" y="318.7" style="stroke: #000000; stroke-width: 0.8"/>
      </g>
     </g>
     <g id="text_4">
      <!-- 4 -->
      <g transform="translate(233.8625 333.298437) scale(0.1 -0.1)">
       <defs>
        <path id="DejaVuSans-34" d="M 2419 4116 
L 825 1625 
L 2419 1625 
L 2419 4116 
z
M 2253 4666 
L 3047 4666 
L 3047 1625 
L 3713 1625 
L 3713 1100 
L 3047 1100 
L 3047 0 
L 2419 0 
L 2419 1100 
L 313 1100 
L 313 1709 
L 2253 4666 
z
" transform="scale(0.015625)"/>
       </defs>
       <use xlink:href="#DejaVuSans-34"/>
      </g>
     </g>
    </g>
    <g id="xtick_5">
     <g id="line2d_9">
      <path d="M 294.485038 318.7 
L 294.485038 25.8 
" clip-path="url(#p15301c7679)" style="fill: none; stroke-dasharray: 0.8,1.32; stroke-dashoffset: 0; stroke: #b0b0b0; stroke-opacity: 0.6; stroke-width: 0.8"/>
     </g>
     <g id="line2d_10">
      <g>
       <use xlink:href="#m34bd38c5da" x="294.485038" y="318.7" style="stroke: #000000; stroke-width: 0.8"/>
      </g>
     </g>
     <g id="text_5">
      <!-- 5 -->
      <g transform="translate(291.303788 333.298437) scale(0.1 -0.1)">
       <defs>
        <path id="DejaVuSans-35" d="M 691 4666 
L 3169 4666 
L 3169 4134 
L 1269 4134 
L 1269 2991 
Q 1406 3038 1543 3061 
Q 1681 3084 1819 3084 
Q 2600 3084 3056 2656 
Q 3513 2228 3513 1497 
Q 3513 744 3044 326 
Q 2575 -91 1722 -91 
Q 1428 -91 1123 -41 
Q 819 9 494 109 
L 494 744 
Q 775 591 1075 516 
Q 1375 441 1709 441 
Q 2250 441 2565 725 
Q 2881 1009 2881 1497 
Q 2881 1984 2565 2268 
Q 2250 2553 1709 2553 
Q 1456 2553 1204 2497 
Q 953 2441 691 2322 
L 691 4666 
z
" transform="scale(0.015625)"/>
       </defs>
       <use xlink:href="#DejaVuSans-35"/>
      </g>
     </g>
    </g>
    <g id="xtick_6">
     <g id="line2d_11">
      <path d="M 351.926326 318.7 
L 351.926326 25.8 
" clip-path="url(#p15301c7679)" style="fill: none; stroke-dasharray: 0.8,1.32; stroke-dashoffset: 0; stroke: #b0b0b0; stroke-opacity: 0.6; stroke-width: 0.8"/>
     </g>
     <g id="line2d_12">
      <g>
       <use xlink:href="#m34bd38c5da" x="351.926326" y="318.7" style="stroke: #000000; stroke-width: 0.8"/>
      </g>
     </g>
     <g id="text_6">
      <!-- 6 -->
      <g transform="translate(348.745076 333.298437) scale(0.1 -0.1)">
       <defs>
        <path id="DejaVuSans-36" d="M 2113 2584 
Q 1688 2584 1439 2293 
Q 1191 2003 1191 1497 
Q 1191 994 1439 701 
Q 1688 409 2113 409 
Q 2538 409 2786 701 
Q 3034 994 3034 1497 
Q 3034 2003 2786 2293 
Q 2538 2584 2113 2584 
z
M 3366 4563 
L 3366 3988 
Q 3128 4100 2886 4159 
Q 2644 4219 2406 4219 
Q 1781 4219 1451 3797 
Q 1122 3375 1075 2522 
Q 1259 2794 1537 2939 
Q 1816 3084 2150 3084 
Q 2853 3084 3261 2657 
Q 3669 2231 3669 1497 
Q 3669 778 3244 343 
Q 2819 -91 2113 -91 
Q 1303 -91 875 529 
Q 447 1150 447 2328 
Q 447 3434 972 4092 
Q 1497 4750 2381 4750 
Q 2619 4750 2861 4703 
Q 3103 4656 3366 4563 
z
" transform="scale(0.015625)"/>
       </defs>
       <use xlink:href="#DejaVuSans-36"/>
      </g>
     </g>
    </g>
    <g id="xtick_7">
     <g id="line2d_13">
      <path d="M 409.367614 318.7 
L 409.367614 25.8 
" clip-path="url(#p15301c7679)" style="fill: none; stroke-dasharray: 0.8,1.32; stroke-dashoffset: 0; stroke: #b0b0b0; stroke-opacity: 0.6; stroke-width: 0.8"/>
     </g>
     <g id="line2d_14">
      <g>
       <use xlink:href="#m34bd38c5da" x="409.367614" y="318.7" style="stroke: #000000; stroke-width: 0.8"/>
      </g>
     </g>
     <g id="text_7">
      <!-- 7 -->
      <g transform="translate(406.186364 333.298437) scale(0.1 -0.1)">
       <defs>
        <path id="DejaVuSans-37" d="M 525 4666 
L 3525 4666 
L 3525 4397 
L 1831 0 
L 1172 0 
L 2766 4134 
L 525 4134 
L 525 4666 
z
" transform="scale(0.015625)"/>
       </defs>
       <use xlink:href="#DejaVuSans-37"/>
      </g>
     </g>
    </g>
    <g id="text_8">
     <!-- Feature X -->
     <g transform="translate(213.139844 346.976562) scale(0.1 -0.1)">
      <defs>
       <path id="DejaVuSans-46" d="M 628 4666 
L 3309 4666 
L 3309 4134 
L 1259 4134 
L 1259 2759 
L 3109 2759 
L 3109 2228 
L 1259 2228 
L 1259 0 
L 628 0 
L 628 4666 
z
" transform="scale(0.015625)"/>
       <path id="DejaVuSans-65" d="M 3597 1894 
L 3597 1613 
L 953 1613 
Q 991 1019 1311 708 
Q 1631 397 2203 397 
Q 2534 397 2845 478 
Q 3156 559 3463 722 
L 3463 178 
Q 3153 47 2828 -22 
Q 2503 -91 2169 -91 
Q 1331 -91 842 396 
Q 353 884 353 1716 
Q 353 2575 817 3079 
Q 1281 3584 2069 3584 
Q 2775 3584 3186 3129 
Q 3597 2675 3597 1894 
z
M 3022 2063 
Q 3016 2534 2758 2815 
Q 2500 3097 2075 3097 
Q 1594 3097 1305 2825 
Q 1016 2553 972 2059 
L 3022 2063 
z
" transform="scale(0.015625)"/>
       <path id="DejaVuSans-61" d="M 2194 1759 
Q 1497 1759 1228 1600 
Q 959 1441 959 1056 
Q 959 750 1161 570 
Q 1363 391 1709 391 
Q 2188 391 2477 730 
Q 2766 1069 2766 1631 
L 2766 1759 
L 2194 1759 
z
M 3341 1997 
L 3341 0 
L 2766 0 
L 2766 531 
Q 2569 213 2275 61 
Q 1981 -91 1556 -91 
Q 1019 -91 701 211 
Q 384 513 384 1019 
Q 384 1609 779 1909 
Q 1175 2209 1959 2209 
L 2766 2209 
L 2766 2266 
Q 2766 2663 2505 2880 
Q 2244 3097 1772 3097 
Q 1472 3097 1187 3025 
Q 903 2953 641 2809 
L 641 3341 
Q 956 3463 1253 3523 
Q 1550 3584 1831 3584 
Q 2591 3584 2966 3190 
Q 3341 2797 3341 1997 
z
" transform="scale(0.015625)"/>
       <path id="DejaVuSans-74" d="M 1172 4494 
L 1172 3500 
L 2356 3500 
L 2356 3053 
L 1172 3053 
L 1172 1153 
Q 1172 725 1289 603 
Q 1406 481 1766 481 
L 2356 481 
L 2356 0 
L 1766 0 
Q 1100 0 847 248 
Q 594 497 594 1153 
L 594 3053 
L 172 3053 
L 172 3500 
L 594 3500 
L 594 4494 
L 1172 4494 
z
" transform="scale(0.015625)"/>
       <path id="DejaVuSans-75" d="M 544 1381 
L 544 3500 
L 1119 3500 
L 1119 1403 
Q 1119 906 1312 657 
Q 1506 409 1894 409 
Q 2359 409 2629 706 
Q 2900 1003 2900 1516 
L 2900 3500 
L 3475 3500 
L 3475 0 
L 2900 0 
L 2900 538 
Q 2691 219 2414 64 
Q 2138 -91 1772 -91 
Q 1169 -91 856 284 
Q 544 659 544 1381 
z
M 1991 3584 
L 1991 3584 
z
" transform="scale(0.015625)"/>
       <path id="DejaVuSans-72" d="M 2631 2963 
Q 2534 3019 2420 3045 
Q 2306 3072 2169 3072 
Q 1681 3072 1420 2755 
Q 1159 2438 1159 1844 
L 1159 0 
L 581 0 
L 581 3500 
L 1159 3500 
L 1159 2956 
Q 1341 3275 1631 3429 
Q 1922 3584 2338 3584 
Q 2397 3584 2469 3576 
Q 2541 3569 2628 3553 
L 2631 2963 
z
" transform="scale(0.015625)"/>
       <path id="DejaVuSans-20" transform="scale(0.015625)"/>
       <path id="DejaVuSans-58" d="M 403 4666 
L 1081 4666 
L 2241 2931 
L 3406 4666 
L 4084 4666 
L 2584 2425 
L 4184 0 
L 3506 0 
L 2194 1984 
L 872 0 
L 191 0 
L 1856 2491 
L 403 4666 
z
" transform="scale(0.015625)"/>
      </defs>
      <use xlink:href="#DejaVuSans-46"/>
      <use xlink:href="#DejaVuSans-65" x="52.019531"/>
      <use xlink:href="#DejaVuSans-61" x="113.542969"/>
      <use xlink:href="#DejaVuSans-74" x="174.822266"/>
      <use xlink:href="#DejaVuSans-75" x="214.03125"/>
      <use xlink:href="#DejaVuSans-72" x="277.410156"/>
      <use xlink:href="#DejaVuSans-65" x="316.273438"/>
      <use xlink:href="#DejaVuSans-20" x="377.796875"/>
      <use xlink:href="#DejaVuSans-58" x="409.583984"/>
     </g>
    </g>
   </g>
   <g id="matplotlib.axis_2">
    <g id="ytick_1">
     <g id="line2d_15">
      <path d="M 47.4875 275.800505 
L 426.6 275.800505 
" clip-path="url(#p15301c7679)" style="fill: none; stroke-dasharray: 0.8,1.32; stroke-dashoffset: 0; stroke: #b0b0b0; stroke-opacity: 0.6; stroke-width: 0.8"/>
     </g>
     <g id="line2d_16">
      <defs>
       <path id="m91e5c8ac3a" d="M 0 0 
L -3.5 0 
" style="stroke: #000000; stroke-width: 0.8"/>
      </defs>
      <g>
       <use xlink:href="#m91e5c8ac3a" x="47.4875" y="275.800505" style="stroke: #000000; stroke-width: 0.8"/>
      </g>
     </g>
     <g id="text_9">
      <!-- 0.0 -->
      <g transform="translate(24.584375 279.599724) scale(0.1 -0.1)">
       <defs>
        <path id="DejaVuSans-30" d="M 2034 4250 
Q 1547 4250 1301 3770 
Q 1056 3291 1056 2328 
Q 1056 1369 1301 889 
Q 1547 409 2034 409 
Q 2525 409 2770 889 
Q 3016 1369 3016 2328 
Q 3016 3291 2770 3770 
Q 2525 4250 2034 4250 
z
M 2034 4750 
Q 2819 4750 3233 4129 
Q 3647 3509 3647 2328 
Q 3647 1150 3233 529 
Q 2819 -91 2034 -91 
Q 1250 -91 836 529 
Q 422 1150 422 2328 
Q 422 3509 836 4129 
Q 1250 4750 2034 4750 
z
" transform="scale(0.015625)"/>
        <path id="DejaVuSans-2e" d="M 684 794 
L 1344 794 
L 1344 0 
L 684 0 
L 684 794 
z
" transform="scale(0.015625)"/>
       </defs>
       <use xlink:href="#DejaVuSans-30"/>
       <use xlink:href="#DejaVuSans-2e" x="63.623047"/>
       <use xlink:href="#DejaVuSans-30" x="95.410156"/>
      </g>
     </g>
    </g>
    <g id="ytick_2">
     <g id="line2d_17">
      <path d="M 47.4875 172.25 
L 426.6 172.25 
" clip-path="url(#p15301c7679)" style="fill: none; stroke-dasharray: 0.8,1.32; stroke-dashoffset: 0; stroke: #b0b0b0; stroke-opacity: 0.6; stroke-width: 0.8"/>
     </g>
     <g id="line2d_18">
      <g>
       <use xlink:href="#m91e5c8ac3a" x="47.4875" y="172.25" style="stroke: #000000; stroke-width: 0.8"/>
      </g>
     </g>
     <g id="text_10">
      <!-- 0.5 -->
      <g transform="translate(24.584375 176.049219) scale(0.1 -0.1)">
       <use xlink:href="#DejaVuSans-30"/>
       <use xlink:href="#DejaVuSans-2e" x="63.623047"/>
       <use xlink:href="#DejaVuSans-35" x="95.410156"/>
      </g>
     </g>
    </g>
    <g id="ytick_3">
     <g id="line2d_19">
      <path d="M 47.4875 68.699495 
L 426.6 68.699495 
" clip-path="url(#p15301c7679)" style="fill: none; stroke-dasharray: 0.8,1.32; stroke-dashoffset: 0; stroke: #b0b0b0; stroke-opacity: 0.6; stroke-width: 0.8"/>
     </g>
     <g id="line2d_20">
      <g>
       <use xlink:href="#m91e5c8ac3a" x="47.4875" y="68.699495" style="stroke: #000000; stroke-width: 0.8"/>
      </g>
     </g>
     <g id="text_11">
      <!-- 1.0 -->
      <g transform="translate(24.584375 72.498714) scale(0.1 -0.1)">
       <use xlink:href="#DejaVuSans-31"/>
       <use xlink:href="#DejaVuSans-2e" x="63.623047"/>
       <use xlink:href="#DejaVuSans-30" x="95.410156"/>
      </g>
     </g>
    </g>
    <g id="text_12">
     <!-- Class Label (0 or 1) / Prediction -->
     <g transform="translate(18.504688 250.328125) rotate(-90) scale(0.1 -0.1)">
      <defs>
       <path id="DejaVuSans-43" d="M 4122 4306 
L 4122 3641 
Q 3803 3938 3442 4084 
Q 3081 4231 2675 4231 
Q 1875 4231 1450 3742 
Q 1025 3253 1025 2328 
Q 1025 1406 1450 917 
Q 1875 428 2675 428 
Q 3081 428 3442 575 
Q 3803 722 4122 1019 
L 4122 359 
Q 3791 134 3420 21 
Q 3050 -91 2638 -91 
Q 1578 -91 968 557 
Q 359 1206 359 2328 
Q 359 3453 968 4101 
Q 1578 4750 2638 4750 
Q 3056 4750 3426 4639 
Q 3797 4528 4122 4306 
z
" transform="scale(0.015625)"/>
       <path id="DejaVuSans-6c" d="M 603 4863 
L 1178 4863 
L 1178 0 
L 603 0 
L 603 4863 
z
" transform="scale(0.015625)"/>
       <path id="DejaVuSans-73" d="M 2834 3397 
L 2834 2853 
Q 2591 2978 2328 3040 
Q 2066 3103 1784 3103 
Q 1356 3103 1142 2972 
Q 928 2841 928 2578 
Q 928 2378 1081 2264 
Q 1234 2150 1697 2047 
L 1894 2003 
Q 2506 1872 2764 1633 
Q 3022 1394 3022 966 
Q 3022 478 2636 193 
Q 2250 -91 1575 -91 
Q 1294 -91 989 -36 
Q 684 19 347 128 
L 347 722 
Q 666 556 975 473 
Q 1284 391 1588 391 
Q 1994 391 2212 530 
Q 2431 669 2431 922 
Q 2431 1156 2273 1281 
Q 2116 1406 1581 1522 
L 1381 1569 
Q 847 1681 609 1914 
Q 372 2147 372 2553 
Q 372 3047 722 3315 
Q 1072 3584 1716 3584 
Q 2034 3584 2315 3537 
Q 2597 3491 2834 3397 
z
" transform="scale(0.015625)"/>
       <path id="DejaVuSans-4c" d="M 628 4666 
L 1259 4666 
L 1259 531 
L 3531 531 
L 3531 0 
L 628 0 
L 628 4666 
z
" transform="scale(0.015625)"/>
       <path id="DejaVuSans-62" d="M 3116 1747 
Q 3116 2381 2855 2742 
Q 2594 3103 2138 3103 
Q 1681 3103 1420 2742 
Q 1159 2381 1159 1747 
Q 1159 1113 1420 752 
Q 1681 391 2138 391 
Q 2594 391 2855 752 
Q 3116 1113 3116 1747 
z
M 1159 2969 
Q 1341 3281 1617 3432 
Q 1894 3584 2278 3584 
Q 2916 3584 3314 3078 
Q 3713 2572 3713 1747 
Q 3713 922 3314 415 
Q 2916 -91 2278 -91 
Q 1894 -91 1617 61 
Q 1341 213 1159 525 
L 1159 0 
L 581 0 
L 581 4863 
L 1159 4863 
L 1159 2969 
z
" transform="scale(0.015625)"/>
       <path id="DejaVuSans-28" d="M 1984 4856 
Q 1566 4138 1362 3434 
Q 1159 2731 1159 2009 
Q 1159 1288 1364 580 
Q 1569 -128 1984 -844 
L 1484 -844 
Q 1016 -109 783 600 
Q 550 1309 550 2009 
Q 550 2706 781 3412 
Q 1013 4119 1484 4856 
L 1984 4856 
z
" transform="scale(0.015625)"/>
       <path id="DejaVuSans-6f" d="M 1959 3097 
Q 1497 3097 1228 2736 
Q 959 2375 959 1747 
Q 959 1119 1226 758 
Q 1494 397 1959 397 
Q 2419 397 2687 759 
Q 2956 1122 2956 1747 
Q 2956 2369 2687 2733 
Q 2419 3097 1959 3097 
z
M 1959 3584 
Q 2709 3584 3137 3096 
Q 3566 2609 3566 1747 
Q 3566 888 3137 398 
Q 2709 -91 1959 -91 
Q 1206 -91 779 398 
Q 353 888 353 1747 
Q 353 2609 779 3096 
Q 1206 3584 1959 3584 
z
" transform="scale(0.015625)"/>
       <path id="DejaVuSans-29" d="M 513 4856 
L 1013 4856 
Q 1481 4119 1714 3412 
Q 1947 2706 1947 2009 
Q 1947 1309 1714 600 
Q 1481 -109 1013 -844 
L 513 -844 
Q 928 -128 1133 580 
Q 1338 1288 1338 2009 
Q 1338 2731 1133 3434 
Q 928 4138 513 4856 
z
" transform="scale(0.015625)"/>
       <path id="DejaVuSans-2f" d="M 1625 4666 
L 2156 4666 
L 531 -594 
L 0 -594 
L 1625 4666 
z
" transform="scale(0.015625)"/>
       <path id="DejaVuSans-50" d="M 1259 4147 
L 1259 2394 
L 2053 2394 
Q 2494 2394 2734 2622 
Q 2975 2850 2975 3272 
Q 2975 3691 2734 3919 
Q 2494 4147 2053 4147 
L 1259 4147 
z
M 628 4666 
L 2053 4666 
Q 2838 4666 3239 4311 
Q 3641 3956 3641 3272 
Q 3641 2581 3239 2228 
Q 2838 1875 2053 1875 
L 1259 1875 
L 1259 0 
L 628 0 
L 628 4666 
z
" transform="scale(0.015625)"/>
       <path id="DejaVuSans-64" d="M 2906 2969 
L 2906 4863 
L 3481 4863 
L 3481 0 
L 2906 0 
L 2906 525 
Q 2725 213 2448 61 
Q 2172 -91 1784 -91 
Q 1150 -91 751 415 
Q 353 922 353 1747 
Q 353 2572 751 3078 
Q 1150 3584 1784 3584 
Q 2172 3584 2448 3432 
Q 2725 3281 2906 2969 
z
M 947 1747 
Q 947 1113 1208 752 
Q 1469 391 1925 391 
Q 2381 391 2643 752 
Q 2906 1113 2906 1747 
Q 2906 2381 2643 2742 
Q 2381 3103 1925 3103 
Q 1469 3103 1208 2742 
Q 947 2381 947 1747 
z
" transform="scale(0.015625)"/>
       <path id="DejaVuSans-69" d="M 603 3500 
L 1178 3500 
L 1178 0 
L 603 0 
L 603 3500 
z
M 603 4863 
L 1178 4863 
L 1178 4134 
L 603 4134 
L 603 4863 
z
" transform="scale(0.015625)"/>
       <path id="DejaVuSans-63" d="M 3122 3366 
L 3122 2828 
Q 2878 2963 2633 3030 
Q 2388 3097 2138 3097 
Q 1578 3097 1268 2742 
Q 959 2388 959 1747 
Q 959 1106 1268 751 
Q 1578 397 2138 397 
Q 2388 397 2633 464 
Q 2878 531 3122 666 
L 3122 134 
Q 2881 22 2623 -34 
Q 2366 -91 2075 -91 
Q 1284 -91 818 406 
Q 353 903 353 1747 
Q 353 2603 823 3093 
Q 1294 3584 2113 3584 
Q 2378 3584 2631 3529 
Q 2884 3475 3122 3366 
z
" transform="scale(0.015625)"/>
       <path id="DejaVuSans-6e" d="M 3513 2113 
L 3513 0 
L 2938 0 
L 2938 2094 
Q 2938 2591 2744 2837 
Q 2550 3084 2163 3084 
Q 1697 3084 1428 2787 
Q 1159 2491 1159 1978 
L 1159 0 
L 581 0 
L 581 3500 
L 1159 3500 
L 1159 2956 
Q 1366 3272 1645 3428 
Q 1925 3584 2291 3584 
Q 2894 3584 3203 3211 
Q 3513 2838 3513 2113 
z
" transform="scale(0.015625)"/>
      </defs>
      <use xlink:href="#DejaVuSans-43"/>
      <use xlink:href="#DejaVuSans-6c" x="69.824219"/>
      <use xlink:href="#DejaVuSans-61" x="97.607422"/>
      <use xlink:href="#DejaVuSans-73" x="158.886719"/>
      <use xlink:href="#DejaVuSans-73" x="210.986328"/>
      <use xlink:href="#DejaVuSans-20" x="263.085938"/>
      <use xlink:href="#DejaVuSans-4c" x="294.873047"/>
      <use xlink:href="#DejaVuSans-61" x="350.585938"/>
      <use xlink:href="#DejaVuSans-62" x="411.865234"/>
      <use xlink:href="#DejaVuSans-65" x="475.341797"/>
      <use xlink:href="#DejaVuSans-6c" x="536.865234"/>
      <use xlink:href="#DejaVuSans-20" x="564.648438"/>
      <use xlink:href="#DejaVuSans-28" x="596.435547"/>
      <use xlink:href="#DejaVuSans-30" x="635.449219"/>
      <use xlink:href="#DejaVuSans-20" x="699.072266"/>
      <use xlink:href="#DejaVuSans-6f" x="730.859375"/>
      <use xlink:href="#DejaVuSans-72" x="792.041016"/>
      <use xlink:href="#DejaVuSans-20" x="833.154297"/>
      <use xlink:href="#DejaVuSans-31" x="864.941406"/>
      <use xlink:href="#DejaVuSans-29" x="928.564453"/>
      <use xlink:href="#DejaVuSans-20" x="967.578125"/>
      <use xlink:href="#DejaVuSans-2f" x="999.365234"/>
      <use xlink:href="#DejaVuSans-20" x="1033.056641"/>
      <use xlink:href="#DejaVuSans-50" x="1064.84375"/>
      <use xlink:href="#DejaVuSans-72" x="1123.396484"/>
      <use xlink:href="#DejaVuSans-65" x="1162.259766"/>
      <use xlink:href="#DejaVuSans-64" x="1223.783203"/>
      <use xlink:href="#DejaVuSans-69" x="1287.259766"/>
      <use xlink:href="#DejaVuSans-63" x="1315.042969"/>
      <use xlink:href="#DejaVuSans-74" x="1370.023438"/>
      <use xlink:href="#DejaVuSans-69" x="1409.232422"/>
      <use xlink:href="#DejaVuSans-6f" x="1437.015625"/>
      <use xlink:href="#DejaVuSans-6e" x="1498.197266"/>
     </g>
    </g>
   </g>
   <g id="line2d_21">
    <path d="M 64.719886 305.386364 
L 122.161174 261.007576 
L 179.602462 216.628788 
L 294.485038 127.871212 
L 351.926326 83.492424 
L 409.367614 39.113636 
" clip-path="url(#p15301c7679)" style="fill: none; stroke-dasharray: 5.55,2.4; stroke-dashoffset: 0; stroke: #ff0000; stroke-width: 1.5"/>
   </g>
   <g id="line2d_22">
    <path d="M 47.4875 172.25 
L 426.6 172.25 
" clip-path="url(#p15301c7679)" style="fill: none; stroke-dasharray: 1.5,2.475; stroke-dashoffset: 0; stroke: #008000; stroke-width: 1.5"/>
   </g>
   <g id="patch_3">
    <path d="M 47.4875 318.7 
L 47.4875 25.8 
" style="fill: none; stroke: #000000; stroke-width: 0.8; stroke-linejoin: miter; stroke-linecap: square"/>
   </g>
   <g id="patch_4">
    <path d="M 426.6 318.7 
L 426.6 25.8 
" style="fill: none; stroke: #000000; stroke-width: 0.8; stroke-linejoin: miter; stroke-linecap: square"/>
   </g>
   <g id="patch_5">
    <path d="M 47.4875 318.7 
L 426.6 318.7 
" style="fill: none; stroke: #000000; stroke-width: 0.8; stroke-linejoin: miter; stroke-linecap: square"/>
   </g>
   <g id="patch_6">
    <path d="M 47.4875 25.8 
L 426.6 25.8 
" style="fill: none; stroke: #000000; stroke-width: 0.8; stroke-linejoin: miter; stroke-linecap: square"/>
   </g>
   <g id="text_13">
    <!-- Linear Regression for Classification (No Outlier) -->
    <g transform="translate(94.885 19.8) scale(0.12 -0.12)">
     <defs>
      <path id="DejaVuSans-52" d="M 2841 2188 
Q 3044 2119 3236 1894 
Q 3428 1669 3622 1275 
L 4263 0 
L 3584 0 
L 2988 1197 
Q 2756 1666 2539 1819 
Q 2322 1972 1947 1972 
L 1259 1972 
L 1259 0 
L 628 0 
L 628 4666 
L 2053 4666 
Q 2853 4666 3247 4331 
Q 3641 3997 3641 3322 
Q 3641 2881 3436 2590 
Q 3231 2300 2841 2188 
z
M 1259 4147 
L 1259 2491 
L 2053 2491 
Q 2509 2491 2742 2702 
Q 2975 2913 2975 3322 
Q 2975 3731 2742 3939 
Q 2509 4147 2053 4147 
L 1259 4147 
z
" transform="scale(0.015625)"/>
      <path id="DejaVuSans-67" d="M 2906 1791 
Q 2906 2416 2648 2759 
Q 2391 3103 1925 3103 
Q 1463 3103 1205 2759 
Q 947 2416 947 1791 
Q 947 1169 1205 825 
Q 1463 481 1925 481 
Q 2391 481 2648 825 
Q 2906 1169 2906 1791 
z
M 3481 434 
Q 3481 -459 3084 -895 
Q 2688 -1331 1869 -1331 
Q 1566 -1331 1297 -1286 
Q 1028 -1241 775 -1147 
L 775 -588 
Q 1028 -725 1275 -790 
Q 1522 -856 1778 -856 
Q 2344 -856 2625 -561 
Q 2906 -266 2906 331 
L 2906 616 
Q 2728 306 2450 153 
Q 2172 0 1784 0 
Q 1141 0 747 490 
Q 353 981 353 1791 
Q 353 2603 747 3093 
Q 1141 3584 1784 3584 
Q 2172 3584 2450 3431 
Q 2728 3278 2906 2969 
L 2906 3500 
L 3481 3500 
L 3481 434 
z
" transform="scale(0.015625)"/>
      <path id="DejaVuSans-66" d="M 2375 4863 
L 2375 4384 
L 1825 4384 
Q 1516 4384 1395 4259 
Q 1275 4134 1275 3809 
L 1275 3500 
L 2222 3500 
L 2222 3053 
L 1275 3053 
L 1275 0 
L 697 0 
L 697 3053 
L 147 3053 
L 147 3500 
L 697 3500 
L 697 3744 
Q 697 4328 969 4595 
Q 1241 4863 1831 4863 
L 2375 4863 
z
" transform="scale(0.015625)"/>
      <path id="DejaVuSans-4e" d="M 628 4666 
L 1478 4666 
L 3547 763 
L 3547 4666 
L 4159 4666 
L 4159 0 
L 3309 0 
L 1241 3903 
L 1241 0 
L 628 0 
L 628 4666 
z
" transform="scale(0.015625)"/>
      <path id="DejaVuSans-4f" d="M 2522 4238 
Q 1834 4238 1429 3725 
Q 1025 3213 1025 2328 
Q 1025 1447 1429 934 
Q 1834 422 2522 422 
Q 3209 422 3611 934 
Q 4013 1447 4013 2328 
Q 4013 3213 3611 3725 
Q 3209 4238 2522 4238 
z
M 2522 4750 
Q 3503 4750 4090 4092 
Q 4678 3434 4678 2328 
Q 4678 1225 4090 567 
Q 3503 -91 2522 -91 
Q 1538 -91 948 565 
Q 359 1222 359 2328 
Q 359 3434 948 4092 
Q 1538 4750 2522 4750 
z
" transform="scale(0.015625)"/>
     </defs>
     <use xlink:href="#DejaVuSans-4c"/>
     <use xlink:href="#DejaVuSans-69" x="55.712891"/>
     <use xlink:href="#DejaVuSans-6e" x="83.496094"/>
     <use xlink:href="#DejaVuSans-65" x="146.875"/>
     <use xlink:href="#DejaVuSans-61" x="208.398438"/>
     <use xlink:href="#DejaVuSans-72" x="269.677734"/>
     <use xlink:href="#DejaVuSans-20" x="310.791016"/>
     <use xlink:href="#DejaVuSans-52" x="342.578125"/>
     <use xlink:href="#DejaVuSans-65" x="407.560547"/>
     <use xlink:href="#DejaVuSans-67" x="469.083984"/>
     <use xlink:href="#DejaVuSans-72" x="532.560547"/>
     <use xlink:href="#DejaVuSans-65" x="571.423828"/>
     <use xlink:href="#DejaVuSans-73" x="632.947266"/>
     <use xlink:href="#DejaVuSans-73" x="685.046875"/>
     <use xlink:href="#DejaVuSans-69" x="737.146484"/>
     <use xlink:href="#DejaVuSans-6f" x="764.929688"/>
     <use xlink:href="#DejaVuSans-6e" x="826.111328"/>
     <use xlink:href="#DejaVuSans-20" x="889.490234"/>
     <use xlink:href="#DejaVuSans-66" x="921.277344"/>
     <use xlink:href="#DejaVuSans-6f" x="956.482422"/>
     <use xlink:href="#DejaVuSans-72" x="1017.664062"/>
     <use xlink:href="#DejaVuSans-20" x="1058.777344"/>
     <use xlink:href="#DejaVuSans-43" x="1090.564453"/>
     <use xlink:href="#DejaVuSans-6c" x="1160.388672"/>
     <use xlink:href="#DejaVuSans-61" x="1188.171875"/>
     <use xlink:href="#DejaVuSans-73" x="1249.451172"/>
     <use xlink:href="#DejaVuSans-73" x="1301.550781"/>
     <use xlink:href="#DejaVuSans-69" x="1353.650391"/>
     <use xlink:href="#DejaVuSans-66" x="1381.433594"/>
     <use xlink:href="#DejaVuSans-69" x="1416.638672"/>
     <use xlink:href="#DejaVuSans-63" x="1444.421875"/>
     <use xlink:href="#DejaVuSans-61" x="1499.402344"/>
     <use xlink:href="#DejaVuSans-74" x="1560.681641"/>
     <use xlink:href="#DejaVuSans-69" x="1599.890625"/>
     <use xlink:href="#DejaVuSans-6f" x="1627.673828"/>
     <use xlink:href="#DejaVuSans-6e" x="1688.855469"/>
     <use xlink:href="#DejaVuSans-20" x="1752.234375"/>
     <use xlink:href="#DejaVuSans-28" x="1784.021484"/>
     <use xlink:href="#DejaVuSans-4e" x="1823.035156"/>
     <use xlink:href="#DejaVuSans-6f" x="1897.839844"/>
     <use xlink:href="#DejaVuSans-20" x="1959.021484"/>
     <use xlink:href="#DejaVuSans-4f" x="1990.808594"/>
     <use xlink:href="#DejaVuSans-75" x="2069.519531"/>
     <use xlink:href="#DejaVuSans-74" x="2132.898438"/>
     <use xlink:href="#DejaVuSans-6c" x="2172.107422"/>
     <use xlink:href="#DejaVuSans-69" x="2199.890625"/>
     <use xlink:href="#DejaVuSans-65" x="2227.673828"/>
     <use xlink:href="#DejaVuSans-72" x="2289.197266"/>
     <use xlink:href="#DejaVuSans-29" x="2330.310547"/>
    </g>
   </g>
   <g id="legend_1">
    <g id="patch_7">
     <path d="M 54.4875 77.834375 
L 190.340625 77.834375 
Q 192.340625 77.834375 192.340625 75.834375 
L 192.340625 32.8 
Q 192.340625 30.8 190.340625 30.8 
L 54.4875 30.8 
Q 52.4875 30.8 52.4875 32.8 
L 52.4875 75.834375 
Q 52.4875 77.834375 54.4875 77.834375 
z
" style="fill: #ffffff; opacity: 0.8; stroke: #cccccc; stroke-linejoin: miter"/>
    </g>
    <g id="PathCollection_2">
     <g>
      <use xlink:href="#m2d16359750" x="66.4875" y="39.773438" style="fill: #0000ff; stroke: #0000ff"/>
     </g>
    </g>
    <g id="text_14">
     <!-- Data Points (0 or 1) -->
     <g transform="translate(84.4875 42.398438) scale(0.1 -0.1)">
      <defs>
       <path id="DejaVuSans-44" d="M 1259 4147 
L 1259 519 
L 2022 519 
Q 2988 519 3436 956 
Q 3884 1394 3884 2338 
Q 3884 3275 3436 3711 
Q 2988 4147 2022 4147 
L 1259 4147 
z
M 628 4666 
L 1925 4666 
Q 3281 4666 3915 4102 
Q 4550 3538 4550 2338 
Q 4550 1131 3912 565 
Q 3275 0 1925 0 
L 628 0 
L 628 4666 
z
" transform="scale(0.015625)"/>
      </defs>
      <use xlink:href="#DejaVuSans-44"/>
      <use xlink:href="#DejaVuSans-61" x="77.001953"/>
      <use xlink:href="#DejaVuSans-74" x="138.28125"/>
      <use xlink:href="#DejaVuSans-61" x="177.490234"/>
      <use xlink:href="#DejaVuSans-20" x="238.769531"/>
      <use xlink:href="#DejaVuSans-50" x="270.556641"/>
      <use xlink:href="#DejaVuSans-6f" x="327.234375"/>
      <use xlink:href="#DejaVuSans-69" x="388.416016"/>
      <use xlink:href="#DejaVuSans-6e" x="416.199219"/>
      <use xlink:href="#DejaVuSans-74" x="479.578125"/>
      <use xlink:href="#DejaVuSans-73" x="518.787109"/>
      <use xlink:href="#DejaVuSans-20" x="570.886719"/>
      <use xlink:href="#DejaVuSans-28" x="602.673828"/>
      <use xlink:href="#DejaVuSans-30" x="641.6875"/>
      <use xlink:href="#DejaVuSans-20" x="705.310547"/>
      <use xlink:href="#DejaVuSans-6f" x="737.097656"/>
      <use xlink:href="#DejaVuSans-72" x="798.279297"/>
      <use xlink:href="#DejaVuSans-20" x="839.392578"/>
      <use xlink:href="#DejaVuSans-31" x="871.179688"/>
      <use xlink:href="#DejaVuSans-29" x="934.802734"/>
     </g>
    </g>
    <g id="line2d_23">
     <path d="M 56.4875 53.576563 
L 66.4875 53.576563 
L 76.4875 53.576563 
" style="fill: none; stroke-dasharray: 5.55,2.4; stroke-dashoffset: 0; stroke: #ff0000; stroke-width: 1.5"/>
    </g>
    <g id="text_15">
     <!-- Linear Regression Fit -->
     <g transform="translate(84.4875 57.076563) scale(0.1 -0.1)">
      <use xlink:href="#DejaVuSans-4c"/>
      <use xlink:href="#DejaVuSans-69" x="55.712891"/>
      <use xlink:href="#DejaVuSans-6e" x="83.496094"/>
      <use xlink:href="#DejaVuSans-65" x="146.875"/>
      <use xlink:href="#DejaVuSans-61" x="208.398438"/>
      <use xlink:href="#DejaVuSans-72" x="269.677734"/>
      <use xlink:href="#DejaVuSans-20" x="310.791016"/>
      <use xlink:href="#DejaVuSans-52" x="342.578125"/>
      <use xlink:href="#DejaVuSans-65" x="407.560547"/>
      <use xlink:href="#DejaVuSans-67" x="469.083984"/>
      <use xlink:href="#DejaVuSans-72" x="532.560547"/>
      <use xlink:href="#DejaVuSans-65" x="571.423828"/>
      <use xlink:href="#DejaVuSans-73" x="632.947266"/>
      <use xlink:href="#DejaVuSans-73" x="685.046875"/>
      <use xlink:href="#DejaVuSans-69" x="737.146484"/>
      <use xlink:href="#DejaVuSans-6f" x="764.929688"/>
      <use xlink:href="#DejaVuSans-6e" x="826.111328"/>
      <use xlink:href="#DejaVuSans-20" x="889.490234"/>
      <use xlink:href="#DejaVuSans-46" x="921.277344"/>
      <use xlink:href="#DejaVuSans-69" x="971.546875"/>
      <use xlink:href="#DejaVuSans-74" x="999.330078"/>
     </g>
    </g>
    <g id="line2d_24">
     <path d="M 56.4875 68.254687 
L 66.4875 68.254687 
L 76.4875 68.254687 
" style="fill: none; stroke-dasharray: 1.5,2.475; stroke-dashoffset: 0; stroke: #008000; stroke-width: 1.5"/>
    </g>
    <g id="text_16">
     <!-- Threshold = 0.5 -->
     <g transform="translate(84.4875 71.754687) scale(0.1 -0.1)">
      <defs>
       <path id="DejaVuSans-54" d="M -19 4666 
L 3928 4666 
L 3928 4134 
L 2272 4134 
L 2272 0 
L 1638 0 
L 1638 4134 
L -19 4134 
L -19 4666 
z
" transform="scale(0.015625)"/>
       <path id="DejaVuSans-68" d="M 3513 2113 
L 3513 0 
L 2938 0 
L 2938 2094 
Q 2938 2591 2744 2837 
Q 2550 3084 2163 3084 
Q 1697 3084 1428 2787 
Q 1159 2491 1159 1978 
L 1159 0 
L 581 0 
L 581 4863 
L 1159 4863 
L 1159 2956 
Q 1366 3272 1645 3428 
Q 1925 3584 2291 3584 
Q 2894 3584 3203 3211 
Q 3513 2838 3513 2113 
z
" transform="scale(0.015625)"/>
       <path id="DejaVuSans-3d" d="M 678 2906 
L 4684 2906 
L 4684 2381 
L 678 2381 
L 678 2906 
z
M 678 1631 
L 4684 1631 
L 4684 1100 
L 678 1100 
L 678 1631 
z
" transform="scale(0.015625)"/>
      </defs>
      <use xlink:href="#DejaVuSans-54"/>
      <use xlink:href="#DejaVuSans-68" x="61.083984"/>
      <use xlink:href="#DejaVuSans-72" x="124.462891"/>
      <use xlink:href="#DejaVuSans-65" x="163.326172"/>
      <use xlink:href="#DejaVuSans-73" x="224.849609"/>
      <use xlink:href="#DejaVuSans-68" x="276.949219"/>
      <use xlink:href="#DejaVuSans-6f" x="340.328125"/>
      <use xlink:href="#DejaVuSans-6c" x="401.509766"/>
      <use xlink:href="#DejaVuSans-64" x="429.292969"/>
      <use xlink:href="#DejaVuSans-20" x="492.769531"/>
      <use xlink:href="#DejaVuSans-3d" x="524.556641"/>
      <use xlink:href="#DejaVuSans-20" x="608.345703"/>
      <use xlink:href="#DejaVuSans-30" x="640.132812"/>
      <use xlink:href="#DejaVuSans-2e" x="703.755859"/>
      <use xlink:href="#DejaVuSans-35" x="735.542969"/>
     </g>
    </g>
   </g>
  </g>
  <g id="axes_2">
   <g id="patch_8">
    <path d="M 474.0875 318.7 
L 853.2 318.7 
L 853.2 25.8 
L 474.0875 25.8 
z
" style="fill: #ffffff"/>
   </g>
   <g id="PathCollection_3">
    <g clip-path="url(#p4c9cfb8b5d)">
     <use xlink:href="#m2d16359750" x="517.83125" y="302.903634" style="fill: #0000ff; stroke: #0000ff"/>
     <use xlink:href="#m2d16359750" x="544.342614" y="302.903634" style="fill: #0000ff; stroke: #0000ff"/>
     <use xlink:href="#m2d16359750" x="570.853977" y="302.903634" style="fill: #0000ff; stroke: #0000ff"/>
     <use xlink:href="#m2d16359750" x="623.876705" y="122.905753" style="fill: #0000ff; stroke: #0000ff"/>
     <use xlink:href="#m2d16359750" x="650.388068" y="122.905753" style="fill: #0000ff; stroke: #0000ff"/>
     <use xlink:href="#m2d16359750" x="676.899432" y="122.905753" style="fill: #0000ff; stroke: #0000ff"/>
     <use xlink:href="#m2d16359750" x="809.45625" y="122.905753" style="fill: #0000ff; stroke: #0000ff"/>
    </g>
   </g>
   <g id="matplotlib.axis_3">
    <g id="xtick_8">
     <g id="line2d_25">
      <path d="M 491.319886 318.7 
L 491.319886 25.8 
" clip-path="url(#p4c9cfb8b5d)" style="fill: none; stroke-dasharray: 0.8,1.32; stroke-dashoffset: 0; stroke: #b0b0b0; stroke-opacity: 0.6; stroke-width: 0.8"/>
     </g>
     <g id="line2d_26">
      <g>
       <use xlink:href="#m34bd38c5da" x="491.319886" y="318.7" style="stroke: #000000; stroke-width: 0.8"/>
      </g>
     </g>
     <g id="text_17">
      <!-- 0 -->
      <g transform="translate(488.138636 333.298437) scale(0.1 -0.1)">
       <use xlink:href="#DejaVuSans-30"/>
      </g>
     </g>
    </g>
    <g id="xtick_9">
     <g id="line2d_27">
      <path d="M 544.342614 318.7 
L 544.342614 25.8 
" clip-path="url(#p4c9cfb8b5d)" style="fill: none; stroke-dasharray: 0.8,1.32; stroke-dashoffset: 0; stroke: #b0b0b0; stroke-opacity: 0.6; stroke-width: 0.8"/>
     </g>
     <g id="line2d_28">
      <g>
       <use xlink:href="#m34bd38c5da" x="544.342614" y="318.7" style="stroke: #000000; stroke-width: 0.8"/>
      </g>
     </g>
     <g id="text_18">
      <!-- 2 -->
      <g transform="translate(541.161364 333.298437) scale(0.1 -0.1)">
       <use xlink:href="#DejaVuSans-32"/>
      </g>
     </g>
    </g>
    <g id="xtick_10">
     <g id="line2d_29">
      <path d="M 597.365341 318.7 
L 597.365341 25.8 
" clip-path="url(#p4c9cfb8b5d)" style="fill: none; stroke-dasharray: 0.8,1.32; stroke-dashoffset: 0; stroke: #b0b0b0; stroke-opacity: 0.6; stroke-width: 0.8"/>
     </g>
     <g id="line2d_30">
      <g>
       <use xlink:href="#m34bd38c5da" x="597.365341" y="318.7" style="stroke: #000000; stroke-width: 0.8"/>
      </g>
     </g>
     <g id="text_19">
      <!-- 4 -->
      <g transform="translate(594.184091 333.298437) scale(0.1 -0.1)">
       <use xlink:href="#DejaVuSans-34"/>
      </g>
     </g>
    </g>
    <g id="xtick_11">
     <g id="line2d_31">
      <path d="M 650.388068 318.7 
L 650.388068 25.8 
" clip-path="url(#p4c9cfb8b5d)" style="fill: none; stroke-dasharray: 0.8,1.32; stroke-dashoffset: 0; stroke: #b0b0b0; stroke-opacity: 0.6; stroke-width: 0.8"/>
     </g>
     <g id="line2d_32">
      <g>
       <use xlink:href="#m34bd38c5da" x="650.388068" y="318.7" style="stroke: #000000; stroke-width: 0.8"/>
      </g>
     </g>
     <g id="text_20">
      <!-- 6 -->
      <g transform="translate(647.206818 333.298437) scale(0.1 -0.1)">
       <use xlink:href="#DejaVuSans-36"/>
      </g>
     </g>
    </g>
    <g id="xtick_12">
     <g id="line2d_33">
      <path d="M 703.410795 318.7 
L 703.410795 25.8 
" clip-path="url(#p4c9cfb8b5d)" style="fill: none; stroke-dasharray: 0.8,1.32; stroke-dashoffset: 0; stroke: #b0b0b0; stroke-opacity: 0.6; stroke-width: 0.8"/>
     </g>
     <g id="line2d_34">
      <g>
       <use xlink:href="#m34bd38c5da" x="703.410795" y="318.7" style="stroke: #000000; stroke-width: 0.8"/>
      </g>
     </g>
     <g id="text_21">
      <!-- 8 -->
      <g transform="translate(700.229545 333.298437) scale(0.1 -0.1)">
       <defs>
        <path id="DejaVuSans-38" d="M 2034 2216 
Q 1584 2216 1326 1975 
Q 1069 1734 1069 1313 
Q 1069 891 1326 650 
Q 1584 409 2034 409 
Q 2484 409 2743 651 
Q 3003 894 3003 1313 
Q 3003 1734 2745 1975 
Q 2488 2216 2034 2216 
z
M 1403 2484 
Q 997 2584 770 2862 
Q 544 3141 544 3541 
Q 544 4100 942 4425 
Q 1341 4750 2034 4750 
Q 2731 4750 3128 4425 
Q 3525 4100 3525 3541 
Q 3525 3141 3298 2862 
Q 3072 2584 2669 2484 
Q 3125 2378 3379 2068 
Q 3634 1759 3634 1313 
Q 3634 634 3220 271 
Q 2806 -91 2034 -91 
Q 1263 -91 848 271 
Q 434 634 434 1313 
Q 434 1759 690 2068 
Q 947 2378 1403 2484 
z
M 1172 3481 
Q 1172 3119 1398 2916 
Q 1625 2713 2034 2713 
Q 2441 2713 2670 2916 
Q 2900 3119 2900 3481 
Q 2900 3844 2670 4047 
Q 2441 4250 2034 4250 
Q 1625 4250 1398 4047 
Q 1172 3844 1172 3481 
z
" transform="scale(0.015625)"/>
       </defs>
       <use xlink:href="#DejaVuSans-38"/>
      </g>
     </g>
    </g>
    <g id="xtick_13">
     <g id="line2d_35">
      <path d="M 756.433523 318.7 
L 756.433523 25.8 
" clip-path="url(#p4c9cfb8b5d)" style="fill: none; stroke-dasharray: 0.8,1.32; stroke-dashoffset: 0; stroke: #b0b0b0; stroke-opacity: 0.6; stroke-width: 0.8"/>
     </g>
     <g id="line2d_36">
      <g>
       <use xlink:href="#m34bd38c5da" x="756.433523" y="318.7" style="stroke: #000000; stroke-width: 0.8"/>
      </g>
     </g>
     <g id="text_22">
      <!-- 10 -->
      <g transform="translate(750.071023 333.298437) scale(0.1 -0.1)">
       <use xlink:href="#DejaVuSans-31"/>
       <use xlink:href="#DejaVuSans-30" x="63.623047"/>
      </g>
     </g>
    </g>
    <g id="xtick_14">
     <g id="line2d_37">
      <path d="M 809.45625 318.7 
L 809.45625 25.8 
" clip-path="url(#p4c9cfb8b5d)" style="fill: none; stroke-dasharray: 0.8,1.32; stroke-dashoffset: 0; stroke: #b0b0b0; stroke-opacity: 0.6; stroke-width: 0.8"/>
     </g>
     <g id="line2d_38">
      <g>
       <use xlink:href="#m34bd38c5da" x="809.45625" y="318.7" style="stroke: #000000; stroke-width: 0.8"/>
      </g>
     </g>
     <g id="text_23">
      <!-- 12 -->
      <g transform="translate(803.09375 333.298437) scale(0.1 -0.1)">
       <use xlink:href="#DejaVuSans-31"/>
       <use xlink:href="#DejaVuSans-32" x="63.623047"/>
      </g>
     </g>
    </g>
    <g id="text_24">
     <!-- Feature X -->
     <g transform="translate(639.739844 346.976562) scale(0.1 -0.1)">
      <use xlink:href="#DejaVuSans-46"/>
      <use xlink:href="#DejaVuSans-65" x="52.019531"/>
      <use xlink:href="#DejaVuSans-61" x="113.542969"/>
      <use xlink:href="#DejaVuSans-74" x="174.822266"/>
      <use xlink:href="#DejaVuSans-75" x="214.03125"/>
      <use xlink:href="#DejaVuSans-72" x="277.410156"/>
      <use xlink:href="#DejaVuSans-65" x="316.273438"/>
      <use xlink:href="#DejaVuSans-20" x="377.796875"/>
      <use xlink:href="#DejaVuSans-58" x="409.583984"/>
     </g>
    </g>
   </g>
   <g id="matplotlib.axis_4">
    <g id="ytick_4">
     <g id="line2d_39">
      <path d="M 474.0875 302.903634 
L 853.2 302.903634 
" clip-path="url(#p4c9cfb8b5d)" style="fill: none; stroke-dasharray: 0.8,1.32; stroke-dashoffset: 0; stroke: #b0b0b0; stroke-opacity: 0.6; stroke-width: 0.8"/>
     </g>
     <g id="line2d_40">
      <g>
       <use xlink:href="#m91e5c8ac3a" x="474.0875" y="302.903634" style="stroke: #000000; stroke-width: 0.8"/>
      </g>
     </g>
     <g id="text_25">
      <!-- 0.0 -->
      <g transform="translate(451.184375 306.702853) scale(0.1 -0.1)">
       <use xlink:href="#DejaVuSans-30"/>
       <use xlink:href="#DejaVuSans-2e" x="63.623047"/>
       <use xlink:href="#DejaVuSans-30" x="95.410156"/>
      </g>
     </g>
    </g>
    <g id="ytick_5">
     <g id="line2d_41">
      <path d="M 474.0875 212.904694 
L 853.2 212.904694 
" clip-path="url(#p4c9cfb8b5d)" style="fill: none; stroke-dasharray: 0.8,1.32; stroke-dashoffset: 0; stroke: #b0b0b0; stroke-opacity: 0.6; stroke-width: 0.8"/>
     </g>
     <g id="line2d_42">
      <g>
       <use xlink:href="#m91e5c8ac3a" x="474.0875" y="212.904694" style="stroke: #000000; stroke-width: 0.8"/>
      </g>
     </g>
     <g id="text_26">
      <!-- 0.5 -->
      <g transform="translate(451.184375 216.703913) scale(0.1 -0.1)">
       <use xlink:href="#DejaVuSans-30"/>
       <use xlink:href="#DejaVuSans-2e" x="63.623047"/>
       <use xlink:href="#DejaVuSans-35" x="95.410156"/>
      </g>
     </g>
    </g>
    <g id="ytick_6">
     <g id="line2d_43">
      <path d="M 474.0875 122.905753 
L 853.2 122.905753 
" clip-path="url(#p4c9cfb8b5d)" style="fill: none; stroke-dasharray: 0.8,1.32; stroke-dashoffset: 0; stroke: #b0b0b0; stroke-opacity: 0.6; stroke-width: 0.8"/>
     </g>
     <g id="line2d_44">
      <g>
       <use xlink:href="#m91e5c8ac3a" x="474.0875" y="122.905753" style="stroke: #000000; stroke-width: 0.8"/>
      </g>
     </g>
     <g id="text_27">
      <!-- 1.0 -->
      <g transform="translate(451.184375 126.704972) scale(0.1 -0.1)">
       <use xlink:href="#DejaVuSans-31"/>
       <use xlink:href="#DejaVuSans-2e" x="63.623047"/>
       <use xlink:href="#DejaVuSans-30" x="95.410156"/>
      </g>
     </g>
    </g>
    <g id="text_28">
     <!-- Class Label (0 or 1) / Prediction -->
     <g transform="translate(445.104688 250.328125) rotate(-90) scale(0.1 -0.1)">
      <use xlink:href="#DejaVuSans-43"/>
      <use xlink:href="#DejaVuSans-6c" x="69.824219"/>
      <use xlink:href="#DejaVuSans-61" x="97.607422"/>
      <use xlink:href="#DejaVuSans-73" x="158.886719"/>
      <use xlink:href="#DejaVuSans-73" x="210.986328"/>
      <use xlink:href="#DejaVuSans-20" x="263.085938"/>
      <use xlink:href="#DejaVuSans-4c" x="294.873047"/>
      <use xlink:href="#DejaVuSans-61" x="350.585938"/>
      <use xlink:href="#DejaVuSans-62" x="411.865234"/>
      <use xlink:href="#DejaVuSans-65" x="475.341797"/>
      <use xlink:href="#DejaVuSans-6c" x="536.865234"/>
      <use xlink:href="#DejaVuSans-20" x="564.648438"/>
      <use xlink:href="#DejaVuSans-28" x="596.435547"/>
      <use xlink:href="#DejaVuSans-30" x="635.449219"/>
      <use xlink:href="#DejaVuSans-20" x="699.072266"/>
      <use xlink:href="#DejaVuSans-6f" x="730.859375"/>
      <use xlink:href="#DejaVuSans-72" x="792.041016"/>
      <use xlink:href="#DejaVuSans-20" x="833.154297"/>
      <use xlink:href="#DejaVuSans-31" x="864.941406"/>
      <use xlink:href="#DejaVuSans-29" x="928.564453"/>
      <use xlink:href="#DejaVuSans-20" x="967.578125"/>
      <use xlink:href="#DejaVuSans-2f" x="999.365234"/>
      <use xlink:href="#DejaVuSans-20" x="1033.056641"/>
      <use xlink:href="#DejaVuSans-50" x="1064.84375"/>
      <use xlink:href="#DejaVuSans-72" x="1123.396484"/>
      <use xlink:href="#DejaVuSans-65" x="1162.259766"/>
      <use xlink:href="#DejaVuSans-64" x="1223.783203"/>
      <use xlink:href="#DejaVuSans-69" x="1287.259766"/>
      <use xlink:href="#DejaVuSans-63" x="1315.042969"/>
      <use xlink:href="#DejaVuSans-74" x="1370.023438"/>
      <use xlink:href="#DejaVuSans-69" x="1409.232422"/>
      <use xlink:href="#DejaVuSans-6f" x="1437.015625"/>
      <use xlink:href="#DejaVuSans-6e" x="1498.197266"/>
     </g>
    </g>
   </g>
   <g id="line2d_45">
    <path d="M 491.319886 305.386364 
L 494.801177 302.69674 
L 498.282467 300.007117 
L 501.763757 297.317493 
L 505.245047 294.62787 
L 508.726337 291.938246 
L 512.207627 289.248623 
L 515.688918 286.558999 
L 519.170208 283.869376 
L 522.651498 281.179752 
L 526.132788 278.490129 
L 529.614078 275.800505 
L 533.095368 273.110882 
L 536.576659 270.421258 
L 540.057949 267.731635 
L 543.539239 265.042011 
L 547.020529 262.352388 
L 550.501819 259.662764 
L 553.98311 256.97314 
L 557.4644 254.283517 
L 560.94569 251.593893 
L 564.42698 248.90427 
L 567.90827 246.214646 
L 571.38956 243.525023 
L 574.870851 240.835399 
L 578.352141 238.145776 
L 581.833431 235.456152 
L 585.314721 232.766529 
L 588.796011 230.076905 
L 592.277301 227.387282 
L 595.758592 224.697658 
L 599.239882 222.008035 
L 602.721172 219.318411 
L 606.202462 216.628788 
L 609.683752 213.939164 
L 613.165042 211.249541 
L 616.646333 208.559917 
L 620.127623 205.870294 
L 623.608913 203.18067 
L 627.090203 200.491047 
L 630.571493 197.801423 
L 634.052784 195.1118 
L 637.534074 192.422176 
L 641.015364 189.732553 
L 644.496654 187.042929 
L 647.977944 184.353306 
L 651.459234 181.663682 
L 654.940525 178.974059 
L 658.421815 176.284435 
L 661.903105 173.594812 
L 665.384395 170.905188 
L 668.865685 168.215565 
L 672.346975 165.525941 
L 675.828266 162.836318 
L 679.309556 160.146694 
L 682.790846 157.457071 
L 686.272136 154.767447 
L 689.753426 152.077824 
L 693.234716 149.3882 
L 696.716007 146.698577 
L 700.197297 144.008953 
L 703.678587 141.31933 
L 707.159877 138.629706 
L 710.641167 135.940083 
L 714.122458 133.250459 
L 717.603748 130.560836 
L 721.085038 127.871212 
L 724.566328 125.181589 
L 728.047618 122.491965 
L 731.528908 119.802342 
L 735.010199 117.112718 
L 738.491489 114.423095 
L 741.972779 111.733471 
L 745.454069 109.043848 
L 748.935359 106.354224 
L 752.416649 103.664601 
L 755.89794 100.974977 
L 759.37923 98.285354 
L 762.86052 95.59573 
L 766.34181 92.906107 
L 769.8231 90.216483 
L 773.30439 87.52686 
L 776.785681 84.837236 
L 780.266971 82.147612 
L 783.748261 79.457989 
L 787.229551 76.768365 
L 790.710841 74.078742 
L 794.192132 71.389118 
L 797.673422 68.699495 
L 801.154712 66.009871 
L 804.636002 63.320248 
L 808.117292 60.630624 
L 811.598582 57.941001 
L 815.079873 55.251377 
L 818.561163 52.561754 
L 822.042453 49.87213 
L 825.523743 47.182507 
L 829.005033 44.492883 
L 832.486323 41.80326 
L 835.967614 39.113636 
" clip-path="url(#p4c9cfb8b5d)" style="fill: none; stroke-dasharray: 5.55,2.4; stroke-dashoffset: 0; stroke: #ff0000; stroke-width: 1.5"/>
   </g>
   <g id="line2d_46">
    <path d="M 474.0875 212.904694 
L 853.2 212.904694 
" clip-path="url(#p4c9cfb8b5d)" style="fill: none; stroke-dasharray: 1.5,2.475; stroke-dashoffset: 0; stroke: #008000; stroke-width: 1.5"/>
   </g>
   <g id="patch_9">
    <path d="M 474.0875 318.7 
L 474.0875 25.8 
" style="fill: none; stroke: #000000; stroke-width: 0.8; stroke-linejoin: miter; stroke-linecap: square"/>
   </g>
   <g id="patch_10">
    <path d="M 853.2 318.7 
L 853.2 25.8 
" style="fill: none; stroke: #000000; stroke-width: 0.8; stroke-linejoin: miter; stroke-linecap: square"/>
   </g>
   <g id="patch_11">
    <path d="M 474.0875 318.7 
L 853.2 318.7 
" style="fill: none; stroke: #000000; stroke-width: 0.8; stroke-linejoin: miter; stroke-linecap: square"/>
   </g>
   <g id="patch_12">
    <path d="M 474.0875 25.8 
L 853.2 25.8 
" style="fill: none; stroke: #000000; stroke-width: 0.8; stroke-linejoin: miter; stroke-linecap: square"/>
   </g>
   <g id="text_29">
    <!-- Linear Regression for Classification (With Outlier) -->
    <g transform="translate(516.025937 19.8) scale(0.12 -0.12)">
     <defs>
      <path id="DejaVuSans-57" d="M 213 4666 
L 850 4666 
L 1831 722 
L 2809 4666 
L 3519 4666 
L 4500 722 
L 5478 4666 
L 6119 4666 
L 4947 0 
L 4153 0 
L 3169 4050 
L 2175 0 
L 1381 0 
L 213 4666 
z
" transform="scale(0.015625)"/>
     </defs>
     <use xlink:href="#DejaVuSans-4c"/>
     <use xlink:href="#DejaVuSans-69" x="55.712891"/>
     <use xlink:href="#DejaVuSans-6e" x="83.496094"/>
     <use xlink:href="#DejaVuSans-65" x="146.875"/>
     <use xlink:href="#DejaVuSans-61" x="208.398438"/>
     <use xlink:href="#DejaVuSans-72" x="269.677734"/>
     <use xlink:href="#DejaVuSans-20" x="310.791016"/>
     <use xlink:href="#DejaVuSans-52" x="342.578125"/>
     <use xlink:href="#DejaVuSans-65" x="407.560547"/>
     <use xlink:href="#DejaVuSans-67" x="469.083984"/>
     <use xlink:href="#DejaVuSans-72" x="532.560547"/>
     <use xlink:href="#DejaVuSans-65" x="571.423828"/>
     <use xlink:href="#DejaVuSans-73" x="632.947266"/>
     <use xlink:href="#DejaVuSans-73" x="685.046875"/>
     <use xlink:href="#DejaVuSans-69" x="737.146484"/>
     <use xlink:href="#DejaVuSans-6f" x="764.929688"/>
     <use xlink:href="#DejaVuSans-6e" x="826.111328"/>
     <use xlink:href="#DejaVuSans-20" x="889.490234"/>
     <use xlink:href="#DejaVuSans-66" x="921.277344"/>
     <use xlink:href="#DejaVuSans-6f" x="956.482422"/>
     <use xlink:href="#DejaVuSans-72" x="1017.664062"/>
     <use xlink:href="#DejaVuSans-20" x="1058.777344"/>
     <use xlink:href="#DejaVuSans-43" x="1090.564453"/>
     <use xlink:href="#DejaVuSans-6c" x="1160.388672"/>
     <use xlink:href="#DejaVuSans-61" x="1188.171875"/>
     <use xlink:href="#DejaVuSans-73" x="1249.451172"/>
     <use xlink:href="#DejaVuSans-73" x="1301.550781"/>
     <use xlink:href="#DejaVuSans-69" x="1353.650391"/>
     <use xlink:href="#DejaVuSans-66" x="1381.433594"/>
     <use xlink:href="#DejaVuSans-69" x="1416.638672"/>
     <use xlink:href="#DejaVuSans-63" x="1444.421875"/>
     <use xlink:href="#DejaVuSans-61" x="1499.402344"/>
     <use xlink:href="#DejaVuSans-74" x="1560.681641"/>
     <use xlink:href="#DejaVuSans-69" x="1599.890625"/>
     <use xlink:href="#DejaVuSans-6f" x="1627.673828"/>
     <use xlink:href="#DejaVuSans-6e" x="1688.855469"/>
     <use xlink:href="#DejaVuSans-20" x="1752.234375"/>
     <use xlink:href="#DejaVuSans-28" x="1784.021484"/>
     <use xlink:href="#DejaVuSans-57" x="1823.035156"/>
     <use xlink:href="#DejaVuSans-69" x="1919.662109"/>
     <use xlink:href="#DejaVuSans-74" x="1947.445312"/>
     <use xlink:href="#DejaVuSans-68" x="1986.654297"/>
     <use xlink:href="#DejaVuSans-20" x="2050.033203"/>
     <use xlink:href="#DejaVuSans-4f" x="2081.820312"/>
     <use xlink:href="#DejaVuSans-75" x="2160.53125"/>
     <use xlink:href="#DejaVuSans-74" x="2223.910156"/>
     <use xlink:href="#DejaVuSans-6c" x="2263.119141"/>
     <use xlink:href="#DejaVuSans-69" x="2290.902344"/>
     <use xlink:href="#DejaVuSans-65" x="2318.685547"/>
     <use xlink:href="#DejaVuSans-72" x="2380.208984"/>
     <use xlink:href="#DejaVuSans-29" x="2421.322266"/>
    </g>
   </g>
   <g id="legend_2">
    <g id="patch_13">
     <path d="M 481.0875 77.834375 
L 616.940625 77.834375 
Q 618.940625 77.834375 618.940625 75.834375 
L 618.940625 32.8 
Q 618.940625 30.8 616.940625 30.8 
L 481.0875 30.8 
Q 479.0875 30.8 479.0875 32.8 
L 479.0875 75.834375 
Q 479.0875 77.834375 481.0875 77.834375 
z
" style="fill: #ffffff; opacity: 0.8; stroke: #cccccc; stroke-linejoin: miter"/>
    </g>
    <g id="PathCollection_4">
     <g>
      <use xlink:href="#m2d16359750" x="493.0875" y="39.773438" style="fill: #0000ff; stroke: #0000ff"/>
     </g>
    </g>
    <g id="text_30">
     <!-- Data Points (0 or 1) -->
     <g transform="translate(511.0875 42.398438) scale(0.1 -0.1)">
      <use xlink:href="#DejaVuSans-44"/>
      <use xlink:href="#DejaVuSans-61" x="77.001953"/>
      <use xlink:href="#DejaVuSans-74" x="138.28125"/>
      <use xlink:href="#DejaVuSans-61" x="177.490234"/>
      <use xlink:href="#DejaVuSans-20" x="238.769531"/>
      <use xlink:href="#DejaVuSans-50" x="270.556641"/>
      <use xlink:href="#DejaVuSans-6f" x="327.234375"/>
      <use xlink:href="#DejaVuSans-69" x="388.416016"/>
      <use xlink:href="#DejaVuSans-6e" x="416.199219"/>
      <use xlink:href="#DejaVuSans-74" x="479.578125"/>
      <use xlink:href="#DejaVuSans-73" x="518.787109"/>
      <use xlink:href="#DejaVuSans-20" x="570.886719"/>
      <use xlink:href="#DejaVuSans-28" x="602.673828"/>
      <use xlink:href="#DejaVuSans-30" x="641.6875"/>
      <use xlink:href="#DejaVuSans-20" x="705.310547"/>
      <use xlink:href="#DejaVuSans-6f" x="737.097656"/>
      <use xlink:href="#DejaVuSans-72" x="798.279297"/>
      <use xlink:href="#DejaVuSans-20" x="839.392578"/>
      <use xlink:href="#DejaVuSans-31" x="871.179688"/>
      <use xlink:href="#DejaVuSans-29" x="934.802734"/>
     </g>
    </g>
    <g id="line2d_47">
     <path d="M 483.0875 53.576563 
L 493.0875 53.576563 
L 503.0875 53.576563 
" style="fill: none; stroke-dasharray: 5.55,2.4; stroke-dashoffset: 0; stroke: #ff0000; stroke-width: 1.5"/>
    </g>
    <g id="text_31">
     <!-- Linear Regression Fit -->
     <g transform="translate(511.0875 57.076563) scale(0.1 -0.1)">
      <use xlink:href="#DejaVuSans-4c"/>
      <use xlink:href="#DejaVuSans-69" x="55.712891"/>
      <use xlink:href="#DejaVuSans-6e" x="83.496094"/>
      <use xlink:href="#DejaVuSans-65" x="146.875"/>
      <use xlink:href="#DejaVuSans-61" x="208.398438"/>
      <use xlink:href="#DejaVuSans-72" x="269.677734"/>
      <use xlink:href="#DejaVuSans-20" x="310.791016"/>
      <use xlink:href="#DejaVuSans-52" x="342.578125"/>
      <use xlink:href="#DejaVuSans-65" x="407.560547"/>
      <use xlink:href="#DejaVuSans-67" x="469.083984"/>
      <use xlink:href="#DejaVuSans-72" x="532.560547"/>
      <use xlink:href="#DejaVuSans-65" x="571.423828"/>
      <use xlink:href="#DejaVuSans-73" x="632.947266"/>
      <use xlink:href="#DejaVuSans-73" x="685.046875"/>
      <use xlink:href="#DejaVuSans-69" x="737.146484"/>
      <use xlink:href="#DejaVuSans-6f" x="764.929688"/>
      <use xlink:href="#DejaVuSans-6e" x="826.111328"/>
      <use xlink:href="#DejaVuSans-20" x="889.490234"/>
      <use xlink:href="#DejaVuSans-46" x="921.277344"/>
      <use xlink:href="#DejaVuSans-69" x="971.546875"/>
      <use xlink:href="#DejaVuSans-74" x="999.330078"/>
     </g>
    </g>
    <g id="line2d_48">
     <path d="M 483.0875 68.254687 
L 493.0875 68.254687 
L 503.0875 68.254687 
" style="fill: none; stroke-dasharray: 1.5,2.475; stroke-dashoffset: 0; stroke: #008000; stroke-width: 1.5"/>
    </g>
    <g id="text_32">
     <!-- Threshold = 0.5 -->
     <g transform="translate(511.0875 71.754687) scale(0.1 -0.1)">
      <use xlink:href="#DejaVuSans-54"/>
      <use xlink:href="#DejaVuSans-68" x="61.083984"/>
      <use xlink:href="#DejaVuSans-72" x="124.462891"/>
      <use xlink:href="#DejaVuSans-65" x="163.326172"/>
      <use xlink:href="#DejaVuSans-73" x="224.849609"/>
      <use xlink:href="#DejaVuSans-68" x="276.949219"/>
      <use xlink:href="#DejaVuSans-6f" x="340.328125"/>
      <use xlink:href="#DejaVuSans-6c" x="401.509766"/>
      <use xlink:href="#DejaVuSans-64" x="429.292969"/>
      <use xlink:href="#DejaVuSans-20" x="492.769531"/>
      <use xlink:href="#DejaVuSans-3d" x="524.556641"/>
      <use xlink:href="#DejaVuSans-20" x="608.345703"/>
      <use xlink:href="#DejaVuSans-30" x="640.132812"/>
      <use xlink:href="#DejaVuSans-2e" x="703.755859"/>
      <use xlink:href="#DejaVuSans-35" x="735.542969"/>
     </g>
    </g>
   </g>
  </g>
 </g>
 <defs>
  <clipPath id="p15301c7679">
   <rect x="47.4875" y="25.8" width="379.1125" height="292.9"/>
  </clipPath>
  <clipPath id="p4c9cfb8b5d">
   <rect x="474.0875" y="25.8" width="379.1125" height="292.9"/>
  </clipPath>
 </defs>
</svg>
